<svg xmlns="http://www.w3.org/2000/svg" xmlns:xlink="http://www.w3.org/1999/xlink" width="108" height="108" viewBox="0 0 108 108">
  <defs>
    <filter id="Trazado_979055" x="0" y="0" width="108" height="108" filterUnits="userSpaceOnUse">
      <feOffset dy="3" input="SourceAlpha"/>
      <feGaussianBlur stdDeviation="3" result="blur"/>
      <feFlood flood-opacity="0.161"/>
      <feComposite operator="in" in2="blur"/>
      <feComposite in="SourceGraphic"/>
    </filter>
  </defs>
  <g id="Grupo_1158033" data-name="Grupo 1158033" transform="translate(-199 -587)">
    <g id="Grupo_1156425" data-name="Grupo 1156425" transform="translate(208 593)">
      <g id="Grupo_1149022" data-name="Grupo 1149022">
        <g id="Grupo_1146617" data-name="Grupo 1146617">
          <g transform="matrix(1, 0, 0, 1, -9, -6)" filter="url(#Trazado_979055)">
            <g id="Trazado_979055-2" data-name="Trazado 979055" transform="translate(9 6)" fill="#faece9">
              <path d="M 45 88.5 C 39.12687683105469 88.5 33.43022537231445 87.35007476806641 28.06830024719238 85.08217620849609 C 22.88852500915527 82.89131164550781 18.23629951477051 79.75458526611328 14.2408504486084 75.75914764404297 C 10.24541282653809 71.76370239257812 7.108687400817871 67.11147308349609 4.917825222015381 61.93170166015625 C 2.649924993515015 56.56977462768555 1.5 50.87312316894531 1.5 45 C 1.5 39.12687683105469 2.649924993515015 33.43022537231445 4.917825222015381 28.06830024719238 C 7.108687400817871 22.88852500915527 10.24541282653809 18.23629951477051 14.2408504486084 14.2408504486084 C 18.23629951477051 10.24541282653809 22.88852500915527 7.108687400817871 28.06830024719238 4.917825222015381 C 33.43022537231445 2.649924993515015 39.12687683105469 1.5 45 1.5 C 50.87312316894531 1.5 56.56977462768555 2.649924993515015 61.93170166015625 4.917825222015381 C 67.11147308349609 7.108687400817871 71.76370239257812 10.24541282653809 75.75914764404297 14.2408504486084 C 79.75458526611328 18.23629951477051 82.89131164550781 22.88852500915527 85.08217620849609 28.06830024719238 C 87.35007476806641 33.43022537231445 88.5 39.12687683105469 88.5 45 C 88.5 50.87312316894531 87.35007476806641 56.56977462768555 85.08217620849609 61.93170166015625 C 82.89131164550781 67.11147308349609 79.75458526611328 71.76370239257812 75.75914764404297 75.75914764404297 C 71.76370239257812 79.75458526611328 67.11147308349609 82.89131164550781 61.93170166015625 85.08217620849609 C 56.56977462768555 87.35007476806641 50.87312316894531 88.5 45 88.5 Z" stroke="none"/>
              <path d="M 45 3 C 39.32871246337891 3 33.82865524291992 4.110054016113281 28.65262985229492 6.299339294433594 C 23.65165710449219 8.414573669433594 19.15968322753906 11.44334411621094 15.301513671875 15.301513671875 C 11.44334411621094 19.15968322753906 8.414573669433594 23.65165710449219 6.299339294433594 28.65262985229492 C 4.110054016113281 33.82865524291992 3 39.32871246337891 3 45 C 3 50.67128753662109 4.110054016113281 56.17134475708008 6.299339294433594 61.34737396240234 C 8.414573669433594 66.34834289550781 11.44334411621094 70.84031677246094 15.301513671875 74.698486328125 C 19.15968322753906 78.55665588378906 23.65165710449219 81.58542633056641 28.65262985229492 83.70066070556641 C 33.82865524291992 85.88994598388672 39.32871246337891 87 45 87 C 50.67128753662109 87 56.17134475708008 85.88994598388672 61.34737396240234 83.70066070556641 C 66.34834289550781 81.58542633056641 70.84031677246094 78.55665588378906 74.698486328125 74.698486328125 C 78.55665588378906 70.84031677246094 81.58542633056641 66.34834289550781 83.70066070556641 61.34737396240234 C 85.88994598388672 56.17134475708008 87 50.67128753662109 87 45 C 87 39.32871246337891 85.88994598388672 33.82865524291992 83.70066070556641 28.65262985229492 C 81.58542633056641 23.65165710449219 78.55665588378906 19.15968322753906 74.698486328125 15.301513671875 C 70.84031677246094 11.44334411621094 66.34834289550781 8.414573669433594 61.34737396240234 6.299339294433594 C 56.17134475708008 4.110054016113281 50.67128753662109 3 45 3 M 45 0 C 69.85281372070312 0 90 20.14718627929688 90 45 C 90 69.85281372070312 69.85281372070312 90 45 90 C 20.14718627929688 90 0 69.85281372070312 0 45 C 0 20.14718627929688 20.14718627929688 0 45 0 Z" stroke="none" fill="#f97c61"/>
            </g>
          </g>
        </g>
      </g>
    </g>
    <g id="educacion" transform="translate(223.884 611)">
      <g id="Grupo_1158032" data-name="Grupo 1158032" transform="translate(3.894 0.777)">
        <g id="Grupo_1158031" data-name="Grupo 1158031" transform="translate(0)">
          <g id="Grupo_1158029" data-name="Grupo 1158029" transform="translate(0 19.707)">
            <g id="Grupo_1158025" data-name="Grupo 1158025" transform="translate(3.11)">
              <path id="Trazado_992144" data-name="Trazado 992144" d="M100.474,226.621H62.687a2.893,2.893,0,0,1,0-5.786h37.788A6.353,6.353,0,0,0,100.474,226.621Z" transform="translate(-57.806 -218.425)" fill="#f7f7f7"/>
              <path id="Trazado_992145" data-name="Trazado 992145" d="M125.486,220.834h-3.11a6.353,6.353,0,0,0,0,5.786h3.11A6.353,6.353,0,0,1,125.486,220.834Z" transform="translate(-82.817 -218.425)" fill="#efefef"/>
              <path id="Trazado_992146" data-name="Trazado 992146" d="M45.919,208.2a5.307,5.307,0,0,1-5.3-5.355,5.349,5.349,0,0,1,5.36-5.251H83.706a1.567,1.567,0,0,1,0,3.133H45.919a2.169,2.169,0,0,0,0,4.338H83.706a1.567,1.567,0,0,1,0,3.133Z" transform="translate(-40.617 -197.592)" fill="#ff815c"/>
            </g>
            <g id="Grupo_1158028" data-name="Grupo 1158028" transform="translate(0 10.605)">
              <g id="Grupo_1158026" data-name="Grupo 1158026" transform="translate(0 10.605)">
                <path id="Trazado_992147" data-name="Trazado 992147" d="M80.759,431.222H36.751a2.893,2.893,0,0,1,0-5.786H80.759a6.353,6.353,0,0,0,0,5.786Z" transform="translate(-31.449 -423.026)" fill="#f7f7f7"/>
                <path id="Trazado_992148" data-name="Trazado 992148" d="M453.349,425.436h-3.11a6.353,6.353,0,0,0,0,5.786h3.11A6.352,6.352,0,0,1,453.349,425.436Z" transform="translate(-404.039 -423.026)" fill="#efefef"/>
                <path id="Trazado_992149" data-name="Trazado 992149" d="M15.919,412.8a5.307,5.307,0,0,1-5.3-5.355,5.349,5.349,0,0,1,5.36-5.251H59.927a1.567,1.567,0,0,1,0,3.134H15.919a2.169,2.169,0,0,0,0,4.338H59.926a1.567,1.567,0,0,1,0,3.134H15.919Z" transform="translate(-10.617 -402.193)" fill="#ffe66b"/>
              </g>
              <g id="Grupo_1158027" data-name="Grupo 1158027" transform="translate(0)">
                <path id="Trazado_992150" data-name="Trazado 992150" d="M25.729,323.135H69.737a2.893,2.893,0,0,1,0,5.786H25.729A6.353,6.353,0,0,0,25.729,323.135Z" transform="translate(-24.162 -320.725)" fill="#f7f7f7"/>
                <path id="Trazado_992151" data-name="Trazado 992151" d="M12.184,310.5a1.567,1.567,0,0,1,0-3.133H56.191a2.169,2.169,0,0,0,0-4.338H12.184a1.567,1.567,0,0,1,0-3.134H56.191a5.308,5.308,0,0,1,5.3,5.355,5.349,5.349,0,0,1-5.36,5.251Z" transform="translate(-10.617 -299.892)" fill="#c9f0ff"/>
                <path id="Trazado_992152" data-name="Trazado 992152" d="M426.6,301.465a5.264,5.264,0,0,0-3.766-1.573h-3.11a5.308,5.308,0,0,1,5.3,5.355,5.349,5.349,0,0,1-5.36,5.251h3.11a5.349,5.349,0,0,0,5.36-5.251A5.266,5.266,0,0,0,426.6,301.465Z" transform="translate(-377.261 -299.892)" fill="#b5eaff"/>
              </g>
            </g>
          </g>
          <g id="Grupo_1158030" data-name="Grupo 1158030" transform="translate(1.297)">
            <path id="Trazado_992153" data-name="Trazado 992153" d="M145.024,107.054H116l3.11-10.472h22.807Z" transform="translate(-106.37 -87.346)" fill="#288a9a"/>
            <path id="Trazado_992154" data-name="Trazado 992154" d="M44.591,7.839,23.959,13.258a1.112,1.112,0,0,0,0,2.151l20.631,5.419a10.552,10.552,0,0,0,5.361,0l20.631-5.419a1.112,1.112,0,0,0,0-2.151L49.952,7.839A10.552,10.552,0,0,0,44.591,7.839Z" transform="translate(-23.13 -7.493)" fill="#3498ac"/>
            <path id="Trazado_992155" data-name="Trazado 992155" d="M229.028,13.258,208.4,7.839a10.552,10.552,0,0,0-5.361,0l-3.135.823a10.553,10.553,0,0,1,4.349.213l20.631,5.419a1.112,1.112,0,0,1,0,2.151l4.147-1.037A1.112,1.112,0,0,0,229.028,13.258Z" transform="translate(-181.575 -7.493)" fill="#288a9a"/>
            <path id="Trazado_992156" data-name="Trazado 992156" d="M306.776,182.608H302.3s0-6.753,2.237-6.753S306.776,182.608,306.776,182.608Z" transform="translate(-273.36 -158.401)" fill="#ffe66b"/>
          </g>
        </g>
        <path id="Trazado_992157" data-name="Trazado 992157" d="M96.7,340.723l-3.7,1.94V330.118h3.7Z" transform="translate(-84.457 -296.672)" fill="#3498ac"/>
      </g>
      <path id="Trazado_992158" data-name="Trazado 992158" d="M243.511,44.674a2.881,2.881,0,0,1-3.074,0v-2.21a1.537,1.537,0,0,1,3.074,0Z" transform="translate(-212.718 -36.684)" fill="#ffe66b"/>
      <path id="Trazado_992159" data-name="Trazado 992159" d="M53.463,48.4a5.6,5.6,0,0,1,0-2.813,2.345,2.345,0,0,0,.016-4.657,6.044,6.044,0,0,0,2.069-4.482,6.144,6.144,0,0,0-3.536-5.584,2.372,2.372,0,0,0-2.084-3.689,5.6,5.6,0,0,1,0-2.783c3.1.162,3.3-4.689.166-4.689H44.426l-2.218-7.469L52.841,9.444a1.9,1.9,0,0,0,0-3.655L32.21.371a11.35,11.35,0,0,0-5.756,0L18.783,2.386a.778.778,0,0,0,.4,1.5l7.672-2.015a9.8,9.8,0,0,1,4.966,0L52.446,7.294a.335.335,0,0,1,0,.647L36.568,12.111l-5-4.531V5.78a2.315,2.315,0,0,0-4.629,0V7.99a.777.777,0,0,0,.371.662,3.639,3.639,0,0,0,3.4.252l4.056,3.678-2.958.777a9.8,9.8,0,0,1-4.966,0L6.218,7.941a.335.335,0,0,1,0-.647l9.025-2.37a.778.778,0,0,0-.4-1.5L5.823,5.79a1.9,1.9,0,0,0,0,3.655l10.633,2.793-2.218,7.469H12.364A6.078,6.078,0,0,0,8.249,30.312H5.46A2.345,2.345,0,0,0,5.2,34.985a5.586,5.586,0,0,1,0,2.813,2.345,2.345,0,0,0-.016,4.657A6.068,6.068,0,0,0,9.2,53.078H53.2a2.345,2.345,0,0,0,.26-4.674ZM30.016,7.512a2.057,2.057,0,0,1-1.519,0V5.78a.76.76,0,0,1,1.519,0ZM49.468,35a1.392,1.392,0,0,1,0,2.783H16.91V35ZM15.355,44.358l-2.143,1.124V35h2.143Zm-3.7-6.574H6.8A7.149,7.149,0,0,0,6.8,35h4.857Zm.375,9.65a.778.778,0,0,0,.764.023l3.529-1.851H51.865a7.167,7.167,0,0,0,0,2.783H9.2a1.392,1.392,0,0,1,0-2.783h2.46v1.163a.778.778,0,0,0,.375.665Zm36.3-20.256H12.306a1.392,1.392,0,0,1,0-2.783H33.367c-.02.554-.017,1.366.765,1.366h4.475c.784,0,.784-.812.765-1.366h8.962a7.167,7.167,0,0,0,0,2.783ZM36.37,19.008c.685,0,1.337,2.431,1.445,5.2H34.925c.107-2.766.759-5.2,1.445-5.2Zm14.513,3.043a.79.79,0,0,1-.789.789H39.27c-.051-.529-.119-1.056-.213-1.579H50.094a.79.79,0,0,1,.789.789ZM42.8,19.706H38.668a3.308,3.308,0,0,0-1.521-2.084V13.567l3.556-.934ZM17.961,12.633l8.493,2.231a11.394,11.394,0,0,0,5.756,0l3.382-.888v3.647a3.307,3.307,0,0,0-1.521,2.084H15.86ZM9.092,28.969a4.494,4.494,0,0,1-1.311-3.227,4.569,4.569,0,0,1,4.583-4.481H33.683c-.094.523-.162,1.05-.213,1.579H12.306a2.947,2.947,0,0,0,0,5.893H50.094a.79.79,0,0,1,0,1.579H12.306A4.493,4.493,0,0,1,9.092,28.969ZM4.671,32.656a.79.79,0,0,1,.789-.789H49.468a4.525,4.525,0,1,1-.059,9.05H45.332a.778.778,0,0,0,0,1.555H53.2a.789.789,0,0,1,0,1.578H16.91V42.472H41.234a.778.778,0,0,0,0-1.555H16.91V39.338H49.468a2.947,2.947,0,0,0,0-5.893H5.46a.79.79,0,0,1-.789-.789Zm.789,8.261a.789.789,0,0,1,0-1.579h6.2v1.579ZM53.2,51.523H9.2a4.53,4.53,0,0,1-4.525-4.57,4.569,4.569,0,0,1,4.583-4.481h2.4v1.579H9.2a2.947,2.947,0,0,0,0,5.893H53.2a.789.789,0,0,1,0,1.578Z" transform="translate(0)"/>
    </g>
  </g>
</svg>
