<svg xmlns="http://www.w3.org/2000/svg" xmlns:xlink="http://www.w3.org/1999/xlink" width="108" height="108" viewBox="0 0 108 108">
  <defs>
    <filter id="Trazado_982419" x="0" y="0" width="108" height="108" filterUnits="userSpaceOnUse">
      <feOffset dy="3" input="SourceAlpha"/>
      <feGaussianBlur stdDeviation="3" result="blur"/>
      <feFlood flood-opacity="0.161"/>
      <feComposite operator="in" in2="blur"/>
      <feComposite in="SourceGraphic"/>
    </filter>
  </defs>
  <g id="Grupo_1151242" data-name="Grupo 1151242" transform="translate(-201 -713)">
    <g id="Grupo_1150811" data-name="Grupo 1150811" transform="translate(0 -111)">
      <g id="Grupo_1148991" data-name="Grupo 1148991" transform="translate(0 -2880)">
        <g id="Grupo_1148559" data-name="Grupo 1148559" transform="translate(0 3382)">
          <g transform="matrix(1, 0, 0, 1, 201, 322)" filter="url(#Trazado_982419)">
            <g id="Trazado_982419-2" data-name="Trazado 982419" transform="translate(9 6)" fill="#fbecfa">
              <path d="M 45 88.5 C 39.12687683105469 88.5 33.43022537231445 87.35007476806641 28.06830024719238 85.08217620849609 C 22.88852500915527 82.89131164550781 18.23629951477051 79.75458526611328 14.2408504486084 75.75914764404297 C 10.24541282653809 71.76370239257812 7.108687400817871 67.11147308349609 4.917825222015381 61.93170166015625 C 2.649924993515015 56.56977462768555 1.5 50.87312316894531 1.5 45 C 1.5 39.12687683105469 2.649924993515015 33.43022537231445 4.917825222015381 28.06830024719238 C 7.108687400817871 22.88852500915527 10.24541282653809 18.23629951477051 14.2408504486084 14.2408504486084 C 18.23629951477051 10.24541282653809 22.88852500915527 7.108687400817871 28.06830024719238 4.917825222015381 C 33.43022537231445 2.649924993515015 39.12687683105469 1.5 45 1.5 C 50.87312316894531 1.5 56.56977462768555 2.649924993515015 61.93170166015625 4.917825222015381 C 67.11147308349609 7.108687400817871 71.76370239257812 10.24541282653809 75.75914764404297 14.2408504486084 C 79.75458526611328 18.23629951477051 82.89131164550781 22.88852500915527 85.08217620849609 28.06830024719238 C 87.35007476806641 33.43022537231445 88.5 39.12687683105469 88.5 45 C 88.5 50.87312316894531 87.35007476806641 56.56977462768555 85.08217620849609 61.93170166015625 C 82.89131164550781 67.11147308349609 79.75458526611328 71.76370239257812 75.75914764404297 75.75914764404297 C 71.76370239257812 79.75458526611328 67.11147308349609 82.89131164550781 61.93170166015625 85.08217620849609 C 56.56977462768555 87.35007476806641 50.87312316894531 88.5 45 88.5 Z" stroke="none"/>
              <path d="M 45 3 C 39.32871246337891 3 33.82865524291992 4.110054016113281 28.65262985229492 6.299339294433594 C 23.65165710449219 8.414573669433594 19.15968322753906 11.44334411621094 15.301513671875 15.301513671875 C 11.44334411621094 19.15968322753906 8.414573669433594 23.65165710449219 6.299339294433594 28.65262985229492 C 4.110054016113281 33.82865524291992 3 39.32871246337891 3 45 C 3 50.67128753662109 4.110054016113281 56.17134475708008 6.299339294433594 61.34737396240234 C 8.414573669433594 66.34834289550781 11.44334411621094 70.84031677246094 15.301513671875 74.698486328125 C 19.15968322753906 78.55665588378906 23.65165710449219 81.58542633056641 28.65262985229492 83.70066070556641 C 33.82865524291992 85.88994598388672 39.32871246337891 87 45 87 C 50.67128753662109 87 56.17134475708008 85.88994598388672 61.34737396240234 83.70066070556641 C 66.34834289550781 81.58542633056641 70.84031677246094 78.55665588378906 74.698486328125 74.698486328125 C 78.55665588378906 70.84031677246094 81.58542633056641 66.34834289550781 83.70066070556641 61.34737396240234 C 85.88994598388672 56.17134475708008 87 50.67128753662109 87 45 C 87 39.32871246337891 85.88994598388672 33.82865524291992 83.70066070556641 28.65262985229492 C 81.58542633056641 23.65165710449219 78.55665588378906 19.15968322753906 74.698486328125 15.301513671875 C 70.84031677246094 11.44334411621094 66.34834289550781 8.414573669433594 61.34737396240234 6.299339294433594 C 56.17134475708008 4.110054016113281 50.67128753662109 3 45 3 M 45 0 C 69.85281372070312 0 90 20.14718627929688 90 45 C 90 69.85281372070312 69.85281372070312 90 45 90 C 20.14718627929688 90 0 69.85281372070312 0 45 C 0 20.14718627929688 20.14718627929688 0 45 0 Z" stroke="none" fill="#de53d4"/>
            </g>
          </g>
        </g>
      </g>
    </g>
    <g id="ambientalismo_1_" data-name="ambientalismo (1)" transform="translate(194.592 731.003)">
      <g id="Grupo_1151241" data-name="Grupo 1151241" transform="translate(34.296 3.285)">
        <g id="Grupo_1151234" data-name="Grupo 1151234" transform="translate(1.012 1.735)">
          <g id="Grupo_1151233" data-name="Grupo 1151233">
            <g id="Grupo_1151232" data-name="Grupo 1151232">
              <g id="Grupo_1151231" data-name="Grupo 1151231">
                <g id="Grupo_1151230" data-name="Grupo 1151230">
                  <g id="Grupo_1151229" data-name="Grupo 1151229">
                    <g id="Grupo_1151228" data-name="Grupo 1151228">
                      <g id="Grupo_1151225" data-name="Grupo 1151225" transform="translate(29.88 35.723)">
                        <path id="Trazado_990422" data-name="Trazado 990422" d="M291.653,322.837q2.793,1.342,5.588,2.68l6.685-7.47a2.48,2.48,0,0,0-3.552-3.456Z" transform="translate(-291.653 -313.913)" fill="#f89f8e"/>
                      </g>
                      <g id="Grupo_1151226" data-name="Grupo 1151226" transform="translate(33.943 38.173)">
                        <path id="Trazado_990423" data-name="Trazado 990423" d="M322.951,341.22q2.727,1.471,5.456,2.939l7.027-7.15a2.48,2.48,0,0,0-3.387-3.618Z" transform="translate(-322.951 -332.79)" fill="#fdb0a0"/>
                      </g>
                      <g id="Grupo_1151227" data-name="Grupo 1151227">
                        <circle id="Elipse_11551" data-name="Elipse 11551" cx="21.902" cy="21.902" r="21.902" transform="translate(1.385 0.001)" fill="#64b9fc"/>
                        <path id="Trazado_990424" data-name="Trazado 990424" d="M248.151,60.6a21.9,21.9,0,0,1-21.9,21.9c-.735,0-1.463-.036-2.179-.107a21.9,21.9,0,0,0,0-43.591c.716-.071,1.444-.107,2.179-.107A21.9,21.9,0,0,1,248.151,60.6Z" transform="translate(-202.963 -38.694)" fill="#31a7fb"/>
                        <path id="Trazado_990425" data-name="Trazado 990425" d="M175.373,61.485a21.8,21.8,0,0,1-3.915,12.5l-6.406-2.133a1.3,1.3,0,0,0-1.5.529l-1.376,2.139a1.3,1.3,0,0,1-.543.474l-3.722,1.736a1.3,1.3,0,0,1-1.295-.114l-4.587-3.225a1.3,1.3,0,0,1-.443-1.582l.684-1.565a1.3,1.3,0,0,1,.873-.739l4.991-1.253a1.3,1.3,0,0,0,.839-.667l1.688-3.295a1.3,1.3,0,0,0-.048-1.269l-1.816-2.97a1.3,1.3,0,0,0-1.107-.621h-1.441a1.3,1.3,0,0,0-1.092.6l-2.516,3.919a1.3,1.3,0,0,1-1.469.541l-2.034-.617a1.3,1.3,0,0,0-1.3.333l-1.145,1.166a1.3,1.3,0,0,1-1.642.173l-2.538-1.679a1.3,1.3,0,0,1-.485-.592l-1.488-3.644a1.3,1.3,0,0,1,.087-1.156l2.282-3.825a1.3,1.3,0,0,1,1.521-.568l3.858,1.272a1.3,1.3,0,0,0,1-.079l6.065-3.124a1.3,1.3,0,0,0,.7-1.242l-.184-2.7a1.3,1.3,0,0,0-.61-1.014l-1.319-.82a1.3,1.3,0,0,1-.482-1.671l2.428-4.987A21.9,21.9,0,0,1,175.373,61.485Z" transform="translate(-130.185 -39.582)" fill="#99d53b"/>
                        <path id="Trazado_990426" data-name="Trazado 990426" d="M276.27,61.483a21.8,21.8,0,0,1-3.915,12.5l-3.584-1.194a21.913,21.913,0,0,0-12.387-32.264l.395-.811a21.9,21.9,0,0,1,19.491,21.77Z" transform="translate(-231.082 -39.581)" fill="#8dc637"/>
                        <path id="Trazado_990427" data-name="Trazado 990427" d="M361.981,154.066a21.874,21.874,0,0,1-1.263,7.346c-2.257-.59-6.516-2.859-5.747-8.173a8.56,8.56,0,0,1,5.3-7.087.651.651,0,0,1,.22-.048A21.83,21.83,0,0,1,361.981,154.066Z" transform="translate(-316.792 -132.163)" fill="#8dc637"/>
                        <path id="Trazado_990428" data-name="Trazado 990428" d="M98.382,274.924a2.813,2.813,0,0,0-2.829.712c-.656.618-1.308,1.482-2.167,2.176a21.958,21.958,0,0,1-6.263-8.054,6.821,6.821,0,0,1,4.944-1,8.554,8.554,0,0,1,7.087,5.3A.648.648,0,0,1,98.382,274.924Z" transform="translate(-83.79 -238.814)" fill="#31a7fb"/>
                        <path id="Trazado_990429" data-name="Trazado 990429" d="M106.539,60.52a8.568,8.568,0,0,1-8.257-1.9,21.974,21.974,0,0,1,10.648-8.73q.5.06,1.022.136a2.312,2.312,0,0,1,.527.14,2.264,2.264,0,0,1,1.4,1.733C112.246,54.125,111.894,59.171,106.539,60.52Z" transform="translate(-93.501 -48.438)" fill="#31a7fb"/>
                        <path id="Trazado_990430" data-name="Trazado 990430" d="M114.451,345.535a2.48,2.48,0,0,0-3.057-.874L102.97,348.4a3.305,3.305,0,0,0-3.267-2.808H92.575a13,13,0,0,1-4.128-.673L82.432,342.9a5.387,5.387,0,0,0-3.215-.064l-3.906,1.137a5.385,5.385,0,0,0-3.273,2.687,11,11,0,0,1-3.781,4.16l-6.809,4.409,8.4,8.4,8.771-6.705,16.917,1.137a5.112,5.112,0,0,0,2.8-.616l15.252-8.348A2.48,2.48,0,0,0,114.451,345.535Z" transform="translate(-61.448 -303.174)" fill="#ffcec0"/>
                        <path id="Trazado_990431" data-name="Trazado 990431" d="M152.171,361.54l-15.252,8.348a5.115,5.115,0,0,1-2.8.617L117.2,369.367l-8.771,6.706-2.65-2.65,9.158-7a.913.913,0,0,1,.615-.185l16.575,1.114a5.119,5.119,0,0,0,2.8-.616l15.252-8.347a2.468,2.468,0,0,0,1.188-1.472,2.48,2.48,0,0,1,.8,4.624Z" transform="translate(-100.028 -315.611)" fill="#fdb0a0"/>
                      </g>
                    </g>
                  </g>
                </g>
              </g>
            </g>
          </g>
        </g>
        <g id="Grupo_1151236" data-name="Grupo 1151236" transform="translate(0 28.948)">
          <g id="Grupo_1151235" data-name="Grupo 1151235">
            <path id="Trazado_990432" data-name="Trazado 990432" d="M54.346,256.517a2.267,2.267,0,0,1-.634-2.135c.508-2.2,2.754-6.728,8.219-5.937a8.556,8.556,0,0,1,7.087,5.3.648.648,0,0,1-.772.869,2.814,2.814,0,0,0-2.83.712c-1.891,1.782-3.744,5.606-10.637,1.523A2.326,2.326,0,0,1,54.346,256.517Z" transform="translate(-53.654 -248.353)" fill="#99d53b"/>
            <path id="Trazado_990433" data-name="Trazado 990433" d="M68.25,274.067a2.816,2.816,0,0,0-2.83.711c-1.891,1.783-3.743,5.607-10.636,1.523a2.278,2.278,0,0,1-1.11-2.22c6.54,3.672,8.353-.028,10.205-1.773a2.812,2.812,0,0,1,2.83-.711.648.648,0,0,0,.771-.87l-.008-.019a8.626,8.626,0,0,1,1.549,2.488A.648.648,0,0,1,68.25,274.067Z" transform="translate(-53.658 -267.807)" fill="#8dc637"/>
          </g>
        </g>
        <g id="Grupo_1151238" data-name="Grupo 1151238" transform="translate(4.607)">
          <g id="Grupo_1151237" data-name="Grupo 1151237">
            <path id="Trazado_990434" data-name="Trazado 990434" d="M101.846,25.665a2.267,2.267,0,0,1,1.4,1.733c.367,2.224.016,7.27-5.34,8.619a8.555,8.555,0,0,1-8.57-2.2.648.648,0,0,1,.383-1.1,2.814,2.814,0,0,0,2.346-1.736c1.07-2.368,1.327-6.61,9.255-5.459A2.31,2.31,0,0,1,101.846,25.665Z" transform="translate(-89.148 -25.33)" fill="#a3e440"/>
            <path id="Trazado_990435" data-name="Trazado 990435" d="M107.1,36.347a8.636,8.636,0,0,1-7.385-1.2,9.443,9.443,0,0,0,4.435-.122c5.355-1.35,5.707-6.4,5.339-8.62a2.279,2.279,0,0,0-.239-.7c.4.032.818.079,1.264.144a2.4,2.4,0,0,1,.527.14,2.267,2.267,0,0,1,1.4,1.734C112.806,29.953,112.456,35,107.1,36.347Z" transform="translate(-98.343 -25.661)" fill="#8dc637"/>
          </g>
        </g>
        <g id="Grupo_1151240" data-name="Grupo 1151240" transform="translate(41.044 13.165)">
          <g id="Grupo_1151239" data-name="Grupo 1151239">
            <path id="Trazado_990436" data-name="Trazado 990436" d="M378.034,141.475a2.267,2.267,0,0,1-2.135.634c-2.2-.508-6.728-2.754-5.937-8.219a8.556,8.556,0,0,1,5.3-7.087.648.648,0,0,1,.869.772,2.814,2.814,0,0,0,.712,2.83c1.782,1.891,5.606,3.744,1.523,10.637A2.321,2.321,0,0,1,378.034,141.475Z" transform="translate(-369.87 -126.754)" fill="#a3e440"/>
            <path id="Trazado_990437" data-name="Trazado 990437" d="M395.585,127.575a2.816,2.816,0,0,0,.711,2.83c1.783,1.891,5.607,3.743,1.523,10.636a2.278,2.278,0,0,1-2.22,1.11c3.672-6.54-.028-8.353-1.773-10.205a2.812,2.812,0,0,1-.711-2.83.648.648,0,0,0-.87-.771l-.019.008a8.626,8.626,0,0,1,2.488-1.549A.648.648,0,0,1,395.585,127.575Z" transform="translate(-389.325 -126.754)" fill="#99d53b"/>
          </g>
        </g>
      </g>
      <path id="Trazado_990438" data-name="Trazado 990438" d="M89.116,46.833a3.452,3.452,0,0,0-4.257-1.216l-1.5.664a3.45,3.45,0,0,0-4.4-3.91,3.444,3.444,0,0,0-1.3-1.93,3.5,3.5,0,0,0-.421-.264,22.89,22.89,0,0,0,3.508-7.53c.138.039.274.076.4.106a3.186,3.186,0,0,0,.717.082,3.247,3.247,0,0,0,.658-.068,15.777,15.777,0,0,0,2.225,1.816.973.973,0,0,0,1.092-1.612,13.908,13.908,0,0,1-1.551-1.218,3.319,3.319,0,0,0,.382-.52c3.936-6.645,1.028-9.312-.9-11.076-.278-.255-.54-.5-.756-.724a1.852,1.852,0,0,1-.483-1.9A1.621,1.621,0,0,0,80.362,15.6a9.783,9.783,0,0,0-1.478.758,22.925,22.925,0,0,0-2.919-4.317.973.973,0,1,0-1.478,1.267,20.964,20.964,0,0,1,2.835,4.271,9.886,9.886,0,0,0-2.854,5.869,9.632,9.632,0,0,0-.1,1.267.973.973,0,0,0,.962.985h.012a.973.973,0,0,0,.973-.962,7.7,7.7,0,0,1,.08-1.011,7.574,7.574,0,0,1,4.137-6.068,3.8,3.8,0,0,0,1.07,3.111c.264.28.552.545.857.824,1.8,1.654,3.668,3.363.538,8.649-.018.03-.038.057-.057.085a12.55,12.55,0,0,1-2.719-7.619.973.973,0,1,0-1.946.04,14.615,14.615,0,0,0,2.437,7.844,7.394,7.394,0,0,1-3.277-2.334.973.973,0,1,0-1.549,1.179,9.007,9.007,0,0,0,3.035,2.481,20.908,20.908,0,0,1-2.739,6.346l-5.7-1.9a2.269,2.269,0,0,0-2.628.926l-1.377,2.139a.325.325,0,0,1-.136.119L62.62,41.284a.324.324,0,0,1-.324-.029L57.709,38.03a.326.326,0,0,1-.111-.4l.684-1.565a.327.327,0,0,1,.218-.185l4.991-1.253a2.271,2.271,0,0,0,1.469-1.167l1.688-3.295a2.284,2.284,0,0,0-.084-2.221l-1.816-2.97a2.285,2.285,0,0,0-1.938-1.087H61.37a2.263,2.263,0,0,0-1.912,1.044l-2.516,3.919a.325.325,0,0,1-.367.135l-2.034-.617a2.264,2.264,0,0,0-2.28.582l-1.145,1.166a.325.325,0,0,1-.411.043l-2.537-1.679a.324.324,0,0,1-.121-.148L46.558,24.7a.326.326,0,0,1,.022-.289l2.282-3.825a.322.322,0,0,1,.38-.142L53.1,21.711a2.285,2.285,0,0,0,1.751-.138l6.065-3.124a2.269,2.269,0,0,0,1.226-2.174l-.184-2.7A2.277,2.277,0,0,0,60.892,11.8l-1.319-.82a.324.324,0,0,1-.12-.418L61.576,6.2A20.678,20.678,0,0,1,71.5,10.445a.973.973,0,0,0,1.2-1.532A22.646,22.646,0,0,0,58.594,4.047a23.021,23.021,0,0,0-4.811.507,3.243,3.243,0,0,0-.334-.635,15.757,15.757,0,0,0,.832-2.75.973.973,0,0,0-1.906-.4,13.9,13.9,0,0,1-.535,1.9,3.3,3.3,0,0,0-.627-.155c-7.643-1.11-9,2.6-9.9,5.046-.13.354-.252.688-.382.975a1.852,1.852,0,0,1-1.571,1.17,1.621,1.621,0,0,0-.964,2.748,9.766,9.766,0,0,0,1.521,1.256,22.647,22.647,0,0,0-4.2,13.211,22.918,22.918,0,0,0,.8,6.023,9.658,9.658,0,0,0-3.116,5.1,3.215,3.215,0,0,0-.013,1.374,15.768,15.768,0,0,0-1.817,2.226.973.973,0,1,0,1.612,1.092,13.921,13.921,0,0,1,1.218-1.551,3.3,3.3,0,0,0,.52.382,11.65,11.65,0,0,0,5.809,1.955,5.733,5.733,0,0,0,1.826-.288,22.948,22.948,0,0,0,3.849,3.049,6.35,6.35,0,0,0-1.374,1.778,10.046,10.046,0,0,1-3.447,3.792l-6.809,4.409a.973.973,0,1,0,1.058,1.634l6.809-4.409a11.993,11.993,0,0,0,4.116-4.528,4.432,4.432,0,0,1,2.682-2.2l3.906-1.137a4.39,4.39,0,0,1,2.634.052L62,47.684a13.953,13.953,0,0,0,4.437.723h7.128a2.331,2.331,0,0,1,0,4.662H64.975a19.6,19.6,0,0,0-4.576.542.973.973,0,1,0,.455,1.893,17.662,17.662,0,0,1,4.121-.488h8.588a4.282,4.282,0,0,0,4.275-4.156L85.649,47.4a1.506,1.506,0,0,1,1.857.531,1.506,1.506,0,0,1-.523,2.168L71.731,58.443a4.122,4.122,0,0,1-2.264.5L52.549,57.8a.974.974,0,0,0-.657.2l-8.771,6.705A.973.973,0,1,0,44.3,66.254l8.48-6.483,16.552,1.113a6.085,6.085,0,0,0,3.329-.733L87.918,51.8a3.453,3.453,0,0,0,1.2-4.97Zm-8.2-2.331a1.506,1.506,0,0,1,.126,2.227l-1,1.013-.015.016-2.6,1.153a4.307,4.307,0,0,0-1.513-1.742l3.065-2.638a1.506,1.506,0,0,1,1.931-.029Zm-4.408-2.493a1.5,1.5,0,0,1,.564,1.6L73.75,46.465c-.062,0-.125,0-.188,0h-3.07a23.027,23.027,0,0,0,5.387-4.555c.04-.046.078-.093.117-.14a1.5,1.5,0,0,1,.508.243ZM42.7,9.339c.159-.351.293-.718.436-1.106.842-2.3,1.714-4.673,7.793-3.79.034,0,.067.013.1.02a12.552,12.552,0,0,1-6.01,5.415.973.973,0,1,0,.778,1.785,14.615,14.615,0,0,0,6.324-5.238,7.84,7.84,0,0,1-.548,3.191,5.733,5.733,0,0,1-4.155,3.412,7.574,7.574,0,0,1-7.186-1.515A3.8,3.8,0,0,0,42.7,9.339ZM56.6,43.825a6.331,6.331,0,0,0-3.8-.076L48.9,44.886a6.312,6.312,0,0,0-.65.23,20.979,20.979,0,0,1-3.894-2.859A13.191,13.191,0,0,0,46,40.669c.255-.278.5-.54.724-.756a1.853,1.853,0,0,1,1.9-.484,1.621,1.621,0,0,0,1.938-2.174,9.28,9.28,0,0,0-4.728-4.986.973.973,0,0,0-.822,1.765,7.307,7.307,0,0,1,3.49,3.391,3.794,3.794,0,0,0-3.11,1.07c-.281.264-.545.552-.824.857-1.654,1.8-3.363,3.668-8.65.537-.029-.017-.056-.037-.084-.056a12.552,12.552,0,0,1,7.619-2.719.973.973,0,0,0-.019-1.947h-.02a14.616,14.616,0,0,0-7.845,2.437,6.238,6.238,0,0,1,5.646-4.4.974.974,0,0,0-.018-1.947h-.019a7.608,7.608,0,0,0-2.919.617,21,21,0,0,1-.594-4.957,20.72,20.72,0,0,1,3.992-12.3,9.3,9.3,0,0,0,3.457.65,11.365,11.365,0,0,0,2.783-.36,7.684,7.684,0,0,0,5.476-4.551,9.658,9.658,0,0,0,.7-3.88,21.061,21.061,0,0,1,4.522-.491q.456,0,.909.019l-1.8,3.7a2.266,2.266,0,0,0,.843,2.923l1.319.82a.326.326,0,0,1,.152.253l.184,2.7a.325.325,0,0,1-.175.311l-6.065,3.124a.326.326,0,0,1-.25.02l-3.858-1.272a2.258,2.258,0,0,0-2.662.994L44.908,23.41a2.283,2.283,0,0,0-.152,2.023l1.488,3.644a2.265,2.265,0,0,0,.849,1.036l2.538,1.679a2.275,2.275,0,0,0,2.874-.3l1.145-1.166a.323.323,0,0,1,.326-.083l2.034.617a2.282,2.282,0,0,0,2.57-.947L61.1,25.99a.323.323,0,0,1,.273-.149h1.441a.327.327,0,0,1,.277.155l1.816,2.97a.326.326,0,0,1,.012.317l-1.688,3.295a.325.325,0,0,1-.21.167L58.027,34A2.287,2.287,0,0,0,56.5,35.29l-.684,1.565a2.278,2.278,0,0,0,.775,2.768l4.587,3.224a2.276,2.276,0,0,0,2.266.2l3.723-1.736a2.268,2.268,0,0,0,.95-.829l1.376-2.139a.325.325,0,0,1,.376-.132L75,39.92c-.191.241-.385.478-.586.711a21.032,21.032,0,0,1-8.285,5.824,12,12,0,0,1-3.509-.616Z" transform="translate(0 0)"/>
    </g>
  </g>
</svg>
