<svg xmlns="http://www.w3.org/2000/svg" xmlns:xlink="http://www.w3.org/1999/xlink" width="108" height="108" viewBox="0 0 108 108">
  <defs>
    <filter id="Trazado_982419" x="0" y="0" width="108" height="108" filterUnits="userSpaceOnUse">
      <feOffset dy="3" input="SourceAlpha"/>
      <feGaussianBlur stdDeviation="3" result="blur"/>
      <feFlood flood-opacity="0.161"/>
      <feComposite operator="in" in2="blur"/>
      <feComposite in="SourceGraphic"/>
    </filter>
  </defs>
  <g id="Grupo_1151275" data-name="Grupo 1151275" transform="translate(-185.642 -423)">
    <g id="Grupo_1151223" data-name="Grupo 1151223" transform="translate(-15.358 -401)">
      <g id="Grupo_1148991" data-name="Grupo 1148991" transform="translate(0 -2880)">
        <g id="Grupo_1148559" data-name="Grupo 1148559" transform="translate(0 3382)">
          <g transform="matrix(1, 0, 0, 1, 201, 322)" filter="url(#Trazado_982419)">
            <g id="Trazado_982419-2" data-name="Trazado 982419" transform="translate(9 6)" fill="#f9f9f9">
              <path d="M 45 88.5 C 39.12687683105469 88.5 33.43022537231445 87.35007476806641 28.06830024719238 85.08217620849609 C 22.88852500915527 82.89131164550781 18.23629951477051 79.75458526611328 14.2408504486084 75.75914764404297 C 10.24541282653809 71.76370239257812 7.108687400817871 67.11147308349609 4.917825222015381 61.93170166015625 C 2.649924993515015 56.56977462768555 1.5 50.87312316894531 1.5 45 C 1.5 39.12687683105469 2.649924993515015 33.43022537231445 4.917825222015381 28.06830024719238 C 7.108687400817871 22.88852500915527 10.24541282653809 18.23629951477051 14.2408504486084 14.2408504486084 C 18.23629951477051 10.24541282653809 22.88852500915527 7.108687400817871 28.06830024719238 4.917825222015381 C 33.43022537231445 2.649924993515015 39.12687683105469 1.5 45 1.5 C 50.87312316894531 1.5 56.56977462768555 2.649924993515015 61.93170166015625 4.917825222015381 C 67.11147308349609 7.108687400817871 71.76370239257812 10.24541282653809 75.75914764404297 14.2408504486084 C 79.75458526611328 18.23629951477051 82.89131164550781 22.88852500915527 85.08217620849609 28.06830024719238 C 87.35007476806641 33.43022537231445 88.5 39.12687683105469 88.5 45 C 88.5 50.87312316894531 87.35007476806641 56.56977462768555 85.08217620849609 61.93170166015625 C 82.89131164550781 67.11147308349609 79.75458526611328 71.76370239257812 75.75914764404297 75.75914764404297 C 71.76370239257812 79.75458526611328 67.11147308349609 82.89131164550781 61.93170166015625 85.08217620849609 C 56.56977462768555 87.35007476806641 50.87312316894531 88.5 45 88.5 Z" stroke="none"/>
              <path d="M 45 3 C 39.32871246337891 3 33.82865524291992 4.110054016113281 28.65262985229492 6.299339294433594 C 23.65165710449219 8.414573669433594 19.15968322753906 11.44334411621094 15.301513671875 15.301513671875 C 11.44334411621094 19.15968322753906 8.414573669433594 23.65165710449219 6.299339294433594 28.65262985229492 C 4.110054016113281 33.82865524291992 3 39.32871246337891 3 45 C 3 50.67128753662109 4.110054016113281 56.17134475708008 6.299339294433594 61.34737396240234 C 8.414573669433594 66.34834289550781 11.44334411621094 70.84031677246094 15.301513671875 74.698486328125 C 19.15968322753906 78.55665588378906 23.65165710449219 81.58542633056641 28.65262985229492 83.70066070556641 C 33.82865524291992 85.88994598388672 39.32871246337891 87 45 87 C 50.67128753662109 87 56.17134475708008 85.88994598388672 61.34737396240234 83.70066070556641 C 66.34834289550781 81.58542633056641 70.84031677246094 78.55665588378906 74.698486328125 74.698486328125 C 78.55665588378906 70.84031677246094 81.58542633056641 66.34834289550781 83.70066070556641 61.34737396240234 C 85.88994598388672 56.17134475708008 87 50.67128753662109 87 45 C 87 39.32871246337891 85.88994598388672 33.82865524291992 83.70066070556641 28.65262985229492 C 81.58542633056641 23.65165710449219 78.55665588378906 19.15968322753906 74.698486328125 15.301513671875 C 70.84031677246094 11.44334411621094 66.34834289550781 8.414573669433594 61.34737396240234 6.299339294433594 C 56.17134475708008 4.110054016113281 50.67128753662109 3 45 3 M 45 0 C 69.85281372070312 0 90 20.14718627929688 90 45 C 90 69.85281372070312 69.85281372070312 90 45 90 C 20.14718627929688 90 0 69.85281372070312 0 45 C 0 20.14718627929688 20.14718627929688 0 45 0 Z" stroke="none" fill="#cfcece"/>
            </g>
          </g>
        </g>
      </g>
    </g>
    <g id="tecnologia_2_" data-name="tecnologia (2)" transform="translate(213.642 447)">
      <g id="Grupo_1151273" data-name="Grupo 1151273" transform="translate(0.853 0.853)">
        <g id="Grupo_1151262" data-name="Grupo 1151262" transform="translate(34.987)">
          <path id="Trazado_991311" data-name="Trazado 991311" d="M50.533,1V7.827H42V1Z" transform="translate(-42 -1)" fill="#f0d0b4"/>
        </g>
        <g id="Grupo_1151263" data-name="Grupo 1151263" transform="translate(7.68)">
          <path id="Trazado_991312" data-name="Trazado 991312" d="M18.533,1V7.827H10V1Z" transform="translate(-10 -1)" fill="#f0d0b4"/>
        </g>
        <g id="Grupo_1151264" data-name="Grupo 1151264" transform="translate(21.333)">
          <path id="Trazado_991313" data-name="Trazado 991313" d="M34.533,1V7.827H26V1Z" transform="translate(-26 -1)" fill="#f0d0b4"/>
        </g>
        <g id="Grupo_1151265" data-name="Grupo 1151265" transform="translate(3.413 11.947)">
          <path id="Trazado_991314" data-name="Trazado 991314" d="M49.373,47.427H5V18.413A3.413,3.413,0,0,1,8.413,15H45.96a3.413,3.413,0,0,1,3.413,3.413Z" transform="translate(-5 -15)" fill="#ccd1d9"/>
        </g>
        <g id="Grupo_1151266" data-name="Grupo 1151266" transform="translate(6.827 15.36)">
          <path id="Trazado_991315" data-name="Trazado 991315" d="M45.693,44.6H9.853A.854.854,0,0,1,9,43.747V19.853A.854.854,0,0,1,9.853,19h35.84a.854.854,0,0,1,.853.853V43.747A.854.854,0,0,1,45.693,44.6Z" transform="translate(-9 -19)" fill="#69d6f4"/>
        </g>
        <g id="Grupo_1151267" data-name="Grupo 1151267" transform="translate(0 44.373)">
          <path id="Trazado_991316" data-name="Trazado 991316" d="M50.494,53H2.707a1.669,1.669,0,0,0-1.2.5,1.669,1.669,0,0,0-.5,1.2,5.124,5.124,0,0,0,5.12,5.12H47.08a5.128,5.128,0,0,0,5.12-5.12A1.712,1.712,0,0,0,50.494,53Z" transform="translate(-1 -53)" fill="#969faa"/>
        </g>
        <g id="Grupo_1151268" data-name="Grupo 1151268" transform="translate(42.667 47.787)">
          <path id="Trazado_991317" data-name="Trazado 991317" d="M51,57h3.413v3.413H51Z" transform="translate(-51 -57)" fill="#ff826e"/>
        </g>
        <g id="Grupo_1151269" data-name="Grupo 1151269" transform="translate(35.84 47.787)">
          <path id="Trazado_991318" data-name="Trazado 991318" d="M43,57h3.413v3.413H43Z" transform="translate(-43 -57)" fill="#ff826e"/>
        </g>
        <g id="Grupo_1151270" data-name="Grupo 1151270" transform="translate(19.627 44.373)">
          <path id="Trazado_991319" data-name="Trazado 991319" d="M35.947,53v1.707a1.712,1.712,0,0,1-1.707,1.707H25.707A1.712,1.712,0,0,1,24,54.707V53Z" transform="translate(-24 -53)" fill="#ff826e"/>
        </g>
        <g id="Grupo_1151271" data-name="Grupo 1151271" transform="translate(11.947 24.747)">
          <path id="Trazado_991320" data-name="Trazado 991320" d="M42.307,41.093v5.12H36.8v-.026A8.534,8.534,0,1,0,20.12,43.653a8.455,8.455,0,0,0,.393,2.56H15v-5.12l2.167-.691a12.4,12.4,0,0,1,1.058-2.577l-1.041-2.014,3.627-3.627,2.014,1.041A12.4,12.4,0,0,1,25.4,32.167L26.093,30h5.12l.691,2.167a12.4,12.4,0,0,1,2.577,1.058L36.5,32.185l3.627,3.627-1.041,2.014A12.4,12.4,0,0,1,40.139,40.4Z" transform="translate(-15 -30)" fill="#ffc729"/>
        </g>
        <g id="Grupo_1151272" data-name="Grupo 1151272" transform="translate(17.067 29.867)">
          <path id="Trazado_991321" data-name="Trazado 991321" d="M38.067,44.533a8.554,8.554,0,0,1-.384,2.534v.026h-5.9a3.37,3.37,0,0,0,1.161-2.56,3.413,3.413,0,1,0-6.827,0,3.37,3.37,0,0,0,1.161,2.56H21.393a8.534,8.534,0,1,1,16.674-2.56Z" transform="translate(-21 -36)" fill="#fcd770"/>
        </g>
      </g>
      <g id="Grupo_1151274" data-name="Grupo 1151274">
        <path id="Trazado_991322" data-name="Trazado 991322" d="M50.347,46.427h-.853V18.267A4.272,4.272,0,0,0,45.227,14h-2.56v1.707h2.56a2.563,2.563,0,0,1,2.56,2.56v28.16H5.12V18.267a2.563,2.563,0,0,1,2.56-2.56h2.56V14H7.68a4.272,4.272,0,0,0-4.267,4.267v28.16H2.56A2.563,2.563,0,0,0,0,48.987,5.981,5.981,0,0,0,5.973,54.96h40.96a5.981,5.981,0,0,0,5.973-5.973A2.563,2.563,0,0,0,50.347,46.427ZM21.333,48.133h10.24v.853a.854.854,0,0,1-.853.853H22.187a.854.854,0,0,1-.853-.853Zm17.92,5.12H37.547V51.547h1.707Zm6.827,0H44.373V51.547H46.08Zm1.707-.086V49.84h-5.12v3.413H40.96V49.84H35.84v3.413H5.973a4.272,4.272,0,0,1-4.267-4.267.854.854,0,0,1,.853-.853H19.627v.853a2.563,2.563,0,0,0,2.56,2.56H30.72a2.563,2.563,0,0,0,2.56-2.56v-.853H50.347a.854.854,0,0,1,.853.853,4.275,4.275,0,0,1-3.413,4.18Z" transform="translate(0 -2.053)"/>
        <path id="Trazado_991323" data-name="Trazado 991323" d="M19.947,19.707V18H9.707A1.708,1.708,0,0,0,8,19.707V43.6a1.708,1.708,0,0,0,1.707,1.707h35.84A1.708,1.708,0,0,0,47.253,43.6V19.707A1.708,1.708,0,0,0,45.547,18H35.307v1.707h10.24V43.6H42.133V38.711L39.8,37.964a12.852,12.852,0,0,0-.784-1.9l1.12-2.175-4.5-4.5-2.175,1.12a12.89,12.89,0,0,0-1.9-.784l-.749-2.335H24.444L23.7,29.72a12.851,12.851,0,0,0-1.9.784l-2.175-1.12-4.5,4.5,1.12,2.175a12.89,12.89,0,0,0-.784,1.9l-2.334.749V43.6H9.707V19.707Zm0,22.187A7.681,7.681,0,1,1,35.094,43.6h-3.56a4.267,4.267,0,1,0-7.815,0H20.16A7.686,7.686,0,0,1,19.947,41.893Zm5.12,0A2.56,2.56,0,1,1,29.514,43.6H25.738A2.552,2.552,0,0,1,25.067,41.893Zm-10.24-1.938,2.01-.643.125-.441a11,11,0,0,1,.984-2.387l.224-.4L17.2,34.212l2.741-2.741,1.872.964.4-.224a11,11,0,0,1,2.387-.984l.441-.125.643-2.01h3.875l.643,2.01.441.125a11,11,0,0,1,2.387.984l.4.224,1.872-.964,2.741,2.741-.964,1.872.224.4a11,11,0,0,1,.984,2.387l.125.441,2.01.643V43.6H36.852a9.387,9.387,0,1,0-18.451,0H14.827Z" transform="translate(-1.173 -2.64)"/>
        <path id="Trazado_991324" data-name="Trazado 991324" d="M13,4h3.413V5.707H13Z" transform="translate(-1.907 -0.587)"/>
        <path id="Trazado_991325" data-name="Trazado 991325" d="M29,4h3.413V5.707H29Z" transform="translate(-4.253 -0.587)"/>
        <path id="Trazado_991326" data-name="Trazado 991326" d="M45,4h3.413V5.707H45Z" transform="translate(-6.6 -0.587)"/>
        <path id="Trazado_991327" data-name="Trazado 991327" d="M29.267,23.04h1.707V8.533H35.24V0H25V8.533h4.267ZM26.707,1.707h6.827v5.12H26.707Z" transform="translate(-3.667)"/>
        <path id="Trazado_991328" data-name="Trazado 991328" d="M44.533,11.947H36V23.04h1.707V13.653H46.24V8.533h4.267V0H40.267V8.533h4.267Zm-2.56-10.24H48.8v5.12H41.973Z" transform="translate(-5.28)"/>
        <path id="Trazado_991329" data-name="Trazado 991329" d="M13.267,13.653H21.8V23.04h1.707V11.947H14.973V8.533H19.24V0H9V8.533h4.267ZM10.707,1.707h6.827v5.12H10.707Z" transform="translate(-1.32)"/>
      </g>
    </g>
  </g>
</svg>
