<svg xmlns="http://www.w3.org/2000/svg" xmlns:xlink="http://www.w3.org/1999/xlink" width="108" height="108" viewBox="0 0 108 108">
  <defs>
    <filter id="Trazado_982419" x="0" y="0" width="108" height="108" filterUnits="userSpaceOnUse">
      <feOffset dy="3" input="SourceAlpha"/>
      <feGaussianBlur stdDeviation="3" result="blur"/>
      <feFlood flood-opacity="0.161"/>
      <feComposite operator="in" in2="blur"/>
      <feComposite in="SourceGraphic"/>
    </filter>
  </defs>
  <g id="Grupo_1151260" data-name="Grupo 1151260" transform="translate(-606 -6148)">
    <g id="Grupo_1151100" data-name="Grupo 1151100" transform="translate(0 3037.164)">
      <g id="Grupo_1150764" data-name="Grupo 1150764" transform="translate(393 2606.836)">
        <g id="Grupo_1148745" data-name="Grupo 1148745" transform="translate(12 182)">
          <g transform="matrix(1, 0, 0, 1, 201, 322)" filter="url(#Trazado_982419)">
            <g id="Trazado_982419-2" data-name="Trazado 982419" transform="translate(9 6)" fill="#fbecfa">
              <path d="M 45 88.5 C 39.12687683105469 88.5 33.43022537231445 87.35007476806641 28.06830024719238 85.08217620849609 C 22.88852500915527 82.89131164550781 18.23629951477051 79.75458526611328 14.2408504486084 75.75914764404297 C 10.24541282653809 71.76370239257812 7.108687400817871 67.11147308349609 4.917825222015381 61.93170166015625 C 2.649924993515015 56.56977462768555 1.5 50.87312316894531 1.5 45 C 1.5 39.12687683105469 2.649924993515015 33.43022537231445 4.917825222015381 28.06830024719238 C 7.108687400817871 22.88852500915527 10.24541282653809 18.23629951477051 14.2408504486084 14.2408504486084 C 18.23629951477051 10.24541282653809 22.88852500915527 7.108687400817871 28.06830024719238 4.917825222015381 C 33.43022537231445 2.649924993515015 39.12687683105469 1.5 45 1.5 C 50.87312316894531 1.5 56.56977462768555 2.649924993515015 61.93170166015625 4.917825222015381 C 67.11147308349609 7.108687400817871 71.76370239257812 10.24541282653809 75.75914764404297 14.2408504486084 C 79.75458526611328 18.23629951477051 82.89131164550781 22.88852500915527 85.08217620849609 28.06830024719238 C 87.35007476806641 33.43022537231445 88.5 39.12687683105469 88.5 45 C 88.5 50.87312316894531 87.35007476806641 56.56977462768555 85.08217620849609 61.93170166015625 C 82.89131164550781 67.11147308349609 79.75458526611328 71.76370239257812 75.75914764404297 75.75914764404297 C 71.76370239257812 79.75458526611328 67.11147308349609 82.89131164550781 61.93170166015625 85.08217620849609 C 56.56977462768555 87.35007476806641 50.87312316894531 88.5 45 88.5 Z" stroke="none"/>
              <path d="M 45 3 C 39.32871246337891 3 33.82865524291992 4.110054016113281 28.65262985229492 6.299339294433594 C 23.65165710449219 8.414573669433594 19.15968322753906 11.44334411621094 15.301513671875 15.301513671875 C 11.44334411621094 19.15968322753906 8.414573669433594 23.65165710449219 6.299339294433594 28.65262985229492 C 4.110054016113281 33.82865524291992 3 39.32871246337891 3 45 C 3 50.67128753662109 4.110054016113281 56.17134475708008 6.299339294433594 61.34737396240234 C 8.414573669433594 66.34834289550781 11.44334411621094 70.84031677246094 15.301513671875 74.698486328125 C 19.15968322753906 78.55665588378906 23.65165710449219 81.58542633056641 28.65262985229492 83.70066070556641 C 33.82865524291992 85.88994598388672 39.32871246337891 87 45 87 C 50.67128753662109 87 56.17134475708008 85.88994598388672 61.34737396240234 83.70066070556641 C 66.34834289550781 81.58542633056641 70.84031677246094 78.55665588378906 74.698486328125 74.698486328125 C 78.55665588378906 70.84031677246094 81.58542633056641 66.34834289550781 83.70066070556641 61.34737396240234 C 85.88994598388672 56.17134475708008 87 50.67128753662109 87 45 C 87 39.32871246337891 85.88994598388672 33.82865524291992 83.70066070556641 28.65262985229492 C 81.58542633056641 23.65165710449219 78.55665588378906 19.15968322753906 74.698486328125 15.301513671875 C 70.84031677246094 11.44334411621094 66.34834289550781 8.414573669433594 61.34737396240234 6.299339294433594 C 56.17134475708008 4.110054016113281 50.67128753662109 3 45 3 M 45 0 C 69.85281372070312 0 90 20.14718627929688 90 45 C 90 69.85281372070312 69.85281372070312 90 45 90 C 20.14718627929688 90 0 69.85281372070312 0 45 C 0 20.14718627929688 20.14718627929688 0 45 0 Z" stroke="none" fill="#de53d4"/>
            </g>
          </g>
        </g>
      </g>
    </g>
    <g id="idea_2_" data-name="idea (2)" transform="translate(618.856 6166)">
      <g id="Grupo_1151258" data-name="Grupo 1151258" transform="translate(9.957 0.946)">
        <path id="Trazado_991286" data-name="Trazado 991286" d="M224.8,46.325l-3.331,2.961V91.3l3.331,2.96h7V89.929a.89.89,0,0,1,.493-.8,22.567,22.567,0,0,0,12.573-20.239C244.864,56.428,233.216,46.325,224.8,46.325Z" transform="translate(-195.225 -41.368)" fill="#ffe177"/>
        <path id="Trazado_991287" data-name="Trazado 991287" d="M245.507,46.325l-.306.272a22.572,22.572,0,0,1,19.05,22.294c0,8.875-5.123,14.641-12.573,18.327a.89.89,0,0,0-.493.8v6.244h3.823V89.929a.89.89,0,0,1,.493-.8,22.57,22.57,0,0,0-9.994-42.805Z" transform="translate(-215.936 -41.368)" fill="#f9d45d"/>
        <path id="Trazado_991288" data-name="Trazado 991288" d="M207.47,412.978a1.984,1.984,0,0,0-1.984-1.984H190.775v11.9h10.586a1.916,1.916,0,0,0,1.916-1.916V418.93h2.21a4.436,4.436,0,0,1,1.984-5.952Z" transform="translate(-168.445 -359.57)" fill="#808b95"/>
        <path id="Trazado_991289" data-name="Trazado 991289" d="M274.783,412.978a1.984,1.984,0,0,0-1.984-1.984h-3.823a4.436,4.436,0,0,0,1.984,5.952,1.984,1.984,0,0,1-1.984,1.984h-2.21v2.052a1.916,1.916,0,0,1-1.916,1.916h3.823a1.916,1.916,0,0,0,1.916-1.916V418.93h2.21a4.436,4.436,0,0,1,1.984-5.952Z" transform="translate(-233.082 -359.57)" fill="#5e6b75"/>
        <g id="Grupo_1151255" data-name="Grupo 1151255" transform="translate(26.241 13.119)">
          <path id="Trazado_991290" data-name="Trazado 991290" d="M240.2,125.887a14.028,14.028,0,0,0,0-3.347l-3.426-1.218a10.641,10.641,0,0,0-.974-2.349l1.561-3.284A13.915,13.915,0,0,0,235,113.322l-3.284,1.561a10.641,10.641,0,0,0-2.349-.974l-1.218-3.426a14.027,14.027,0,0,0-3.347,0l-3.333,2.564v22.2l3.333,2.694a14.03,14.03,0,0,0,3.347,0l1.218-3.426a10.641,10.641,0,0,0,2.349-.974L235,135.105a13.919,13.919,0,0,0,2.367-2.367l-1.561-3.284a10.635,10.635,0,0,0,.974-2.349Z" transform="translate(-221.465 -110.383)" fill="#9dcffd"/>
          <path id="Trazado_991291" data-name="Trazado 991291" d="M224.8,167.836l-3.333,6.5,3.333,6.5c.543.141,6.063-1.17,6.063-6.5C230.861,169.233,225.341,167.695,224.8,167.836Z" transform="translate(-221.465 -160.507)" fill="#f0fcff"/>
          <path id="Trazado_991292" data-name="Trazado 991292" d="M247.623,166.387v.126a6.721,6.721,0,0,1,0,12.752v.126a6.72,6.72,0,1,0,0-13Z" transform="translate(-244.29 -159.058)" fill="#d7ecfe"/>
        </g>
        <g id="Grupo_1151256" data-name="Grupo 1151256" transform="translate(0 0.219)">
          <path id="Trazado_991293" data-name="Trazado 991293" d="M35.725,72.009a7.905,7.905,0,0,1-5.456-4.9A9.367,9.367,0,0,1,20.987,52.1a5.579,5.579,0,0,1-1.9-10.716A7.891,7.891,0,0,1,20.915,27.3a11.372,11.372,0,0,1-.062-1.19A11.236,11.236,0,0,1,32.088,14.878l.2,0a8.163,8.163,0,0,1,1.967-3.658,7.436,7.436,0,0,1,3.523-2.079c.277-.078,4.933,1.109,4.933,5.383V64.815C42.712,72.535,36.346,72.166,35.725,72.009Z" transform="translate(-15.526 -9.14)" fill="#fd8087"/>
        </g>
        <g id="Grupo_1151257" data-name="Grupo 1151257" transform="translate(10.869)">
          <path id="Trazado_991294" data-name="Trazado 991294" d="M100.876,464.073l-.052.011.061.013Z" transform="translate(-100.824 -405.886)" fill="#fe646f"/>
          <path id="Trazado_991295" data-name="Trazado 991295" d="M177.243,7.454a7.417,7.417,0,0,0-1.138.19q-.135.038-.273.081a5.61,5.61,0,0,1,3.771,5.3V63.316a7.436,7.436,0,0,1-5.551,7.193,7.9,7.9,0,0,0,1.94.24,7.433,7.433,0,0,0,7.433-7.433V13.027a5.6,5.6,0,0,0-6.182-5.573Z" transform="translate(-164.721 -7.422)" fill="#fe646f"/>
        </g>
      </g>
      <g id="Grupo_1151259" data-name="Grupo 1151259" transform="translate(9.144 0)">
        <path id="Trazado_991296" data-name="Trazado 991296" d="M145.849,157.249a.956.956,0,0,0,.935-.764,3.385,3.385,0,0,1,3.992-2.632.956.956,0,0,0,.385-1.872,5.3,5.3,0,0,0-6.249,4.12A.956.956,0,0,0,145.849,157.249Z" transform="translate(-127.595 -132.521)"/>
        <path id="Trazado_991297" data-name="Trazado 991297" d="M136.861,303.416a3.387,3.387,0,0,0,1.116,3.669,6.633,6.633,0,0,0-.482,6.264.956.956,0,0,0,1.748-.774,4.728,4.728,0,0,1,2.406-6.23.956.956,0,1,0-.774-1.748,6.61,6.61,0,0,0-1.645,1.04,1.472,1.472,0,0,1-.548-1.642.956.956,0,0,0-1.822-.579Z" transform="translate(-120.448 -264.173)"/>
        <path id="Trazado_991298" data-name="Trazado 991298" d="M55.244,10.967a.956.956,0,0,0-1.278,1.422A21.616,21.616,0,0,1,49.1,47.851a1.834,1.834,0,0,0-1.025,1.655v1.907H40.486V42.664a14.976,14.976,0,0,0,2.506-.09.956.956,0,0,0,.786-.629l1.057-2.972A11.617,11.617,0,0,0,46.47,38.3l2.849,1.354a.956.956,0,0,0,1-.111,14.885,14.885,0,0,0,2.529-2.529.956.956,0,0,0,.111-1l-1.354-2.849a11.608,11.608,0,0,0,.678-1.635l2.972-1.057a.956.956,0,0,0,.629-.786,14.99,14.99,0,0,0,0-3.575.955.955,0,0,0-.629-.786l-2.972-1.057a11.618,11.618,0,0,0-.678-1.635l1.354-2.849a.956.956,0,0,0-.111-1,14.886,14.886,0,0,0-2.53-2.53.956.956,0,0,0-1-.111L46.47,17.5a11.616,11.616,0,0,0-1.635-.678l-1.057-2.972a.956.956,0,0,0-.786-.629,15.045,15.045,0,0,0-2.506-.089V6.879A21.561,21.561,0,0,1,50.671,9.948a.956.956,0,1,0,.987-1.637A23.476,23.476,0,0,0,40.289,4.959a6.577,6.577,0,0,0-1.981-3.293C34.5-1.756,27.855.3,25.992,5.958A12.206,12.206,0,0,0,14.34,18.69a8.821,8.821,0,0,0-5.026,5.783.956.956,0,0,0,1.843.5,6.912,6.912,0,0,1,3.436-4.291,12.1,12.1,0,0,0,.676,2.158.956.956,0,0,0,1.763-.738A10.31,10.31,0,0,1,26.7,7.86a14.4,14.4,0,0,1,4.154.866.957.957,0,0,0,.37-1.837A12.081,12.081,0,0,0,28,6.036a6.514,6.514,0,0,1,5.449-4.108,4.644,4.644,0,0,1,5.125,4.623c0,57.145.222,51.081-.781,53.372-2.541,4.677-9.2,4.413-11.755-.166a10.273,10.273,0,0,0,2.671-1.366A.956.956,0,0,0,27.6,56.832,8.41,8.41,0,1,1,18.03,43a.956.956,0,1,0-1.07-1.584,10.364,10.364,0,0,0-1.952,1.71,4.531,4.531,0,0,1-1.916-.741,4.626,4.626,0,0,1,2.583-8.455.956.956,0,1,0,0-1.911,6.507,6.507,0,0,0-2.018.319,6.926,6.926,0,0,1-2.5-3.7.956.956,0,1,0-1.844.5,8.827,8.827,0,0,0,2.5,4.139,6.54,6.54,0,0,0,1.98,11.531A10.338,10.338,0,0,0,24.118,60.2a8.891,8.891,0,0,0,7.869,5.025H45.549a2.875,2.875,0,0,0,2.872-2.872v-1.1h1.254a2.942,2.942,0,0,0,2.167-4.924,2.938,2.938,0,0,0-1.857-4.907V49.545a23.528,23.528,0,0,0,5.259-38.579ZM40.486,22.18a5.763,5.763,0,1,1,0,11.431Zm1.695-7.123L43.2,17.911a.955.955,0,0,0,.643.6c2.083.583,2.243,1.284,3.017.917l2.736-1.3a12.963,12.963,0,0,1,1.381,1.381l-1.3,2.736a.956.956,0,0,0,.03.879c1.055,1.874.689,2.5,1.487,2.781l2.854,1.015a13.089,13.089,0,0,1,0,1.952l-2.854,1.015c-.8.285-.429.9-1.486,2.781a.955.955,0,0,0-.03.879l1.3,2.736a12.987,12.987,0,0,1-1.381,1.381l-2.736-1.3c-.769-.366-.941.335-3.017.917a.955.955,0,0,0-.643.6l-1.015,2.854a13.15,13.15,0,0,1-1.695.016V35.534a7.675,7.675,0,1,0,0-15.277V15.041a13.151,13.151,0,0,1,1.695.016Zm4.329,47.3a.962.962,0,0,1-.96.96H37.422a8.458,8.458,0,0,0,1.8-2.057h7.286Zm4.194-8a1.03,1.03,0,0,1-1.028,1.028H47.246a.956.956,0,1,0,0,1.911h2.429a1.028,1.028,0,1,1,0,2.057H40.1a8.34,8.34,0,0,0,.371-2.057h2.608a.956.956,0,1,0,0-1.911h-2.6V53.325h9.189A1.03,1.03,0,0,1,50.7,54.353Z" transform="translate(-9.144 0)"/>
        <path id="Trazado_991299" data-name="Trazado 991299" d="M455.759,219.168h-4.814a.956.956,0,1,0,0,1.911h4.814a.956.956,0,0,0,0-1.911Z" transform="translate(-393.816 -191.241)"/>
        <path id="Trazado_991300" data-name="Trazado 991300" d="M436.049,93.447l4.965-4.955a.956.956,0,0,0-1.35-1.353L434.7,92.094a.956.956,0,0,0,1.35,1.353Z" transform="translate(-380.23 -75.792)"/>
        <path id="Trazado_991301" data-name="Trazado 991301" d="M440.83,315.708l-4.965-2.981a.956.956,0,0,0-.984,1.639l4.965,2.981a.956.956,0,1,0,.984-1.639Z" transform="translate(-380.228 -272.759)"/>
      </g>
    </g>
  </g>
</svg>
