<svg xmlns="http://www.w3.org/2000/svg" xmlns:xlink="http://www.w3.org/1999/xlink" width="108" height="108" viewBox="0 0 108 108">
  <defs>
    <filter id="Trazado_982549" x="0" y="0" width="108" height="108" filterUnits="userSpaceOnUse">
      <feOffset dy="3" input="SourceAlpha"/>
      <feGaussianBlur stdDeviation="3" result="blur"/>
      <feFlood flood-opacity="0.161"/>
      <feComposite operator="in" in2="blur"/>
      <feComposite in="SourceGraphic"/>
    </filter>
  </defs>
  <g id="Grupo_1158087" data-name="Grupo 1158087" transform="translate(-199 -5634)">
    <g id="Grupo_1157477" data-name="Grupo 1157477" transform="translate(-249 4928)">
      <g id="Grupo_1149030" data-name="Grupo 1149030" transform="translate(-173 371)">
        <g id="Grupo_1146639" data-name="Grupo 1146639" transform="translate(420 -822)">
          <g transform="matrix(1, 0, 0, 1, 201, 1157)" filter="url(#Trazado_982549)">
            <g id="Trazado_982549-2" data-name="Trazado 982549" transform="translate(9 6)" fill="#eafbf9">
              <path d="M 45 88.5 C 39.12687683105469 88.5 33.43022537231445 87.35007476806641 28.06830024719238 85.08217620849609 C 22.88852500915527 82.89131164550781 18.23629951477051 79.75458526611328 14.2408504486084 75.75914764404297 C 10.24541282653809 71.76370239257812 7.108687400817871 67.11147308349609 4.917825222015381 61.93170166015625 C 2.649924993515015 56.56977462768555 1.5 50.87312316894531 1.5 45 C 1.5 39.12687683105469 2.649924993515015 33.43022537231445 4.917825222015381 28.06830024719238 C 7.108687400817871 22.88852500915527 10.24541282653809 18.23629951477051 14.2408504486084 14.2408504486084 C 18.23629951477051 10.24541282653809 22.88852500915527 7.108687400817871 28.06830024719238 4.917825222015381 C 33.43022537231445 2.649924993515015 39.12687683105469 1.5 45 1.5 C 50.87312316894531 1.5 56.56977462768555 2.649924993515015 61.93170166015625 4.917825222015381 C 67.11147308349609 7.108687400817871 71.76370239257812 10.24541282653809 75.75914764404297 14.2408504486084 C 79.75458526611328 18.23629951477051 82.89131164550781 22.88852500915527 85.08217620849609 28.06830024719238 C 87.35007476806641 33.43022537231445 88.5 39.12687683105469 88.5 45 C 88.5 50.87312316894531 87.35007476806641 56.56977462768555 85.08217620849609 61.93170166015625 C 82.89131164550781 67.11147308349609 79.75458526611328 71.76370239257812 75.75914764404297 75.75914764404297 C 71.76370239257812 79.75458526611328 67.11147308349609 82.89131164550781 61.93170166015625 85.08217620849609 C 56.56977462768555 87.35007476806641 50.87312316894531 88.5 45 88.5 Z" stroke="none"/>
              <path d="M 45 3 C 39.32871246337891 3 33.82865524291992 4.110054016113281 28.65262985229492 6.299339294433594 C 23.65165710449219 8.414573669433594 19.15968322753906 11.44334411621094 15.301513671875 15.301513671875 C 11.44334411621094 19.15968322753906 8.414573669433594 23.65165710449219 6.299339294433594 28.65262985229492 C 4.110054016113281 33.82865524291992 3 39.32871246337891 3 45 C 3 50.67128753662109 4.110054016113281 56.17134475708008 6.299339294433594 61.34737396240234 C 8.414573669433594 66.34834289550781 11.44334411621094 70.84031677246094 15.301513671875 74.698486328125 C 19.15968322753906 78.55665588378906 23.65165710449219 81.58542633056641 28.65262985229492 83.70066070556641 C 33.82865524291992 85.88994598388672 39.32871246337891 87 45 87 C 50.67128753662109 87 56.17134475708008 85.88994598388672 61.34737396240234 83.70066070556641 C 66.34834289550781 81.58542633056641 70.84031677246094 78.55665588378906 74.698486328125 74.698486328125 C 78.55665588378906 70.84031677246094 81.58542633056641 66.34834289550781 83.70066070556641 61.34737396240234 C 85.88994598388672 56.17134475708008 87 50.67128753662109 87 45 C 87 39.32871246337891 85.88994598388672 33.82865524291992 83.70066070556641 28.65262985229492 C 81.58542633056641 23.65165710449219 78.55665588378906 19.15968322753906 74.698486328125 15.301513671875 C 70.84031677246094 11.44334411621094 66.34834289550781 8.414573669433594 61.34737396240234 6.299339294433594 C 56.17134475708008 4.110054016113281 50.67128753662109 3 45 3 M 45 0 C 69.85281372070312 0 90 20.14718627929688 90 45 C 90 69.85281372070312 69.85281372070312 90 45 90 C 20.14718627929688 90 0 69.85281372070312 0 45 C 0 20.14718627929688 20.14718627929688 0 45 0 Z" stroke="none" fill="#3cddca"/>
            </g>
          </g>
        </g>
      </g>
    </g>
    <g id="Page-1" transform="translate(225 5657)">
      <g id="_093---Search-CV" data-name="093---Search-CV" transform="translate(0 0)">
        <path id="Path" d="M37.742,2.837V17.616A15.615,15.615,0,0,0,23.376,45.09H2.837A1.843,1.843,0,0,1,1,43.253V2.837A1.843,1.843,0,0,1,2.837,1H35.9a1.843,1.843,0,0,1,1.837,1.837Z" transform="translate(-0.081 -0.081)" fill="#f5f5f5" fill-rule="evenodd"/>
        <path id="Path-2" data-name="Path" d="M22.33,22.575a15.551,15.551,0,0,1,9.684-4.506A15.611,15.611,0,0,0,21.76,46.475h2.756a15.61,15.61,0,0,1-2.186-23.9Z" transform="translate(-1.222 -1.467)" fill="#cfd8dc" fill-rule="evenodd"/>
        <path id="Path-3" data-name="Path" d="M38.756,1H36a1.843,1.843,0,0,1,1.837,1.837V16.869a15.505,15.505,0,0,1,2.756.748V2.837A1.843,1.843,0,0,0,38.756,1Z" transform="translate(-2.932 -0.081)" fill="#cfd8dc" fill-rule="evenodd"/>
        <path id="Path-4" data-name="Path" d="M45.876,43.278a15.623,15.623,0,1,1-1.222-20.7,15.623,15.623,0,0,1,1.222,20.7Z" transform="translate(-1.464 -1.466)" fill="#9e9e9e" fill-rule="evenodd"/>
        <path id="Path-5" data-name="Path" d="M45.92,22.575a15.53,15.53,0,0,0-12.4-4.506,15.608,15.608,0,0,1-.008,31.093A15.608,15.608,0,0,0,45.92,22.575Z" transform="translate(-2.73 -1.467)" fill="#707070" fill-rule="evenodd"/>
        <circle id="Oval" cx="11.941" cy="11.941" r="11.941" transform="translate(20.208 20.208)" fill="#02a9f4"/>
        <path id="Path-6" data-name="Path" d="M43.321,25.5A11.909,11.909,0,0,0,33.5,22.093a11.931,11.931,0,0,1,0,23.706,11.934,11.934,0,0,0,9.821-20.3Z" transform="translate(-2.729 -1.793)" fill="#0377bc" fill-rule="evenodd"/>
        <path id="Path-7" data-name="Path" d="M57.338,57.338a2.756,2.756,0,0,1-3.895,0l-4.657-4.657a.919.919,0,0,1,0-1.3l2.6-2.6a.919.919,0,0,1,1.3,0l4.657,4.657a2.756,2.756,0,0,1,0,3.895Z" transform="translate(-3.952 -3.952)" fill="#f44335" fill-rule="evenodd"/>
        <path id="Path-8" data-name="Path" d="M57.527,53.443,52.87,48.786a.919.919,0,0,0-1.3,0l-.735.73,3.931,3.927A2.719,2.719,0,0,1,54.2,57.76a2.748,2.748,0,0,0,3.325-4.317Z" transform="translate(-4.141 -3.952)" fill="#c81e1e" fill-rule="evenodd"/>
        <path id="Path-9" data-name="Path" d="M51.141,48.542l-2.6,2.6L45.52,48.119a15.354,15.354,0,0,0,2.6-2.6Z" transform="translate(-3.708 -3.708)" fill="#7f8e94" fill-rule="evenodd"/>
        <path id="Path-10" data-name="Path" d="M17.989,18.059a7.336,7.336,0,0,1-10.949,0,6.43,6.43,0,0,1,10.949,0Z" transform="translate(-0.573 -1.222)" fill="#ffdc00" fill-rule="evenodd"/>
        <path id="Path-11" data-name="Path" d="M19.7,12.348a7.29,7.29,0,0,1-1.874,4.9,6.43,6.43,0,0,0-10.949,0,7.348,7.348,0,1,1,12.823-4.9Z" transform="translate(-0.407 -0.407)" fill="#ff9801" fill-rule="evenodd"/>
        <path id="Path-12" data-name="Path" d="M12.878,5a7.4,7.4,0,0,0-1.378.133,7.338,7.338,0,0,1,5.26,10.358,6.457,6.457,0,0,1,1.592,1.753A7.348,7.348,0,0,0,12.878,5Z" transform="translate(-0.937 -0.407)" fill="#f57c00" fill-rule="evenodd"/>
        <circle id="Oval-2" data-name="Oval" cx="2.756" cy="2.756" r="2.756" transform="translate(9.185 8.267)" fill="#ffe0b2"/>
        <rect id="Rectangle" width="11.022" height="3.674" rx="1.837" transform="translate(22.964 4.593)" fill="#607d8b"/>
        <path id="Path-13" data-name="Path" d="M28.555,29.259a.919.919,0,0,1-.649-1.568A9.122,9.122,0,0,1,34.4,25a.919.919,0,0,1,0,1.837,7.3,7.3,0,0,0-5.2,2.153.919.919,0,0,1-.649.269Z" transform="translate(-2.251 -2.036)" fill="#f5f5f5" fill-rule="evenodd"/>
        <g id="Grupo_1158086" data-name="Grupo 1158086">
          <path id="Shape" d="M42.953,24.766a12.768,12.768,0,1,0,3.805,9.094,12.86,12.86,0,0,0-3.805-9.094Zm-1.3,16.887a10.946,10.946,0,1,1,3.26-7.794,11.023,11.023,0,0,1-3.26,7.794Z" transform="translate(-1.711 -1.711)"/>
          <path id="Shape-2" data-name="Shape" d="M49.378,44.182a1.865,1.865,0,0,0-1.756-.459l-2.009-2.009a16.526,16.526,0,0,0-7.034-24.8V2.756A2.756,2.756,0,0,0,35.823,0H2.756A2.756,2.756,0,0,0,0,2.756V43.171a2.756,2.756,0,0,0,2.756,2.756H23a16.509,16.509,0,0,0,18.716-.311l1.994,1.994a1.792,1.792,0,0,0-.068.471,1.817,1.817,0,0,0,.538,1.3l4.658,4.658a3.674,3.674,0,1,0,5.2-5.2ZM2.756,44.09a.919.919,0,0,1-.919-.919V2.756a.919.919,0,0,1,.919-.919H35.823a.919.919,0,0,1,.919.919V16.268A16.534,16.534,0,0,0,20.458,43.84c.092.092.184.164.276.25Zm19-1.55a14.7,14.7,0,1,1,10.392,4.305A14.7,14.7,0,0,1,21.757,42.54Zm22.084,1.3c.22-.22.412-.459.617-.683l1.674,1.674-1.3,1.3-1.673-1.674C43.386,44.253,43.622,44.059,43.84,43.84Zm8.9,8.9a1.88,1.88,0,0,1-2.6,0l-4.658-4.658,2.6-2.6,4.658,4.658A1.837,1.837,0,0,1,52.737,52.737Z" transform="translate(0 0)"/>
          <path id="Shape-3" data-name="Shape" d="M12.267,20.534A8.267,8.267,0,1,0,4,12.267,8.267,8.267,0,0,0,12.267,20.534ZM7.991,17.055a5.511,5.511,0,0,1,8.552,0,6.389,6.389,0,0,1-8.552,0Zm2.439-5.707a1.837,1.837,0,1,1,1.837,1.837A1.837,1.837,0,0,1,10.43,11.348Zm1.837-5.511a6.417,6.417,0,0,1,5.464,9.8,7.256,7.256,0,0,0-2.686-1.913,3.674,3.674,0,1,0-5.557,0A7.256,7.256,0,0,0,6.8,15.639a6.417,6.417,0,0,1,5.464-9.8Z" transform="translate(-0.326 -0.326)"/>
          <path id="Shape-4" data-name="Shape" d="M26.756,9.511H34.1A2.756,2.756,0,0,0,34.1,4H26.756a2.756,2.756,0,0,0,0,5.511Zm0-3.674H34.1a.919.919,0,0,1,0,1.837H26.756a.919.919,0,0,1,0-1.837Z" transform="translate(-1.955 -0.326)"/>
          <path id="Path-14" data-name="Path" d="M35.1,12H25.919a.919.919,0,0,0,0,1.837H35.1A.919.919,0,0,0,35.1,12Z" transform="translate(-2.036 -0.978)" fill-rule="evenodd"/>
          <path id="Path-15" data-name="Path" d="M16.86,24.919A.919.919,0,0,0,15.941,24H4.919a.919.919,0,1,0,0,1.837H15.941A.919.919,0,0,0,16.86,24.919Z" transform="translate(-0.326 -1.955)" fill-rule="evenodd"/>
          <path id="Path-16" data-name="Path" d="M4.919,29.837H9.511a.919.919,0,0,0,0-1.837H4.919a.919.919,0,0,0,0,1.837Z" transform="translate(-0.326 -2.281)" fill-rule="evenodd"/>
          <path id="Path-17" data-name="Path" d="M4.919,35.837h7.348a.919.919,0,0,0,0-1.837H4.919a.919.919,0,0,0,0,1.837Z" transform="translate(-0.326 -2.77)" fill-rule="evenodd"/>
          <path id="Path-18" data-name="Path" d="M5.837,38H4.919a.919.919,0,1,0,0,1.837h.919a.919.919,0,0,0,0-1.837Z" transform="translate(-0.326 -3.095)" fill-rule="evenodd"/>
          <path id="Path-19" data-name="Path" d="M13.593,38H9.919a.919.919,0,0,0,0,1.837h3.674a.919.919,0,1,0,0-1.837Z" transform="translate(-0.733 -3.095)" fill-rule="evenodd"/>
        </g>
      </g>
    </g>
  </g>
</svg>
