<svg xmlns="http://www.w3.org/2000/svg" xmlns:xlink="http://www.w3.org/1999/xlink" width="108" height="108" viewBox="0 0 108 108">
  <defs>
    <filter id="Trazado_982549" x="0" y="0" width="108" height="108" filterUnits="userSpaceOnUse">
      <feOffset dy="3" input="SourceAlpha"/>
      <feGaussianBlur stdDeviation="3" result="blur"/>
      <feFlood flood-opacity="0.161"/>
      <feComposite operator="in" in2="blur"/>
      <feComposite in="SourceGraphic"/>
    </filter>
  </defs>
  <g id="Grupo_1158115" data-name="Grupo 1158115" transform="translate(-199 -6636)">
    <g id="Grupo_1157479" data-name="Grupo 1157479" transform="translate(-249 5930)">
      <g id="Grupo_1149030" data-name="Grupo 1149030" transform="translate(-173 371)">
        <g id="Grupo_1146639" data-name="Grupo 1146639" transform="translate(420 -822)">
          <g transform="matrix(1, 0, 0, 1, 201, 1157)" filter="url(#Trazado_982549)">
            <g id="Trazado_982549-2" data-name="Trazado 982549" transform="translate(9 6)" fill="#faece9">
              <path d="M 45 88.5 C 39.12687683105469 88.5 33.43022537231445 87.35007476806641 28.06830024719238 85.08217620849609 C 22.88852500915527 82.89131164550781 18.23629951477051 79.75458526611328 14.2408504486084 75.75914764404297 C 10.24541282653809 71.76370239257812 7.108687400817871 67.11147308349609 4.917825222015381 61.93170166015625 C 2.649924993515015 56.56977462768555 1.5 50.87312316894531 1.5 45 C 1.5 39.12687683105469 2.649924993515015 33.43022537231445 4.917825222015381 28.06830024719238 C 7.108687400817871 22.88852500915527 10.24541282653809 18.23629951477051 14.2408504486084 14.2408504486084 C 18.23629951477051 10.24541282653809 22.88852500915527 7.108687400817871 28.06830024719238 4.917825222015381 C 33.43022537231445 2.649924993515015 39.12687683105469 1.5 45 1.5 C 50.87312316894531 1.5 56.56977462768555 2.649924993515015 61.93170166015625 4.917825222015381 C 67.11147308349609 7.108687400817871 71.76370239257812 10.24541282653809 75.75914764404297 14.2408504486084 C 79.75458526611328 18.23629951477051 82.89131164550781 22.88852500915527 85.08217620849609 28.06830024719238 C 87.35007476806641 33.43022537231445 88.5 39.12687683105469 88.5 45 C 88.5 50.87312316894531 87.35007476806641 56.56977462768555 85.08217620849609 61.93170166015625 C 82.89131164550781 67.11147308349609 79.75458526611328 71.76370239257812 75.75914764404297 75.75914764404297 C 71.76370239257812 79.75458526611328 67.11147308349609 82.89131164550781 61.93170166015625 85.08217620849609 C 56.56977462768555 87.35007476806641 50.87312316894531 88.5 45 88.5 Z" stroke="none"/>
              <path d="M 45 3 C 39.32871246337891 3 33.82865524291992 4.110054016113281 28.65262985229492 6.299339294433594 C 23.65165710449219 8.414573669433594 19.15968322753906 11.44334411621094 15.301513671875 15.301513671875 C 11.44334411621094 19.15968322753906 8.414573669433594 23.65165710449219 6.299339294433594 28.65262985229492 C 4.110054016113281 33.82865524291992 3 39.32871246337891 3 45 C 3 50.67128753662109 4.110054016113281 56.17134475708008 6.299339294433594 61.34737396240234 C 8.414573669433594 66.34834289550781 11.44334411621094 70.84031677246094 15.301513671875 74.698486328125 C 19.15968322753906 78.55665588378906 23.65165710449219 81.58542633056641 28.65262985229492 83.70066070556641 C 33.82865524291992 85.88994598388672 39.32871246337891 87 45 87 C 50.67128753662109 87 56.17134475708008 85.88994598388672 61.34737396240234 83.70066070556641 C 66.34834289550781 81.58542633056641 70.84031677246094 78.55665588378906 74.698486328125 74.698486328125 C 78.55665588378906 70.84031677246094 81.58542633056641 66.34834289550781 83.70066070556641 61.34737396240234 C 85.88994598388672 56.17134475708008 87 50.67128753662109 87 45 C 87 39.32871246337891 85.88994598388672 33.82865524291992 83.70066070556641 28.65262985229492 C 81.58542633056641 23.65165710449219 78.55665588378906 19.15968322753906 74.698486328125 15.301513671875 C 70.84031677246094 11.44334411621094 66.34834289550781 8.414573669433594 61.34737396240234 6.299339294433594 C 56.17134475708008 4.110054016113281 50.67128753662109 3 45 3 M 45 0 C 69.85281372070312 0 90 20.14718627929688 90 45 C 90 69.85281372070312 69.85281372070312 90 45 90 C 20.14718627929688 90 0 69.85281372070312 0 45 C 0 20.14718627929688 20.14718627929688 0 45 0 Z" stroke="none" fill="#f97c61"/>
            </g>
          </g>
        </g>
      </g>
    </g>
    <g id="contratista" transform="translate(193.98 6657)">
      <g id="Grupo_1158111" data-name="Grupo 1158111" transform="translate(33.906 0.886)">
        <g id="Grupo_1158110" data-name="Grupo 1158110" transform="translate(0)">
          <path id="Trazado_992208" data-name="Trazado 992208" d="M49.459,264.005V275.2H40.521v14.978a.59.59,0,0,0,.588.591H58.977V264.005Z" transform="translate(-40.521 -233.696)" fill="#e0d3ce"/>
          <path id="Trazado_992209" data-name="Trazado 992209" d="M158.471,264.005h4.519v26.762h-4.519Z" transform="translate(-144.534 -233.696)" fill="#b9acac"/>
          <g id="Grupo_1158109" data-name="Grupo 1158109" transform="translate(7.95)">
            <g id="Grupo_1158093" data-name="Grupo 1158093" transform="translate(0 28.442)">
              <g id="Grupo_1158088" data-name="Grupo 1158088" transform="translate(0 5.555)">
                <path id="Trazado_992210" data-name="Trazado 992210" d="M145.922,307.663c-4.584-11.568-13.268-12.184-14.168-12.456H126.82c-.9.271-9.584.887-14.168,12.456L107.8,319.938h11.4l10.076-.591,10.076.591h11.422Z" transform="translate(-107.8 -295.207)" fill="#64b9fc"/>
                <path id="Trazado_992211" data-name="Trazado 992211" d="M292.7,319.936h-5.009s-.321-.89-.646-1.71l-4.176-10.565c-4.52-11.4-13.024-12.165-14.125-12.444l0-.012h4.934c.9.271,9.584.888,14.169,12.455l4.176,10.565Z" transform="translate(-249.729 -295.205)" fill="#31a7fb"/>
                <path id="Trazado_992212" data-name="Trazado 992212" d="M237.288,297.16a17.465,17.465,0,0,0-5.634-1.953H226.72a17.466,17.466,0,0,0-5.634,1.953,8.589,8.589,0,0,0,16.2,0Z" transform="translate(-207.7 -295.207)" fill="#f69583"/>
              </g>
              <path id="Trazado_992213" data-name="Trazado 992213" d="M268.764,248.2H273.7V255.6h-4.934Z" transform="translate(-249.744 -248.197)" fill="#f69583"/>
              <g id="Grupo_1158091" data-name="Grupo 1158091" transform="translate(8.374 7.101)">
                <path id="Trazado_992214" data-name="Trazado 992214" d="M183.248,308.394a.544.544,0,0,0-.685.045l-3.719,3.448a.549.549,0,0,0-.054.747,14.494,14.494,0,0,1,2.9,9.144v9.7H191.77V314.436Z" transform="translate(-178.668 -308.294)" fill="#fb9927"/>
                <g id="Grupo_1158089" data-name="Grupo 1158089" transform="translate(13.102)">
                  <path id="Trazado_992215" data-name="Trazado 992215" d="M298.067,308.394a.544.544,0,0,1,.685.045l3.719,3.448a.549.549,0,0,1,.054.747,14.494,14.494,0,0,0-2.9,9.144v9.7H289.545V314.436Z" transform="translate(-289.545 -308.294)" fill="#fb9927"/>
                  <path id="Trazado_992216" data-name="Trazado 992216" d="M356.318,326.977a14.5,14.5,0,0,0-2.9,9.144v9.7h-2.868v-10.6a15.43,15.43,0,0,1,3.914-10.667l1.8,1.672A.55.55,0,0,1,356.318,326.977Z" transform="translate(-343.339 -322.636)" fill="#f98824"/>
                </g>
                <g id="Grupo_1158090" data-name="Grupo 1158090" transform="translate(4.877 0.279)">
                  <path id="Trazado_992217" data-name="Trazado 992217" d="M220.727,310.756l7.46,5.76-7.082,1.077a.488.488,0,0,1-.558-.435l-.6-5.964A.488.488,0,0,1,220.727,310.756Z" transform="translate(-219.942 -310.653)" fill="#64b9fc"/>
                </g>
              </g>
              <g id="Grupo_1158092" data-name="Grupo 1158092" transform="translate(21.476 7.38)">
                <path id="Trazado_992218" data-name="Trazado 992218" d="M297.005,310.756l-7.46,5.76,7.082,1.077a.488.488,0,0,0,.558-.435l.6-5.964a.488.488,0,0,0-.782-.438Z" transform="translate(-289.545 -310.653)" fill="#64b9fc"/>
              </g>
            </g>
            <g id="Grupo_1158107" data-name="Grupo 1158107" transform="translate(7.064)">
              <g id="Grupo_1158094" data-name="Grupo 1158094" transform="translate(0.907 17.462)">
                <ellipse id="Elipse_11589" data-name="Elipse 11589" cx="3.202" cy="3.142" rx="3.202" ry="3.142" transform="translate(20.628)" fill="#f69583"/>
                <ellipse id="Elipse_11590" data-name="Elipse 11590" cx="3.202" cy="3.142" rx="3.202" ry="3.142" fill="#fdb0a0"/>
              </g>
              <g id="Grupo_1158095" data-name="Grupo 1158095" transform="translate(4.833 16.917)">
                <path id="Trazado_992219" data-name="Trazado 992219" d="M218.067,166.312a9.591,9.591,0,0,1-9.591-9.591v-6.058h19.182v6.058A9.591,9.591,0,0,1,218.067,166.312Z" transform="translate(-208.476 -150.664)" fill="#ffcec0"/>
              </g>
              <path id="Trazado_992220" data-name="Trazado 992220" d="M285.568,150.664v6.015a9.613,9.613,0,0,1-9.591,9.634,9.419,9.419,0,0,1-1.831-.177,9.623,9.623,0,0,0,7.758-9.457v-6.015Z" transform="translate(-261.554 -133.747)" fill="#fdb0a0"/>
              <g id="Grupo_1158106" data-name="Grupo 1158106">
                <g id="Grupo_1158105" data-name="Grupo 1158105">
                  <g id="Grupo_1158097" data-name="Grupo 1158097" transform="translate(2.943 0.554)">
                    <g id="Grupo_1158096" data-name="Grupo 1158096">
                      <path id="Trazado_992221" data-name="Trazado 992221" d="M192.483,27.9h22.961V23.563a11.373,11.373,0,0,0-11.373-11.373h-.215a11.373,11.373,0,0,0-11.373,11.373Z" transform="translate(-192.483 -12.191)" fill="#fdc83a"/>
                      <path id="Trazado_992222" data-name="Trazado 992222" d="M290.475,23.588a11.373,11.373,0,0,0-11.347-11.4h-.266a11.428,11.428,0,0,0-1.293.074,12.245,12.245,0,0,1,8.085,11.5v4.128h4.822Z" transform="translate(-267.514 -12.19)" fill="#fcb72d"/>
                    </g>
                  </g>
                  <g id="Grupo_1158100" data-name="Grupo 1158100" transform="translate(6.338)">
                    <g id="Grupo_1158098" data-name="Grupo 1158098" transform="translate(0 0)">
                      <path id="Trazado_992223" data-name="Trazado 992223" d="M237.385,21.494c-.877-.7-2.057-1.608-3.027-2.354a4.612,4.612,0,0,1-1.767-3.66v-6.6A1.384,1.384,0,0,0,231.2,7.5h-3.81a1.384,1.384,0,0,0-1.386,1.381v6.6a4.612,4.612,0,0,1-1.767,3.66c-.97.746-2.15,1.659-3.027,2.355Z" transform="translate(-221.214 -7.5)" fill="#fb9927"/>
                    </g>
                    <g id="Grupo_1158099" data-name="Grupo 1158099" transform="translate(6.56)">
                      <path id="Trazado_992224" data-name="Trazado 992224" d="M286.341,21.494h-3.547c-.876-.7-2.056-1.607-3.027-2.355A4.61,4.61,0,0,1,278,15.48v-6.6a1.382,1.382,0,0,0-1.27-1.376,1.054,1.054,0,0,1,.115-.006h3.316a1.384,1.384,0,0,1,1.386,1.381v6.6a4.61,4.61,0,0,0,1.766,3.66C284.285,19.886,285.465,20.8,286.341,21.494Z" transform="translate(-276.731 -7.5)" fill="#f98824"/>
                    </g>
                  </g>
                  <g id="Grupo_1158104" data-name="Grupo 1158104" transform="translate(0 13.75)">
                    <g id="Grupo_1158103" data-name="Grupo 1158103">
                      <g id="Grupo_1158102" data-name="Grupo 1158102">
                        <g id="Grupo_1158101" data-name="Grupo 1158101">
                          <path id="Trazado_992225" data-name="Trazado 992225" d="M193.99,128.742H170.014a2.434,2.434,0,0,1-2.435-2.435V126.3a2.434,2.434,0,0,1,2.435-2.435H193.99a2.434,2.434,0,0,1,2.435,2.435v.011A2.435,2.435,0,0,1,193.99,128.742Z" transform="translate(-167.579 -123.862)" fill="#fddd45"/>
                          <path id="Trazado_992226" data-name="Trazado 992226" d="M357.947,126.3a2.442,2.442,0,0,1-2.45,2.44h-4.753a2.439,2.439,0,1,0,0-4.879H355.5A2.446,2.446,0,0,1,357.947,126.3Z" transform="translate(-329.101 -123.866)" fill="#fdc83a"/>
                        </g>
                      </g>
                    </g>
                  </g>
                </g>
              </g>
            </g>
            <g id="Grupo_1158108" data-name="Grupo 1158108" transform="translate(11.4 50.959)">
              <path id="Trazado_992227" data-name="Trazado 992227" d="M204.273,438.763h10.1v3.388h-10.1Z" transform="translate(-204.273 -438.763)" fill="#f3eae6"/>
              <path id="Trazado_992228" data-name="Trazado 992228" d="M289.545,438.763h10.1v3.388h-10.1Z" transform="translate(-279.469 -438.763)" fill="#f3eae6"/>
            </g>
          </g>
        </g>
      </g>
      <g id="Grupo_1158114" data-name="Grupo 1158114" transform="translate(33.02 0)">
        <path id="Trazado_992229" data-name="Trazado 992229" d="M283.027,193.861a.886.886,0,0,0,.886-.886v-1.319a.886.886,0,0,0-1.772,0v1.319A.886.886,0,0,0,283.027,193.861Z" transform="translate(-252.704 -168.227)"/>
        <path id="Trazado_992230" data-name="Trazado 992230" d="M267.714,227.605a.886.886,0,0,0-1.256-1.251,2.591,2.591,0,0,1-3.678,0,.886.886,0,0,0-1.256,1.251,4.364,4.364,0,0,0,6.19,0Z" transform="translate(-234.296 -199.378)"/>
        <path id="Trazado_992231" data-name="Trazado 992231" d="M244.606,181.639a.887.887,0,0,0-.919.853l-.009.25a.886.886,0,0,0,.852.919h.034a.886.886,0,0,0,.885-.853l.009-.25a.886.886,0,0,0-.852-.919Z" transform="translate(-218.786 -160.176)"/>
        <path id="Trazado_992232" data-name="Trazado 992232" d="M321.42,183.662h.034a.886.886,0,0,0,.853-.919l-.009-.25a.886.886,0,1,0-1.771.066l.009.25A.886.886,0,0,0,321.42,183.662Z" transform="translate(-286.552 -160.176)"/>
        <path id="Trazado_992233" data-name="Trazado 992233" d="M85.654,59.288,80.8,47.012a24.931,24.931,0,0,0-3.523-6.253,1.438,1.438,0,0,0-.419-1.385l-3.719-3.449a1.437,1.437,0,0,0-1.771-.136A17.223,17.223,0,0,0,66.7,34.159v-.372a10.51,10.51,0,0,0,6.992-8.268,4.063,4.063,0,0,0,4.058-4.029,3.974,3.974,0,0,0-.412-1.762,3.328,3.328,0,0,0-1.624-5.957v-.959A12.308,12.308,0,0,0,67.222,1.147,2.274,2.274,0,0,0,65.248,0h-3.81a2.274,2.274,0,0,0-1.974,1.147,12.309,12.309,0,0,0-8.488,11.666v.958a3.321,3.321,0,0,0-2.943,3.3,3.326,3.326,0,0,0,1.318,2.653,3.975,3.975,0,0,0-.411,1.762A4.063,4.063,0,0,0,53,25.519a10.51,10.51,0,0,0,6.992,8.268v.372A17.192,17.192,0,0,0,55.3,35.794a1.436,1.436,0,0,0-1.78.131l-.274.254v-7.63a.886.886,0,1,0-1.772,0v1.761H43.731V28.548a.886.886,0,1,0-1.772,0v2.84H39.65v-2.84a.886.886,0,1,0-1.772,0v2.84h-.5a.886.886,0,1,0,0,1.772h.5v1.718h-.5a.886.886,0,1,0,0,1.772h.5v1.718h-.5a.886.886,0,1,0,0,1.772h.5V41.5H34.792V39.736a.886.886,0,1,0-1.772,0v8.4a.886.886,0,1,0,1.772,0V43.275h8.052a.886.886,0,0,0,.886-.886V32.082h7.745v5.74L49.8,39.373a1.438,1.438,0,0,0-.413,1.406,24.954,24.954,0,0,0-3.506,6.233L41.908,57.072H34.792V52.05a.886.886,0,1,0-1.772,0v5.317a1.477,1.477,0,0,0,1.474,1.477h6.713l-.175.443a.886.886,0,1,0,1.648.651l4.852-12.274A23.66,23.66,0,0,1,50.4,42.381a14.287,14.287,0,0,1,1.969,7.533v9.7a.886.886,0,0,0,1.772,0V56.12h8.3v3.494a.886.886,0,1,0,1.772,0V56.12h8.3v3.494a.886.886,0,1,0,1.772,0v-9.7c0-.263.006-.527.02-.809a.886.886,0,0,0-1.771-.083c-.015.309-.022.6-.022.892v1.046H69.266v-6.59l1.014.154a1.362,1.362,0,0,0,.2.015A1.374,1.374,0,0,0,71.854,43.3l.568-5.627,3.006,2.787a14.051,14.051,0,0,0-2.177,4.382.886.886,0,1,0,1.7.515,12.922,12.922,0,0,1,1.327-2.993,23.647,23.647,0,0,1,2.879,5.3l4.852,12.275a.886.886,0,1,0,1.648-.652ZM41.959,41.5H39.65V40.141h2.309Zm0-3.134H39.65V36.651h2.309Zm0-3.49H39.65V33.161h2.309ZM73.82,23.739V20.4h1.517a3.322,3.322,0,0,0,.338-.017,2.2,2.2,0,0,1,.3,1.105,2.283,2.283,0,0,1-2.154,2.249Zm-6.3-20.592a10.535,10.535,0,0,1,6.416,9.665v.937H71.426c-.831-.652-1.8-1.4-2.484-1.926a3.737,3.737,0,0,1-1.421-2.957ZM60.937,8.866v-6.6a.5.5,0,0,1,.5-.495h3.81a.5.5,0,0,1,.5.495v6.6a5.52,5.52,0,0,0,2.112,4.362l.676.521H58.148l.677-.521a5.521,5.521,0,0,0,2.113-4.363Zm-8.189,3.948a10.536,10.536,0,0,1,6.416-9.667V8.866a3.738,3.738,0,0,1-1.42,2.958c-.888.682-1.776,1.371-2.485,1.926H52.748v-.936Zm.118,10.926a2.283,2.283,0,0,1-2.154-2.249,2.2,2.2,0,0,1,.3-1.105,3.316,3.316,0,0,0,.337.017h1.517v3.337Zm1.772.121V20.4h2.326a.886.886,0,0,0,0-1.772H51.349a1.556,1.556,0,0,1-1.09-2.654,1.527,1.527,0,0,1,1.09-.454H75.337a1.554,1.554,0,0,1,0,3.107H60.866a.886.886,0,1,0,0,1.772H72.048v3.458a8.7,8.7,0,0,1-17.409,0Zm-3.4,16.6,3.024-2.8.57,5.644A1.374,1.374,0,0,0,56.2,44.539a1.363,1.363,0,0,0,.2-.015l1.016-.154v6.59H54.142V49.914a15.55,15.55,0,0,0-2.906-9.452Zm4.848-2.383,5.086,3.927-4.619.7Zm6.361,16.269h-8.3V52.732h8.3Zm0-3.388H59.192V44.1l3.253-.495Zm.9-9.516L57.329,36.8a15.231,15.231,0,0,1,2.661-.831v.3a.886.886,0,0,0,1.772,0V34.218a10.547,10.547,0,0,0,3.161,0v2.055a.886.886,0,1,0,1.772,0v-.3a15.213,15.213,0,0,1,2.66.831Zm.876,2.159,3.276.5v6.86H64.218Zm8.324,9.13v1.615h-8.3V52.732Zm-2.41-10.024-4.619-.7L70.6,38.079Z" transform="translate(-33.02 0)"/>
        <g id="Grupo_1158112" data-name="Grupo 1158112" transform="translate(4.319 46.593)">
          <path id="Trazado_992234" data-name="Trazado 992234" d="M71.234,396.084h-.773a.886.886,0,0,1,0-1.772h.773a.886.886,0,0,1,0,1.772Z" transform="translate(-69.575 -394.312)"/>
        </g>
        <g id="Grupo_1158113" data-name="Grupo 1158113" transform="translate(5.802 49.484)">
          <path id="Trazado_992235" data-name="Trazado 992235" d="M83.777,420.552H83a.886.886,0,1,1,0-1.772h.773a.886.886,0,1,1,0,1.772Z" transform="translate(-82.118 -418.78)"/>
        </g>
      </g>
    </g>
  </g>
</svg>
