<svg xmlns="http://www.w3.org/2000/svg" xmlns:xlink="http://www.w3.org/1999/xlink" width="108" height="108" viewBox="0 0 108 108">
  <defs>
    <filter id="Trazado_982549" x="0" y="0" width="108" height="108" filterUnits="userSpaceOnUse">
      <feOffset dy="3" input="SourceAlpha"/>
      <feGaussianBlur stdDeviation="3" result="blur"/>
      <feFlood flood-opacity="0.161"/>
      <feComposite operator="in" in2="blur"/>
      <feComposite in="SourceGraphic"/>
    </filter>
  </defs>
  <g id="Grupo_1158199" data-name="Grupo 1158199" transform="translate(-203 -751)">
    <g id="Grupo_1156938" data-name="Grupo 1156938" transform="translate(0 -1276.5)">
      <g id="Grupo_1149033" data-name="Grupo 1149033" transform="translate(-419.951 -550.538)">
        <g id="Grupo_1146766" data-name="Grupo 1146766" transform="translate(0.049 100.038)">
          <g id="Grupo_1146639" data-name="Grupo 1146639" transform="translate(421.902 1321)">
            <g transform="matrix(1, 0, 0, 1, 201, 1157)" filter="url(#Trazado_982549)">
              <g id="Trazado_982549-2" data-name="Trazado 982549" transform="translate(9 6)" fill="#eafbf9">
                <path d="M 45 88.5 C 39.12687683105469 88.5 33.43022537231445 87.35007476806641 28.06830024719238 85.08217620849609 C 22.88852500915527 82.89131164550781 18.23629951477051 79.75458526611328 14.2408504486084 75.75914764404297 C 10.24541282653809 71.76370239257812 7.108687400817871 67.11147308349609 4.917825222015381 61.93170166015625 C 2.649924993515015 56.56977462768555 1.5 50.87312316894531 1.5 45 C 1.5 39.12687683105469 2.649924993515015 33.43022537231445 4.917825222015381 28.06830024719238 C 7.108687400817871 22.88852500915527 10.24541282653809 18.23629951477051 14.2408504486084 14.2408504486084 C 18.23629951477051 10.24541282653809 22.88852500915527 7.108687400817871 28.06830024719238 4.917825222015381 C 33.43022537231445 2.649924993515015 39.12687683105469 1.5 45 1.5 C 50.87312316894531 1.5 56.56977462768555 2.649924993515015 61.93170166015625 4.917825222015381 C 67.11147308349609 7.108687400817871 71.76370239257812 10.24541282653809 75.75914764404297 14.2408504486084 C 79.75458526611328 18.23629951477051 82.89131164550781 22.88852500915527 85.08217620849609 28.06830024719238 C 87.35007476806641 33.43022537231445 88.5 39.12687683105469 88.5 45 C 88.5 50.87312316894531 87.35007476806641 56.56977462768555 85.08217620849609 61.93170166015625 C 82.89131164550781 67.11147308349609 79.75458526611328 71.76370239257812 75.75914764404297 75.75914764404297 C 71.76370239257812 79.75458526611328 67.11147308349609 82.89131164550781 61.93170166015625 85.08217620849609 C 56.56977462768555 87.35007476806641 50.87312316894531 88.5 45 88.5 Z" stroke="none"/>
                <path d="M 45 3 C 39.32871246337891 3 33.82865524291992 4.110054016113281 28.65262985229492 6.299339294433594 C 23.65165710449219 8.414573669433594 19.15968322753906 11.44334411621094 15.301513671875 15.301513671875 C 11.44334411621094 19.15968322753906 8.414573669433594 23.65165710449219 6.299339294433594 28.65262985229492 C 4.110054016113281 33.82865524291992 3 39.32871246337891 3 45 C 3 50.67128753662109 4.110054016113281 56.17134475708008 6.299339294433594 61.34737396240234 C 8.414573669433594 66.34834289550781 11.44334411621094 70.84031677246094 15.301513671875 74.698486328125 C 19.15968322753906 78.55665588378906 23.65165710449219 81.58542633056641 28.65262985229492 83.70066070556641 C 33.82865524291992 85.88994598388672 39.32871246337891 87 45 87 C 50.67128753662109 87 56.17134475708008 85.88994598388672 61.34737396240234 83.70066070556641 C 66.34834289550781 81.58542633056641 70.84031677246094 78.55665588378906 74.698486328125 74.698486328125 C 78.55665588378906 70.84031677246094 81.58542633056641 66.34834289550781 83.70066070556641 61.34737396240234 C 85.88994598388672 56.17134475708008 87 50.67128753662109 87 45 C 87 39.32871246337891 85.88994598388672 33.82865524291992 83.70066070556641 28.65262985229492 C 81.58542633056641 23.65165710449219 78.55665588378906 19.15968322753906 74.698486328125 15.301513671875 C 70.84031677246094 11.44334411621094 66.34834289550781 8.414573669433594 61.34737396240234 6.299339294433594 C 56.17134475708008 4.110054016113281 50.67128753662109 3 45 3 M 45 0 C 69.85281372070312 0 90 20.14718627929688 90 45 C 90 69.85281372070312 69.85281372070312 90 45 90 C 20.14718627929688 90 0 69.85281372070312 0 45 C 0 20.14718627929688 20.14718627929688 0 45 0 Z" stroke="none" fill="#3cddca"/>
              </g>
            </g>
          </g>
        </g>
      </g>
    </g>
    <g id="fabricacion" transform="translate(220 763.94)">
      <g id="Grupo_1158055" data-name="Grupo 1158055" transform="translate(8.95 9.657)">
        <circle id="Elipse_11573" data-name="Elipse 11573" cx="1.267" cy="1.267" r="1.267" transform="translate(33.647 2.804)"/>
        <g id="Grupo_1158040" data-name="Grupo 1158040" transform="translate(28.783 35.361)">
          <g id="Grupo_1158036" data-name="Grupo 1158036">
            <g id="Grupo_1158034" data-name="Grupo 1158034">
              <path id="Trazado_992160" data-name="Trazado 992160" d="M259.763,322.044H267.1a1.279,1.279,0,0,0,1.265-1.287V312.68a.665.665,0,0,0-.658-.669h-8.551a.665.665,0,0,0-.658.669v8.078a1.279,1.279,0,0,0,1.265,1.287Z" transform="translate(-258.498 -312.011)" fill="#e3a76f" fill-rule="evenodd"/>
              <path id="Trazado_992161" data-name="Trazado 992161" d="M320.3,322.045h1.265a1.279,1.279,0,0,0,1.265-1.287v-8.077a.665.665,0,0,0-.658-.669H320.91a.665.665,0,0,1,.658.669v8.077A1.279,1.279,0,0,1,320.3,322.045Z" transform="translate(-312.966 -312.012)" fill="#c48958" fill-rule="evenodd"/>
            </g>
            <g id="Grupo_1158035" data-name="Grupo 1158035" transform="translate(3.281)">
              <path id="Trazado_992162" data-name="Trazado 992162" d="M286.145,312.011h3.3V315.4a.634.634,0,0,1-.633.633h-2.038a.634.634,0,0,1-.633-.633Z" transform="translate(-286.145 -312.011)" fill="#f2d1a5" fill-rule="evenodd"/>
              <path id="Trazado_992163" data-name="Trazado 992163" d="M302.992,312.011h.746V315.4a.634.634,0,0,1-.633.633h-.746a.634.634,0,0,0,.633-.633Z" transform="translate(-300.435 -312.011)" fill="#ecba78" fill-rule="evenodd"/>
            </g>
          </g>
          <g id="Grupo_1158039" data-name="Grupo 1158039" transform="translate(13.889)">
            <g id="Grupo_1158037" data-name="Grupo 1158037">
              <path id="Trazado_992164" data-name="Trazado 992164" d="M376.779,322.044h7.336a1.279,1.279,0,0,0,1.265-1.287V312.68a.665.665,0,0,0-.658-.669h-8.551a.665.665,0,0,0-.658.669v8.078a1.279,1.279,0,0,0,1.265,1.287Z" transform="translate(-375.514 -312.011)" fill="#e3a76f" fill-rule="evenodd"/>
              <path id="Trazado_992165" data-name="Trazado 992165" d="M437.318,322.045h1.266a1.279,1.279,0,0,0,1.265-1.287v-8.077a.665.665,0,0,0-.658-.669h-1.265a.665.665,0,0,1,.658.669v8.077A1.279,1.279,0,0,1,437.318,322.045Z" transform="translate(-429.982 -312.012)" fill="#c48958" fill-rule="evenodd"/>
            </g>
            <g id="Grupo_1158038" data-name="Grupo 1158038" transform="translate(3.282)">
              <path id="Trazado_992166" data-name="Trazado 992166" d="M403.161,312.011h3.3V315.4a.634.634,0,0,1-.633.633h-2.038a.634.634,0,0,1-.633-.633v-3.393Z" transform="translate(-403.161 -312.011)" fill="#f2d1a5" fill-rule="evenodd"/>
              <path id="Trazado_992167" data-name="Trazado 992167" d="M420.008,312.011h.746V315.4a.634.634,0,0,1-.633.633h-.746a.634.634,0,0,0,.633-.633Z" transform="translate(-417.451 -312.011)" fill="#ecba78" fill-rule="evenodd"/>
            </g>
          </g>
        </g>
        <g id="Grupo_1158047" data-name="Grupo 1158047" transform="translate(4.233 0)">
          <path id="Trazado_992168" data-name="Trazado 992168" d="M111,33.541l-1.284-5.7-23.763,14.6,6.314,7.706Z" transform="translate(-81.883 -26.205)" fill="#d1d1d6" fill-rule="evenodd"/>
          <g id="Grupo_1158041" data-name="Grupo 1158041" transform="translate(34.96 18.422)">
            <path id="Trazado_992169" data-name="Trazado 992169" d="M359.227,175.8a6.508,6.508,0,0,1-3.385,5.712V175.71l-3.192-1.843-3.192,1.843v5.73a6.51,6.51,0,1,1,9.768-5.637Z" transform="translate(-346.208 -169.294)" fill="#d1d1d6" fill-rule="evenodd"/>
            <path id="Trazado_992170" data-name="Trazado 992170" d="M377.936,175.8a6.508,6.508,0,0,1-3.385,5.712v-.045a6.51,6.51,0,0,0-6.735-11.085,6.51,6.51,0,0,1,10.12,5.418Zm-9.768-.094-.732.422v4.815a6.513,6.513,0,0,0,.732.493Z" transform="translate(-364.916 -169.294)" fill="#b1b1b5" fill-rule="evenodd"/>
          </g>
          <path id="Trazado_992171" data-name="Trazado 992171" d="M68.142,212.259l12.4-.166-5.084-19.238c-2.8-1.258-5.336-3.465-8.533-3.075Z" transform="translate(-65.11 -168.886)" fill="#d1d1d6" fill-rule="evenodd"/>
          <path id="Trazado_992172" data-name="Trazado 992172" d="M300.849,48.755l9.031,7.877c.914-.761,2.348-1.157,2.706-2.622L304.7,45.023A46.561,46.561,0,0,0,300.849,48.755Z" transform="translate(-271.273 -41.351)" fill="#d1d1d6" fill-rule="evenodd"/>
          <g id="Grupo_1158042" data-name="Grupo 1158042" transform="translate(25.98)">
            <ellipse id="Elipse_11574" data-name="Elipse 11574" cx="3.472" cy="3.472" rx="3.472" ry="3.472" transform="translate(0 6.756) rotate(-76.7)" fill="#b1b1b5"/>
            <path id="Trazado_992173" data-name="Trazado 992173" d="M301.272,19.937a3.472,3.472,0,1,1-.593,6.893,3.472,3.472,0,0,0,0-6.842A3.491,3.491,0,0,1,301.272,19.937Z" transform="translate(-297.103 -19.243)" fill="#9c9c9e" fill-rule="evenodd"/>
          </g>
          <g id="Grupo_1158043" data-name="Grupo 1158043" transform="translate(38.092 12.173)">
            <circle id="Elipse_11575" data-name="Elipse 11575" cx="2.936" cy="2.936" r="2.936" transform="matrix(0.16, -0.987, 0.987, 0.16, 0, 5.795)" fill="#b1b1b5"/>
            <path id="Trazado_992174" data-name="Trazado 992174" d="M396.646,120.272a2.936,2.936,0,1,1-.593,5.811,2.936,2.936,0,0,0,0-5.751A2.943,2.943,0,0,1,396.646,120.272Z" transform="translate(-393.269 -119.841)" fill="#9c9c9e" fill-rule="evenodd"/>
          </g>
          <g id="Grupo_1158044" data-name="Grupo 1158044" transform="translate(1.726 14.189)">
            <circle id="Elipse_11576" data-name="Elipse 11576" cx="5.019" cy="5.019" r="5.019" transform="translate(0 9.606) rotate(-73.142)" fill="#b1b1b5"/>
            <path id="Trazado_992175" data-name="Trazado 992175" d="M114.521,144.028a5.019,5.019,0,1,1-.593,10,5.019,5.019,0,0,0,0-9.967A5.075,5.075,0,0,1,114.521,144.028Z" transform="translate(-108.264 -142.794)" fill="#9c9c9e" fill-rule="evenodd"/>
          </g>
          <g id="Grupo_1158045" data-name="Grupo 1158045" transform="translate(5.916 18.376)">
            <circle id="Elipse_11577" data-name="Elipse 11577" cx="1.799" cy="1.799" r="1.799" transform="matrix(0.16, -0.987, 0.987, 0.16, 0, 3.551)" fill="#9facba"/>
            <path id="Trazado_992176" data-name="Trazado 992176" d="M105.572,171.156a1.793,1.793,0,0,1,.593.1,1.8,1.8,0,0,0,0,3.4,1.8,1.8,0,1,1-.593-3.5Z" transform="translate(-103.504 -170.889)" fill="#8d9ca8" fill-rule="evenodd"/>
          </g>
          <g id="Grupo_1158046" data-name="Grupo 1158046" transform="translate(0 42.148)">
            <path id="Trazado_992177" data-name="Trazado 992177" d="M51.667,373.227H69.711v-2.657a1.5,1.5,0,0,0-1.586-1.385H53.253a1.5,1.5,0,0,0-1.586,1.385v2.657Z" transform="translate(-51.667 -369.186)" fill="#b1b1b5" fill-rule="evenodd"/>
            <path id="Trazado_992178" data-name="Trazado 992178" d="M68.875,373.228h1.041v-2.656a1.5,1.5,0,0,0-1.586-1.385H53.458a1.55,1.55,0,0,0-1.558,1.128,1.78,1.78,0,0,1,.517-.076H67.289a1.5,1.5,0,0,1,1.586,1.385Z" transform="translate(-51.872 -369.187)" fill="#9c9c9e" fill-rule="evenodd"/>
          </g>
        </g>
        <g id="Grupo_1158053" data-name="Grupo 1158053" transform="translate(0 45.395)">
          <g id="Grupo_1158048" data-name="Grupo 1158048" transform="translate(0 0)">
            <path id="Trazado_992179" data-name="Trazado 992179" d="M21.67,396.542H67.3a5.669,5.669,0,0,1,0,11.338H21.67a5.669,5.669,0,0,1,0-11.338Z" transform="translate(-16.001 -396.542)" fill="#9facba" fill-rule="evenodd"/>
            <path id="Trazado_992180" data-name="Trazado 992180" d="M438.239,396.542h1.187a5.669,5.669,0,1,1,0,11.338h-1.187a5.669,5.669,0,1,0,0-11.338Z" transform="translate(-388.122 -396.542)" fill="#8d9ca8" fill-rule="evenodd"/>
          </g>
          <g id="Grupo_1158049" data-name="Grupo 1158049" transform="translate(2.672 2.672)">
            <circle id="Elipse_11578" data-name="Elipse 11578" cx="2.997" cy="2.997" r="2.997" transform="translate(0 0)" fill="#8192a5"/>
            <path id="Trazado_992181" data-name="Trazado 992181" d="M59.354,419.054a3,3,0,1,1-.593,5.935,3,3,0,0,0,0-5.876,3.01,3.01,0,0,1,.593-.059Z" transform="translate(-56.358 -419.054)" fill="#65788e" fill-rule="evenodd"/>
          </g>
          <g id="Grupo_1158050" data-name="Grupo 1158050" transform="translate(17.434 2.224)">
            <circle id="Elipse_11579" data-name="Elipse 11579" cx="2.997" cy="2.997" r="2.997" transform="matrix(0.16, -0.987, 0.987, 0.16, 0, 5.916)" fill="#8192a5"/>
            <path id="Trazado_992182" data-name="Trazado 992182" d="M187.513,419.054a3,3,0,1,1-.593,5.935,3,3,0,0,0,0-5.876,3.01,3.01,0,0,1,.593-.059Z" transform="translate(-184.067 -418.606)" fill="#65788e" fill-rule="evenodd"/>
          </g>
          <g id="Grupo_1158051" data-name="Grupo 1158051" transform="translate(32.197 1.746)">
            <circle id="Elipse_11580" data-name="Elipse 11580" cx="2.997" cy="2.997" r="2.997" transform="translate(0 2.296) rotate(-22.514)" fill="#8192a5"/>
            <path id="Trazado_992183" data-name="Trazado 992183" d="M315.673,419.054a3,3,0,1,1-.593,5.935,3,3,0,0,0,0-5.876,3.01,3.01,0,0,1,.593-.059Z" transform="translate(-311.778 -418.128)" fill="#65788e" fill-rule="evenodd"/>
          </g>
          <g id="Grupo_1158052" data-name="Grupo 1158052" transform="translate(48.307 2.672)">
            <circle id="Elipse_11581" data-name="Elipse 11581" cx="2.997" cy="2.997" r="2.997" transform="translate(0 0)" fill="#8192a5"/>
            <path id="Trazado_992184" data-name="Trazado 992184" d="M443.833,419.054a3,3,0,1,1-.593,5.935,3,3,0,0,0,0-5.876,3.01,3.01,0,0,1,.593-.059Z" transform="translate(-440.837 -419.054)" fill="#65788e" fill-rule="evenodd"/>
          </g>
        </g>
        <g id="Grupo_1158054" data-name="Grupo 1158054" transform="translate(0.525 5.761)">
          <path id="Trazado_992185" data-name="Trazado 992185" d="M37.253,64.948A11.979,11.979,0,0,1,40.76,66.4l2.279-1.012,2.686,2.686-1.012,2.278a11.981,11.981,0,0,1,1.454,3.508l2.325.895v3.8l-2.326.9a11.982,11.982,0,0,1-1.454,3.507l1.012,2.279-2.686,2.686-2.278-1.012a11.981,11.981,0,0,1-3.508,1.454l-.895,2.325h-3.8l-.9-2.326a11.981,11.981,0,0,1-3.507-1.454l-2.279,1.012-2.686-2.686L24.2,82.959a11.982,11.982,0,0,1-1.454-3.508l-2.325-.895v-3.8l2.325-.9A11.976,11.976,0,0,1,24.2,70.354l-1.012-2.279,2.686-2.686L28.156,66.4a11.982,11.982,0,0,1,3.507-1.454l.9-2.326h3.8Z" transform="translate(-20.424 -62.622)" fill="#ffe177" fill-rule="evenodd"/>
          <path id="Trazado_992186" data-name="Trazado 992186" d="M80.242,65.729l.765-.34,2.686,2.686-1.012,2.278a11.978,11.978,0,0,1,1.454,3.508l2.325.895v3.8l-2.326.9a11.978,11.978,0,0,1-1.454,3.507l1.012,2.279-2.686,2.686-.765-.34,2.346-2.346-1.012-2.279a11.979,11.979,0,0,0,1.454-3.507l2.326-.9v-3.8l-2.325-.895a11.981,11.981,0,0,0-1.454-3.508l1.012-2.278Zm-16.736,0,.34-.34L66.125,66.4q-.242.134-.477.279Zm11.715-.782A11.979,11.979,0,0,1,78.728,66.4l-.628.279a15.667,15.667,0,0,0-3.985-1.733l-.9-2.326h1.105Zm-9.1,21.963-2.279,1.012-.34-.34,2.142-.951Q65.883,86.777,66.125,86.911Zm12.6,0a11.98,11.98,0,0,1-3.508,1.454l-.895,2.325H73.221l.895-2.325A15.67,15.67,0,0,0,78.1,86.632Z" transform="translate(-58.392 -62.622)" fill="#ffd064" fill-rule="evenodd"/>
          <circle id="Elipse_11582" data-name="Elipse 11582" cx="7.157" cy="7.157" r="7.157" transform="translate(3.909 14.034) rotate(-45)" fill="#eceff1"/>
          <path id="Trazado_992187" data-name="Trazado 992187" d="M85.518,120.559c.163,0,.325.006.485.017a7.157,7.157,0,0,0,0,14.281c-.16.011-.322.017-.485.017a7.157,7.157,0,0,1,0-14.315Z" transform="translate(-71.484 -113.682)" fill="#d1d1d6" fill-rule="evenodd"/>
        </g>
      </g>
      <path id="Trazado_992188" data-name="Trazado 992188" d="M23.508,24.118a5.675,5.675,0,1,1-5.675,5.675,5.682,5.682,0,0,1,5.675-5.675Zm0,13.249a7.574,7.574,0,1,0-7.573-7.575A7.583,7.583,0,0,0,23.508,37.367Zm18.53-23.879a1.305,1.305,0,1,1,1.306,1.305A1.306,1.306,0,0,1,42.038,13.488ZM60.254,63.109A2.048,2.048,0,1,1,62.3,61.061,2.05,2.05,0,0,1,60.254,63.109Zm0-5.994A3.947,3.947,0,1,0,64.2,61.061,3.952,3.952,0,0,0,60.254,57.115ZM45.042,63.109a2.048,2.048,0,1,1,2.047-2.048A2.05,2.05,0,0,1,45.042,63.109Zm0-5.994a3.947,3.947,0,1,0,3.946,3.946A3.952,3.952,0,0,0,45.042,57.115ZM29.83,63.109a2.048,2.048,0,1,1,2.047-2.048A2.05,2.05,0,0,1,29.83,63.109Zm0-5.994a3.947,3.947,0,1,0,3.946,3.946A3.952,3.952,0,0,0,29.83,57.115ZM14.618,63.109a2.048,2.048,0,1,1,2.048-2.048A2.05,2.05,0,0,1,14.618,63.109Zm0-5.994a3.947,3.947,0,1,0,3.946,3.946A3.951,3.951,0,0,0,14.618,57.115ZM25.41,64.059a.949.949,0,0,1-.949.95H19.988a.95.95,0,1,1,0-1.9h4.473A.949.949,0,0,1,25.41,64.059Zm15.212,0a.949.949,0,0,1-.95.95H35.2a.95.95,0,0,1,0-1.9h4.473A.949.949,0,0,1,40.622,64.059Zm15.212-5.994a.95.95,0,0,1-.95.95H50.412a.95.95,0,1,1,0-1.9h4.472A.949.949,0,0,1,55.833,58.064Zm-30.424,0a.949.949,0,0,1-.949.95H19.988a.95.95,0,1,1,0-1.9h4.473A.949.949,0,0,1,25.41,58.064Zm30.424,5.994a.949.949,0,0,1-.95.95H50.412a.95.95,0,1,1,0-1.9h4.472A.949.949,0,0,1,55.833,64.059ZM40.622,58.064a.95.95,0,0,1-.95.95H35.2a.95.95,0,0,1,0-1.9h4.473A.949.949,0,0,1,40.622,58.064Zm19.632,7.716a4.719,4.719,0,0,0,0-9.439H14.618a4.719,4.719,0,0,0,0,9.439Zm-46.121-12a.66.66,0,0,1,.659-.659H29.877a.66.66,0,0,1,.659.659v.66H14.618c-.164,0-.325.008-.485.02Zm2.332-12.367.682-.3A12.879,12.879,0,0,0,20,42.3l.721,1.87a.947.947,0,0,0,.885.609h3.8a.865.865,0,0,0,.134-.011l1.709,6.459h-10.2Zm-3.09-3.253,1.764,1.764,1.683-.748a.953.953,0,0,1,.884.06,11,11,0,0,0,3.229,1.338.947.947,0,0,1,.666.583l.661,1.718h2.5l.661-1.717a.951.951,0,0,1,.666-.583,11.006,11.006,0,0,0,3.231-1.339.948.948,0,0,1,.883-.059l1.682.747,1.764-1.764L32.9,36.48a.95.95,0,0,1,.059-.884,11.039,11.039,0,0,0,1.339-3.229.948.948,0,0,1,.581-.666l1.718-.661V28.545l-1.717-.661a.95.95,0,0,1-.583-.666,11.013,11.013,0,0,0-1.339-3.23.949.949,0,0,1-.059-.883l.747-1.682-1.764-1.764-1.683.747a.949.949,0,0,1-.883-.059,11.014,11.014,0,0,0-3.23-1.339.95.95,0,0,1-.666-.583l-.661-1.717h-2.5L21.6,18.425a.946.946,0,0,1-.666.583,11.033,11.033,0,0,0-3.23,1.339.948.948,0,0,1-.883.059l-1.683-.747-1.764,1.764.747,1.683a.95.95,0,0,1-.059.883,11.01,11.01,0,0,0-1.339,3.229.952.952,0,0,1-.583.666l-1.718.661v2.495l1.718.66a.951.951,0,0,1,.581.666,11,11,0,0,0,1.34,3.23.951.951,0,0,1,.059.884Zm29.968-27.2a2.529,2.529,0,1,0,2.529,2.529A2.532,2.532,0,0,0,43.343,10.959ZM51.3,22.908l-6.143-5.383a4.458,4.458,0,0,0,2.084-1.939l5.483,5.884A3.92,3.92,0,0,0,51.3,22.908Zm3.383-.07a1.991,1.991,0,1,0,1.991,1.991,1.994,1.994,0,0,0-1.991-1.991Zm5.573,11.453a5.579,5.579,0,0,1-1.492,3.8V34.2a.951.951,0,0,0-.475-.823l-3.2-1.846a.953.953,0,0,0-.95,0l-3.2,1.846a.949.949,0,0,0-.475.823v3.736a5.571,5.571,0,1,1,9.786-3.643Zm-24.81-13.75-2.686-2.686a.944.944,0,0,0-.381-.231l6.543-3.886a4.433,4.433,0,0,0,2.221,3.59L35.4,22.139l.24-.541A.949.949,0,0,0,35.446,20.541Zm3.035,25.768h1.437v3.144a.949.949,0,0,0,.95.949h3.359a.949.949,0,0,0,.95-.949V46.309h1.438v8.134H38.482V46.309Zm3.336,0V48.5h1.46V46.309Zm10.786,0h1.438v3.144a.949.949,0,0,0,.949.949h3.36a.95.95,0,0,0,.95-.949V46.309h1.437v8.154c-.16-.012-.322-.02-.485-.02H52.6Zm3.336,0V48.5H57.4V46.309Zm6.217,8.414h.479V45.36a.949.949,0,0,0-.949-.95H51.655a.949.949,0,0,0-.95.95v9.083H48.515V45.36a.949.949,0,0,0-.95-.95H37.532a.949.949,0,0,0-.95.95v9.083H32.435v-.66a2.561,2.561,0,0,0-2.558-2.558h-.662l-2.3-8.679.095-.247a12.891,12.891,0,0,0,2.858-1.185l1.833.814a.95.95,0,0,0,1.056-.2l2.686-2.686a.95.95,0,0,0,.2-1.057l-.814-1.833A12.871,12.871,0,0,0,36.014,33.3l1.871-.72a.951.951,0,0,0,.608-.887v-3.8a.95.95,0,0,0-.608-.886l-1.87-.72a13.082,13.082,0,0,0-.6-1.682l7.639-6.4L50.8,24.991a3.873,3.873,0,0,0,.978,2.419,7.472,7.472,0,0,0-.831,13.35.95.95,0,0,0,1.426-.822V34.746l2.248-1.3,2.248,1.3v5.268a.949.949,0,0,0,1.405.833,7.472,7.472,0,0,0-.678-13.436,3.889,3.889,0,0,0-2.766-6.469l-7.06-7.577A4.425,4.425,0,0,0,39.6,11.128L28.414,17.769a12.777,12.777,0,0,0-1.4-.482l-.719-1.87a.95.95,0,0,0-.887-.609h-3.8a.946.946,0,0,0-.885.609L20,17.287a12.93,12.93,0,0,0-2.857,1.185l-1.832-.814a.952.952,0,0,0-1.058.2l-2.686,2.686a.948.948,0,0,0-.2,1.057l.813,1.832A12.933,12.933,0,0,0,11,26.287l-1.87.72a.95.95,0,0,0-.609.886v3.8a.95.95,0,0,0,.609.886L11,33.3a12.9,12.9,0,0,0,1.185,2.858l-.813,1.832a.947.947,0,0,0,.2,1.057l2.686,2.686a.961.961,0,0,0,.339.216l.555,9.278h-.359a2.561,2.561,0,0,0-2.558,2.558v1.106A6.618,6.618,0,0,0,14.618,67.68H60.254a6.618,6.618,0,0,0,1.9-12.957Z" fill="#242222" fill-rule="evenodd"/>
    </g>
  </g>
</svg>
