<svg xmlns="http://www.w3.org/2000/svg" xmlns:xlink="http://www.w3.org/1999/xlink" width="108" height="108" viewBox="0 0 108 108">
  <defs>
    <filter id="Trazado_982549" x="0" y="0" width="108" height="108" filterUnits="userSpaceOnUse">
      <feOffset dy="3" input="SourceAlpha"/>
      <feGaussianBlur stdDeviation="3" result="blur"/>
      <feFlood flood-opacity="0.161"/>
      <feComposite operator="in" in2="blur"/>
      <feComposite in="SourceGraphic"/>
    </filter>
  </defs>
  <g id="Grupo_1158157" data-name="Grupo 1158157" transform="translate(-199 -8244)">
    <g id="Grupo_1157482" data-name="Grupo 1157482" transform="translate(-249 7538)">
      <g id="Grupo_1149030" data-name="Grupo 1149030" transform="translate(-173 371)">
        <g id="Grupo_1146639" data-name="Grupo 1146639" transform="translate(420 -822)">
          <g transform="matrix(1, 0, 0, 1, 201, 1157)" filter="url(#Trazado_982549)">
            <g id="Trazado_982549-2" data-name="Trazado 982549" transform="translate(9 6)" fill="#faece9">
              <path d="M 45 88.5 C 39.12687683105469 88.5 33.43022537231445 87.35007476806641 28.06830024719238 85.08217620849609 C 22.88852500915527 82.89131164550781 18.23629951477051 79.75458526611328 14.2408504486084 75.75914764404297 C 10.24541282653809 71.76370239257812 7.108687400817871 67.11147308349609 4.917825222015381 61.93170166015625 C 2.649924993515015 56.56977462768555 1.5 50.87312316894531 1.5 45 C 1.5 39.12687683105469 2.649924993515015 33.43022537231445 4.917825222015381 28.06830024719238 C 7.108687400817871 22.88852500915527 10.24541282653809 18.23629951477051 14.2408504486084 14.2408504486084 C 18.23629951477051 10.24541282653809 22.88852500915527 7.108687400817871 28.06830024719238 4.917825222015381 C 33.43022537231445 2.649924993515015 39.12687683105469 1.5 45 1.5 C 50.87312316894531 1.5 56.56977462768555 2.649924993515015 61.93170166015625 4.917825222015381 C 67.11147308349609 7.108687400817871 71.76370239257812 10.24541282653809 75.75914764404297 14.2408504486084 C 79.75458526611328 18.23629951477051 82.89131164550781 22.88852500915527 85.08217620849609 28.06830024719238 C 87.35007476806641 33.43022537231445 88.5 39.12687683105469 88.5 45 C 88.5 50.87312316894531 87.35007476806641 56.56977462768555 85.08217620849609 61.93170166015625 C 82.89131164550781 67.11147308349609 79.75458526611328 71.76370239257812 75.75914764404297 75.75914764404297 C 71.76370239257812 79.75458526611328 67.11147308349609 82.89131164550781 61.93170166015625 85.08217620849609 C 56.56977462768555 87.35007476806641 50.87312316894531 88.5 45 88.5 Z" stroke="none"/>
              <path d="M 45 3 C 39.32871246337891 3 33.82865524291992 4.110054016113281 28.65262985229492 6.299339294433594 C 23.65165710449219 8.414573669433594 19.15968322753906 11.44334411621094 15.301513671875 15.301513671875 C 11.44334411621094 19.15968322753906 8.414573669433594 23.65165710449219 6.299339294433594 28.65262985229492 C 4.110054016113281 33.82865524291992 3 39.32871246337891 3 45 C 3 50.67128753662109 4.110054016113281 56.17134475708008 6.299339294433594 61.34737396240234 C 8.414573669433594 66.34834289550781 11.44334411621094 70.84031677246094 15.301513671875 74.698486328125 C 19.15968322753906 78.55665588378906 23.65165710449219 81.58542633056641 28.65262985229492 83.70066070556641 C 33.82865524291992 85.88994598388672 39.32871246337891 87 45 87 C 50.67128753662109 87 56.17134475708008 85.88994598388672 61.34737396240234 83.70066070556641 C 66.34834289550781 81.58542633056641 70.84031677246094 78.55665588378906 74.698486328125 74.698486328125 C 78.55665588378906 70.84031677246094 81.58542633056641 66.34834289550781 83.70066070556641 61.34737396240234 C 85.88994598388672 56.17134475708008 87 50.67128753662109 87 45 C 87 39.32871246337891 85.88994598388672 33.82865524291992 83.70066070556641 28.65262985229492 C 81.58542633056641 23.65165710449219 78.55665588378906 19.15968322753906 74.698486328125 15.301513671875 C 70.84031677246094 11.44334411621094 66.34834289550781 8.414573669433594 61.34737396240234 6.299339294433594 C 56.17134475708008 4.110054016113281 50.67128753662109 3 45 3 M 45 0 C 69.85281372070312 0 90 20.14718627929688 90 45 C 90 69.85281372070312 69.85281372070312 90 45 90 C 20.14718627929688 90 0 69.85281372070312 0 45 C 0 20.14718627929688 20.14718627929688 0 45 0 Z" stroke="none" fill="#f97c61"/>
            </g>
          </g>
        </g>
      </g>
    </g>
    <g id="rueda-dentada" transform="translate(225 8267)">
      <g id="Grupo_1158155" data-name="Grupo 1158155" transform="translate(0.919 0.919)">
        <g id="Grupo_1158143" data-name="Grupo 1158143" transform="translate(14.698 45.932)">
          <path id="Trazado_992462" data-name="Trazado 992462" d="M176.42,408v3.675c0,3.044-9.049,5.512-20.21,5.512S136,414.719,136,411.675V408c0,3.044,9.049,5.512,20.21,5.512S176.42,411.044,176.42,408Z" transform="translate(-136 -408)" fill="#aab2bd"/>
        </g>
        <g id="Grupo_1158144" data-name="Grupo 1158144" transform="translate(14.698 41.996)">
          <path id="Trazado_992463" data-name="Trazado 992463" d="M170.355,373.72c3.743,1,6.065,2.394,6.065,3.936,0,3.044-9.049,5.512-20.21,5.512S136,380.7,136,377.656c0-1.542,2.322-2.936,6.065-3.936l2.453,2.453,1.958-1.306a18.245,18.245,0,0,0,5.6,2.322l.46,2.3h7.349l.46-2.3a18.245,18.245,0,0,0,5.6-2.322l1.958,1.306Z" transform="translate(-136 -373.72)" fill="#ccd1d9"/>
        </g>
        <g id="Grupo_1158145" data-name="Grupo 1158145" transform="translate(18.019 7.349)">
          <path id="Trazado_992464" data-name="Trazado 992464" d="M202.019,88.536v7.349l-2.3.46a18.245,18.245,0,0,1-2.322,5.6L198.7,103.9l-2.744,2.744L193.5,109.1l-1.958-1.306a18.245,18.245,0,0,1-5.6,2.322l-.46,2.3h-7.349l-.46-2.3a18.245,18.245,0,0,1-5.6-2.322l-1.958,1.306-2.453-2.453L164.92,103.9l1.306-1.958a18.322,18.322,0,0,1-1.267-2.4,6.272,6.272,0,0,0,3.989-1.821h1.238a12.865,12.865,0,0,0,23.245,0h0a12.89,12.89,0,0,0,0-11.024h0a12.865,12.865,0,0,0-23.245,0h-1.238l-3.694-2.463a18.17,18.17,0,0,1,.971-1.759l-1.306-1.958,5.2-5.2,1.958,1.306a18.246,18.246,0,0,1,5.6-2.322l.46-2.3h7.349l.46,2.3a18.245,18.245,0,0,1,5.6,2.322l1.958-1.306,5.2,5.2-1.306,1.958a18.246,18.246,0,0,1,2.322,5.6Z" transform="translate(-164.92 -72)" fill="#fcd770"/>
        </g>
        <g id="Grupo_1158146" data-name="Grupo 1158146" transform="translate(22.047 22.047)">
          <path id="Trazado_992465" data-name="Trazado 992465" d="M224.484,200a12.89,12.89,0,0,1,0,11.024H200V200h24.483Z" transform="translate(-200 -200)" fill="#b4dd7f"/>
        </g>
        <g id="Grupo_1158147" data-name="Grupo 1158147" transform="translate(5.512 22.047)">
          <path id="Trazado_992466" data-name="Trazado 992466" d="M63.349,212.861V214.7a1.837,1.837,0,0,1-1.837,1.837H57.837A1.837,1.837,0,0,1,56,214.7v-1.837h1.837a1.837,1.837,0,0,0,0-3.675,1.837,1.837,0,0,0,0-3.675,1.837,1.837,0,0,0,0-3.675A1.837,1.837,0,0,0,59.675,200h3.675Z" transform="translate(-56 -200)" fill="#ccd1d9"/>
        </g>
        <g id="Grupo_1158148" data-name="Grupo 1158148">
          <path id="Trazado_992467" data-name="Trazado 992467" d="M26.373,13.512v3.675A5.512,5.512,0,0,1,20.861,22.7H13.512A5.512,5.512,0,0,1,8,17.186V13.512A5.512,5.512,0,0,1,13.512,8v5.512h7.349V8a5.512,5.512,0,0,1,5.512,5.512Z" transform="translate(-8 -8)" fill="#ccd1d9"/>
        </g>
        <g id="Grupo_1158149" data-name="Grupo 1158149" transform="translate(5.512 14.698)">
          <path id="Trazado_992468" data-name="Trazado 992468" d="M63.349,136v3.675H56.919a.917.917,0,0,0-.919.919V136Z" transform="translate(-56 -136)" fill="#ccd1d9"/>
        </g>
        <g id="Grupo_1158150" data-name="Grupo 1158150" transform="translate(5.512 18.373)">
          <path id="Trazado_992469" data-name="Trazado 992469" d="M63.349,171.675H58.756A2.755,2.755,0,0,1,56,168.919a.917.917,0,0,1,.919-.919h8.992a3.676,3.676,0,0,1,2.038.617l.892.595,3.694,2.463V182.7a6.273,6.273,0,0,1-3.989,1.821c-.148.01-.3.016-.447.016H63.349Z" transform="translate(-56 -168)" fill="#f0d0b4"/>
        </g>
        <g id="Grupo_1158151" data-name="Grupo 1158151" transform="translate(1.837 27.559)">
          <path id="Trazado_992470" data-name="Trazado 992470" d="M29.512,248a1.837,1.837,0,1,1,0,3.675H25.837a1.837,1.837,0,1,1,0-3.675Z" transform="translate(-24 -248)" fill="#f0d0b4"/>
        </g>
        <g id="Grupo_1158152" data-name="Grupo 1158152" transform="translate(1.837 31.234)">
          <path id="Trazado_992471" data-name="Trazado 992471" d="M29.512,280a1.837,1.837,0,1,1,0,3.675H25.837a1.837,1.837,0,1,1,0-3.675Z" transform="translate(-24 -280)" fill="#f0d0b4"/>
        </g>
        <g id="Grupo_1158153" data-name="Grupo 1158153" transform="translate(1.837 23.885)">
          <path id="Trazado_992472" data-name="Trazado 992472" d="M29.512,216a1.837,1.837,0,1,1,0,3.675H25.837a1.837,1.837,0,1,1,0-3.675Z" transform="translate(-24 -216)" fill="#f0d0b4"/>
        </g>
        <g id="Grupo_1158154" data-name="Grupo 1158154" transform="translate(1.837 20.21)">
          <path id="Trazado_992473" data-name="Trazado 992473" d="M30.431,185.837h.919a1.837,1.837,0,0,1-1.837,1.837H25.837a1.837,1.837,0,1,1,0-3.675h1.995A2.758,2.758,0,0,0,30.431,185.837Z" transform="translate(-24 -184)" fill="#f0d0b4"/>
        </g>
      </g>
      <g id="Grupo_1158156" data-name="Grupo 1158156" transform="translate(0 0)">
        <ellipse id="Elipse_11591" data-name="Elipse 11591" cx="1.435" cy="0.957" rx="1.435" ry="0.957" transform="translate(34.452 11.02)"/>
        <path id="Trazado_992474" data-name="Trazado 992474" d="M203.1,138.177a.919.919,0,1,0,.65.269A.916.916,0,0,0,203.1,138.177Z" transform="translate(-178.961 -122.31)"/>
        <path id="Trazado_992475" data-name="Trazado 992475" d="M203.1,341.823a.919.919,0,1,0,.65.269A.916.916,0,0,0,203.1,341.823Z" transform="translate(-178.961 -302.571)"/>
        <ellipse id="Elipse_11592" data-name="Elipse 11592" cx="1.435" cy="0.957" rx="1.435" ry="0.957" transform="translate(34.452 43.558)"/>
        <path id="Trazado_992476" data-name="Trazado 992476" d="M406.742,341.823a.919.919,0,1,0,.65.269A.916.916,0,0,0,406.742,341.823Z" transform="translate(-359.222 -302.571)"/>
        <circle id="Elipse_11593" data-name="Elipse 11593" cx="0.957" cy="0.957" r="0.957" transform="translate(51.678 27.289)"/>
        <path id="Trazado_992477" data-name="Trazado 992477" d="M406.742,138.177a.919.919,0,1,0,.65.269A.916.916,0,0,0,406.742,138.177Z" transform="translate(-359.222 -122.31)"/>
        <path id="Trazado_992478" data-name="Trazado 992478" d="M56.956,32.906V24.05l-2.471-.494A19.136,19.136,0,0,0,52.5,18.768l1.4-2.1-6.262-6.262-2.1,1.4A19.131,19.131,0,0,0,40.749,9.82l-.494-2.471H31.4L30.905,9.82a19.14,19.14,0,0,0-4.788,1.986l-2.1-1.4-6.262,6.262,1.4,2.1c-.078.133-.153.267-.227.4l-.038-.026a4.579,4.579,0,0,0-2.548-.771H14.7v-1.9a6.44,6.44,0,0,0,5.512-6.364V6.43A6.438,6.438,0,0,0,13.78,0h-.919V5.512H7.349V0H6.43A6.438,6.438,0,0,0,0,6.43v3.675a6.44,6.44,0,0,0,5.512,6.364V20.21H4.593A2.754,2.754,0,0,0,2.541,24.8a2.749,2.749,0,0,0,0,3.675,2.749,2.749,0,0,0,0,3.675,2.754,2.754,0,0,0,2.052,4.593h.919v.919A2.759,2.759,0,0,0,8.268,40.42h3.675A2.759,2.759,0,0,0,14.7,37.664v-.919h3.7c.233.49.487.973.761,1.442l-1.4,2.1,2.186,2.186C16.5,43.613,14.7,45.112,14.7,46.851v3.675c0,4.222,10.629,6.431,21.129,6.431s21.129-2.209,21.129-6.431V46.851c0-1.738-1.806-3.238-5.244-4.377L53.9,40.287l-1.4-2.1A19.136,19.136,0,0,0,54.485,33.4ZM7.349,18.373V16.536h5.512v1.837ZM1.837,10.105V6.43a4.6,4.6,0,0,1,3.675-4.5v5.42H14.7V1.93a4.6,4.6,0,0,1,3.675,4.5v3.675A4.6,4.6,0,0,1,13.78,14.7H6.43A4.6,4.6,0,0,1,1.837,10.105ZM4.593,22.047H6.006a3.683,3.683,0,0,0,2.565,1.785.912.912,0,0,1-.3.052H4.593a.919.919,0,1,1,0-1.837Zm-.919,8.268a.92.92,0,0,1,.919-.919H8.268a.919.919,0,1,1,0,1.837H4.593A.92.92,0,0,1,3.675,30.315Zm0-3.675a.92.92,0,0,1,.919-.919H8.268a.919.919,0,1,1,0,1.837H4.593A.92.92,0,0,1,3.675,26.641Zm0,7.349a.92.92,0,0,1,.919-.919H8.268a.919.919,0,0,1,0,1.837H4.593A.92.92,0,0,1,3.675,33.99Zm8.268,4.593H8.268a.92.92,0,0,1-.919-.919v-.919h.919a2.754,2.754,0,0,0,2.052-4.593,2.749,2.749,0,0,0,0-3.675,2.749,2.749,0,0,0,0-3.675,2.758,2.758,0,0,0,.546-.919h2v13.78A.92.92,0,0,1,11.942,38.583ZM14.7,26.715a4.743,4.743,0,0,0,1.405.75l.141.047.581-1.743-.142-.047A2.9,2.9,0,0,1,14.7,22.966v-.919H9.186A1.839,1.839,0,0,1,7.349,20.21h8.992a2.747,2.747,0,0,1,1.529.463l4.177,2.785V33.59a5.314,5.314,0,0,1-3.517,1.319H14.7ZM46.85,33.071H23.885V23.885H46.85a11.935,11.935,0,0,1,0,9.186Zm-.964,1.837a11.938,11.938,0,0,1-20.121,0ZM25.765,22.047a11.938,11.938,0,0,1,20.121,0Zm-9.23,28.478v-.881a11.03,11.03,0,0,0,1.837.992v1.641C17.121,51.633,16.536,51,16.536,50.525Zm3.675,2.527V51.32c.579.185,1.193.357,1.837.516v1.772l-.269-.072Q20.92,53.3,20.21,53.053Zm12.861.178v1.837q-.93-.035-1.837-.093V53.139q.912.057,1.837.091Zm-3.675,1.6q-.937-.087-1.837-.2V52.808q.9.108,1.837.192Zm-3.675-.46q-.949-.153-1.837-.335v-1.8q.892.174,1.837.319Zm9.186.741V53.276q.459.006.919.006t.919-.006v1.837q-.457.006-.919.006T34.908,55.113Zm12.861-2.874v1.8q-.887.182-1.837.335V52.558Q46.876,52.413,47.769,52.239Zm-3.675,2.393q-.9.112-1.837.2V53q.932-.084,1.837-.192Zm-3.675.342q-.907.058-1.837.093V53.23q.924-.034,1.837-.091Zm9.186-1.366V51.836c.644-.159,1.258-.331,1.837-.516v1.732q-.711.249-1.568.484l-.269.072Zm3.675-1.33V50.637a11.03,11.03,0,0,0,1.837-.992v.881C55.119,51,54.533,51.633,53.281,52.279Zm1.837-5.428c0,.787-1.621,2.024-5.242,3.011a55.864,55.864,0,0,1-14.049,1.582,55.864,55.864,0,0,1-14.049-1.582c-3.621-.988-5.242-2.224-5.242-3.011,0-.764,1.514-1.939,4.876-2.908l2.606,2.606,2.1-1.4a19.136,19.136,0,0,0,4.788,1.986l.494,2.471h8.855l.494-2.471a19.136,19.136,0,0,0,4.788-1.986l2.1,1.4,2.606-2.606c3.362.969,4.876,2.144,4.876,2.908ZM52.837,32.408a17.315,17.315,0,0,1-2.205,5.317l-.315.5,1.217,1.825L47.4,44.185l-1.825-1.217-.5.315a17.317,17.317,0,0,1-5.317,2.205l-.579.133-.43,2.148H32.906l-.43-2.148-.579-.133a17.316,17.316,0,0,1-5.317-2.205l-.5-.315-1.825,1.217L20.12,40.053l1.217-1.825-.315-.5c-.246-.392-.475-.8-.689-1.207a7.13,7.13,0,0,0,3-1.609h.307a13.782,13.782,0,1,0,0-12.861h-.394l-2.781-1.854c.177-.327.363-.649.559-.962l.315-.5L20.12,16.9l4.132-4.132,1.825,1.217.5-.315A17.317,17.317,0,0,1,31.9,11.468l.579-.133.43-2.148h5.843l.43,2.148.579.133a17.319,17.319,0,0,1,5.317,2.205l.5.315L47.4,12.771,51.534,16.9l-1.217,1.825.315.5a17.316,17.316,0,0,1,2.205,5.317l.133.579,2.148.43V31.4l-2.148.43Z" transform="translate(0 0)"/>
      </g>
    </g>
  </g>
</svg>
