<svg xmlns="http://www.w3.org/2000/svg" xmlns:xlink="http://www.w3.org/1999/xlink" width="108" height="108" viewBox="0 0 108 108">
  <defs>
    <filter id="Trazado_982549" x="0" y="0" width="108" height="108" filterUnits="userSpaceOnUse">
      <feOffset dy="3" input="SourceAlpha"/>
      <feGaussianBlur stdDeviation="3" result="blur"/>
      <feFlood flood-opacity="0.161"/>
      <feComposite operator="in" in2="blur"/>
      <feComposite in="SourceGraphic"/>
    </filter>
  </defs>
  <g id="Grupo_1158163" data-name="Grupo 1158163" transform="translate(-171 -9198)">
    <g id="Grupo_1157498" data-name="Grupo 1157498" transform="translate(-277 8492)">
      <g id="Grupo_1149030" data-name="Grupo 1149030" transform="translate(-173 371)">
        <g id="Grupo_1146639" data-name="Grupo 1146639" transform="translate(420 -822)">
          <g transform="matrix(1, 0, 0, 1, 201, 1157)" filter="url(#Trazado_982549)">
            <g id="Trazado_982549-2" data-name="Trazado 982549" transform="translate(9 6)" fill="#faece9">
              <path d="M 45 88.5 C 39.12687683105469 88.5 33.43022537231445 87.35007476806641 28.06830024719238 85.08217620849609 C 22.88852500915527 82.89131164550781 18.23629951477051 79.75458526611328 14.2408504486084 75.75914764404297 C 10.24541282653809 71.76370239257812 7.108687400817871 67.11147308349609 4.917825222015381 61.93170166015625 C 2.649924993515015 56.56977462768555 1.5 50.87312316894531 1.5 45 C 1.5 39.12687683105469 2.649924993515015 33.43022537231445 4.917825222015381 28.06830024719238 C 7.108687400817871 22.88852500915527 10.24541282653809 18.23629951477051 14.2408504486084 14.2408504486084 C 18.23629951477051 10.24541282653809 22.88852500915527 7.108687400817871 28.06830024719238 4.917825222015381 C 33.43022537231445 2.649924993515015 39.12687683105469 1.5 45 1.5 C 50.87312316894531 1.5 56.56977462768555 2.649924993515015 61.93170166015625 4.917825222015381 C 67.11147308349609 7.108687400817871 71.76370239257812 10.24541282653809 75.75914764404297 14.2408504486084 C 79.75458526611328 18.23629951477051 82.89131164550781 22.88852500915527 85.08217620849609 28.06830024719238 C 87.35007476806641 33.43022537231445 88.5 39.12687683105469 88.5 45 C 88.5 50.87312316894531 87.35007476806641 56.56977462768555 85.08217620849609 61.93170166015625 C 82.89131164550781 67.11147308349609 79.75458526611328 71.76370239257812 75.75914764404297 75.75914764404297 C 71.76370239257812 79.75458526611328 67.11147308349609 82.89131164550781 61.93170166015625 85.08217620849609 C 56.56977462768555 87.35007476806641 50.87312316894531 88.5 45 88.5 Z" stroke="none"/>
              <path d="M 45 3 C 39.32871246337891 3 33.82865524291992 4.110054016113281 28.65262985229492 6.299339294433594 C 23.65165710449219 8.414573669433594 19.15968322753906 11.44334411621094 15.301513671875 15.301513671875 C 11.44334411621094 19.15968322753906 8.414573669433594 23.65165710449219 6.299339294433594 28.65262985229492 C 4.110054016113281 33.82865524291992 3 39.32871246337891 3 45 C 3 50.67128753662109 4.110054016113281 56.17134475708008 6.299339294433594 61.34737396240234 C 8.414573669433594 66.34834289550781 11.44334411621094 70.84031677246094 15.301513671875 74.698486328125 C 19.15968322753906 78.55665588378906 23.65165710449219 81.58542633056641 28.65262985229492 83.70066070556641 C 33.82865524291992 85.88994598388672 39.32871246337891 87 45 87 C 50.67128753662109 87 56.17134475708008 85.88994598388672 61.34737396240234 83.70066070556641 C 66.34834289550781 81.58542633056641 70.84031677246094 78.55665588378906 74.698486328125 74.698486328125 C 78.55665588378906 70.84031677246094 81.58542633056641 66.34834289550781 83.70066070556641 61.34737396240234 C 85.88994598388672 56.17134475708008 87 50.67128753662109 87 45 C 87 39.32871246337891 85.88994598388672 33.82865524291992 83.70066070556641 28.65262985229492 C 81.58542633056641 23.65165710449219 78.55665588378906 19.15968322753906 74.698486328125 15.301513671875 C 70.84031677246094 11.44334411621094 66.34834289550781 8.414573669433594 61.34737396240234 6.299339294433594 C 56.17134475708008 4.110054016113281 50.67128753662109 3 45 3 M 45 0 C 69.85281372070312 0 90 20.14718627929688 90 45 C 90 69.85281372070312 69.85281372070312 90 45 90 C 20.14718627929688 90 0 69.85281372070312 0 45 C 0 20.14718627929688 20.14718627929688 0 45 0 Z" stroke="none" fill="#f97c61"/>
            </g>
          </g>
        </g>
      </g>
    </g>
    <g id="Artboard501" transform="translate(188.017 9203.277)">
      <g id="Grupo_1158162" data-name="Grupo 1158162" transform="translate(6.983 16.723)">
        <g id="Grupo_1158161" data-name="Grupo 1158161" transform="translate(0.907 1.529)">
          <g id="Grupo_1158158" data-name="Grupo 1158158" transform="translate(0 11.476)">
            <path id="Trazado_992479" data-name="Trazado 992479" d="M318.353,164.526l-.016-10.889c0-2.044.267-3.964,1.785-5.332a66.27,66.27,0,0,0,7.136-6.635,2.617,2.617,0,0,1,3.621,0,2.534,2.534,0,0,1,0,3.621l.806-.991a5.873,5.873,0,0,0,1.41-3.849l-.04-10.484c-.031-8.149,5.95-5.89,6.028-3.142l.547,19.3a6.028,6.028,0,0,1-1.845,4.572l-8.729,8.729v5.1a1.784,1.784,0,0,1-1.78,1.78h-7.142a1.784,1.784,0,0,1-1.78-1.777Z" transform="translate(-281.603 -124.302)" fill="#f6dccd" fill-rule="evenodd"/>
            <path id="Trazado_992480" data-name="Trazado 992480" d="M379.125,271.835a2.585,2.585,0,0,1-.381,3.152c-1.424,1.433-2.858,2.858-4.287,4.287a.98.98,0,0,1-1.386-1.386Z" transform="translate(-329.469 -253.999)" fill="#f1cbbc" fill-rule="evenodd"/>
            <path id="Trazado_992481" data-name="Trazado 992481" d="M318.353,316.692l-.016-10.889c0-2.044.267-3.964,1.785-5.332.905-.816,2.207-1.857,3.584-3.077V318.47h-3.572A1.784,1.784,0,0,1,318.353,316.692Z" transform="translate(-281.603 -276.468)" fill="#f1cbbc" fill-rule="evenodd"/>
            <path id="Trazado_992482" data-name="Trazado 992482" d="M293.582,437.957l15.171.13a1.338,1.338,0,0,1,1.322,1.345l-.025,2.92a1.338,1.338,0,0,1-1.345,1.322l-15.171-.13a1.338,1.338,0,0,1-1.322-1.345l.025-2.921a1.338,1.338,0,0,1,1.345-1.322Z" transform="translate(-258.636 -400.038)" fill="#d1d1d6" fill-rule="evenodd"/>
            <path id="Trazado_992483" data-name="Trazado 992483" d="M303.831,439.09l2.685.023,2.655.023a1.338,1.338,0,0,1,1.322,1.341l.009-1.043a1.338,1.338,0,0,0-1.322-1.345l-2.664-.023-5.35-.046-5.356-.046-1.8-.015a1.339,1.339,0,0,0-1.312,1.037l3.118.027,5.35.046,2.664.023Z" transform="translate(-259.064 -400.039)" fill="#b1b1b5" fill-rule="evenodd"/>
            <path id="Trazado_992484" data-name="Trazado 992484" d="M35.765,164.526l.016-10.889c0-2.044-.267-3.964-1.785-5.332a66.267,66.267,0,0,1-7.136-6.635,2.617,2.617,0,0,0-3.621,0,2.533,2.533,0,0,0,0,3.621l-.806-.991a5.874,5.874,0,0,1-1.41-3.849l.04-10.484c.031-8.149-5.951-5.89-6.028-3.142l-.547,19.3a6.028,6.028,0,0,0,1.845,4.572l8.729,8.729v5.1a1.783,1.783,0,0,0,1.78,1.78h7.142a1.783,1.783,0,0,0,1.78-1.777Z" transform="translate(-14.486 -124.302)" fill="#f6dccd" fill-rule="evenodd"/>
            <path id="Trazado_992485" data-name="Trazado 992485" d="M80.993,271.835a2.585,2.585,0,0,0,.381,3.152c1.424,1.433,2.858,2.858,4.287,4.287a.98.98,0,0,0,1.386-1.386Z" transform="translate(-72.621 -253.999)" fill="#f1cbbc" fill-rule="evenodd"/>
            <path id="Trazado_992486" data-name="Trazado 992486" d="M151.578,316.692l.016-10.889c0-2.044-.267-3.964-1.785-5.332-.905-.816-2.207-1.857-3.584-3.077V318.47H149.8A1.783,1.783,0,0,0,151.578,316.692Z" transform="translate(-130.3 -276.468)" fill="#f1cbbc" fill-rule="evenodd"/>
            <path id="Trazado_992487" data-name="Trazado 992487" d="M85.491,437.957l-15.171.13A1.338,1.338,0,0,0,69,439.432l.025,2.92a1.338,1.338,0,0,0,1.345,1.322l15.171-.13a1.338,1.338,0,0,0,1.322-1.345l-.025-2.921a1.338,1.338,0,0,0-1.345-1.322Z" transform="translate(-62.408 -400.038)" fill="#d1d1d6" fill-rule="evenodd"/>
            <path id="Trazado_992488" data-name="Trazado 992488" d="M75.67,439.09l-2.685.023-2.655.023a1.338,1.338,0,0,0-1.322,1.341L69,439.433a1.338,1.338,0,0,1,1.322-1.345l2.664-.023,5.35-.046,5.356-.046,1.8-.015a1.339,1.339,0,0,1,1.312,1.037l-3.118.027-5.35.046-2.664.023Z" transform="translate(-62.408 -400.039)" fill="#b1b1b5" fill-rule="evenodd"/>
          </g>
          <g id="Grupo_1158159" data-name="Grupo 1158159" transform="translate(14.072)">
            <path id="Trazado_992489" data-name="Trazado 992489" d="M146.555,29.526l13.384,5.736a1.352,1.352,0,0,1,.835,1.267V47.7c0,8.867-6.35,15.714-14.942,17.213-8.592-1.5-14.942-8.346-14.942-17.213V36.529a1.352,1.352,0,0,1,.835-1.267l13.384-5.736a1.779,1.779,0,0,1,1.446,0Z" transform="translate(-130.89 -29.372)" fill="#6cf5c2" fill-rule="evenodd"/>
            <path id="Trazado_992490" data-name="Trazado 992490" d="M361.146,73.778l1.213.521a1.352,1.352,0,0,1,.835,1.267V86.74a17.145,17.145,0,0,1-2.048,8.227Z" transform="translate(-333.309 -68.41)" fill="#00e499" fill-rule="evenodd"/>
          </g>
          <g id="Grupo_1158160" data-name="Grupo 1158160" transform="translate(20.435 9.127)">
            <path id="Trazado_992491" data-name="Trazado 992491" d="M189.426,110.773v-5.3a.6.6,0,0,1,.6-.6H194.3a.6.6,0,0,1,.6.6v5.3h5.3a.6.6,0,0,1,.6.6v4.266a.6.6,0,0,1-.6.6h-5.3v5.3a.6.6,0,0,1-.6.6h-4.266a.6.6,0,0,1-.6-.6v-5.3h-5.3a.6.6,0,0,1-.6-.6v-4.266a.6.6,0,0,1,.6-.6Z" transform="translate(-183.519 -104.866)" fill="#fe646f" fill-rule="evenodd"/>
            <path id="Trazado_992492" data-name="Trazado 992492" d="M185.332,116.248h-1.209a.6.6,0,0,1-.6-.6v-4.266a.6.6,0,0,1,.6-.6h1.209a.6.6,0,0,0-.6.6v4.266a.6.6,0,0,0,.6.6Zm4.094-5.475v-5.3a.6.6,0,0,1,.6-.6h1.209a.6.6,0,0,0-.6.6v5.3Zm1.813,11.382h-1.209a.6.6,0,0,1-.6-.6v-5.3h1.209v5.3a.6.6,0,0,0,.6.6Z" transform="translate(-183.519 -104.866)" fill="#fd4755" fill-rule="evenodd"/>
          </g>
        </g>
        <path id="Trazado_992493" data-name="Trazado 992493" d="M56.382,66.806l1.4.012h.01a2.313,2.313,0,0,1,2.276,2.323v.01s-.029,2.909-.029,2.908a2.3,2.3,0,0,1-2.322,2.276L42.59,74.207A2.307,2.307,0,0,1,40.3,71.9s0-.006,0-.01.029-2.909.029-2.908a2.323,2.323,0,0,1,2.309-2.29h.008l1.121.01-.011-7.608h0c0-2.311.38-4.483,2.1-6.03a66.278,66.278,0,0,0,7.035-6.532.963.963,0,0,1,.089-.092,3.565,3.565,0,0,1,4.942.031,4.071,4.071,0,0,1,.454.53,4.951,4.951,0,0,0,.111-1.055l-.043-10.464h0c-.013-3.823,1.277-5.621,2.624-6.283a3.652,3.652,0,0,1,3.525.245,3.611,3.611,0,0,1,1.8,2.865l.557,19.262s0,0,0,0a7.042,7.042,0,0,1-2.121,5.273l0,0-8.44,8.427ZM45.7,66.715l8.749.074V64.872a.967.967,0,0,1,.284-.684l8.722-8.707a5.166,5.166,0,0,0,1.561-3.862l-.557-19.259v0a1.653,1.653,0,0,0-.874-1.27c-1.378-.846-3.219-.035-3.2,4.382l.043,10.466v0a6.815,6.815,0,0,1-1.63,4.451l0,0-.714.871-.022.026h0c-1.384,1.571-2.868,2.9-4.41,4.442a.967.967,0,0,1-1.368-1.368c1.5-1.5,2.952-2.8,4.3-4.325a1.572,1.572,0,0,0-.014-2.2l-.005,0a1.638,1.638,0,0,0-2.237,0,69.23,69.23,0,0,1-7.167,6.662l0,0c-1.3,1.167-1.463,2.848-1.463,4.591Zm-3.066,1.908h0a.371.371,0,0,0-.368.361s0,.006,0,.01-.028,2.906-.028,2.911a.368.368,0,0,0,.361.368H42.6l15.135.129h.011a.351.351,0,0,0,.356-.347v-.009s.029-2.906.028-2.911a.387.387,0,0,0-.376-.382Zm2.53,1.489a1.1,1.1,0,1,1-2.042.814,1.1,1.1,0,1,1,2.042-.814ZM17.537,66.806V65.273L9.111,56.846a6.987,6.987,0,0,1-2.125-5.276v0L7.528,32.3v0a3.629,3.629,0,0,1,1.807-2.863,3.66,3.66,0,0,1,3.528-.244c1.347.662,2.638,2.46,2.625,6.283h0l-.043,10.466v.006A4.728,4.728,0,0,0,15.551,47a4.05,4.05,0,0,1,.456-.533,3.568,3.568,0,0,1,4.946-.034.978.978,0,0,1,.091.095,63.627,63.627,0,0,0,7.031,6.528c1.726,1.547,2.106,3.72,2.106,6.032h0L30.169,66.7l1.121-.01H31.3a2.329,2.329,0,0,1,2.309,2.276s0,.006,0,.01l.029,2.913v.01a2.323,2.323,0,0,1-2.29,2.309l-15.127.128a2.307,2.307,0,0,1-2.337-2.262s0-.01,0-.014-.014-2.907-.014-2.9a2.307,2.307,0,0,1,2.262-2.338h.011Zm10.7-.091.011-7.627c0-1.744-.162-3.425-1.463-4.591h0a66.514,66.514,0,0,1-7.172-6.666,1.633,1.633,0,0,0-2.231,0l-.01.01a1.572,1.572,0,0,0-.014,2.2c1.351,1.53,2.8,2.824,4.291,4.328a.967.967,0,1,1-1.374,1.361c-1.527-1.542-3.01-2.868-4.393-4.439h0l-.016-.019-.728-.871-.013-.016a6.8,6.8,0,0,1-1.611-4.451l.043-10.464c.008-2.4-.484-3.766-1.285-4.379a1.673,1.673,0,0,0-1.924,0,1.669,1.669,0,0,0-.883,1.273L8.919,51.618a5.115,5.115,0,0,0,1.559,3.86l8.71,8.71a.967.967,0,0,1,.283.684V66.79ZM31.3,68.624l-15.141.129a.369.369,0,0,0-.358.371s0,.009,0,.014.014,2.9.014,2.907a.369.369,0,0,0,.371.358h.01l15.136-.129h.008A.371.371,0,0,0,31.7,71.9s-.028-2.9-.029-2.9a.383.383,0,0,0-.373-.372Zm-.488,1.489a1.1,1.1,0,1,1-1.428-.614A1.089,1.089,0,0,1,30.813,70.112Zm6.535-52.747,14.877,6.377a.967.967,0,0,1,.586.889v12.03A18.337,18.337,0,0,1,37.676,54.655l-.542.095a.964.964,0,0,1-.333,0l-.542-.095A18.337,18.337,0,0,1,21.123,36.661V24.631a.967.967,0,0,1,.586-.889l14.877-6.377A.967.967,0,0,1,37.348,17.366Zm-.381,1.941-13.91,5.962V36.661A16.4,16.4,0,0,0,36.591,52.75l.376.066.376-.066A16.4,16.4,0,0,0,50.877,36.661V25.269Zm-3.7,13.014v-4.94a.967.967,0,0,1,.967-.967H39.7a.967.967,0,0,1,.967.967v4.94h4.94a.967.967,0,0,1,.967.967v5.475a.967.967,0,0,1-.967.967h-4.94v4.94a.967.967,0,0,1-.967.967H34.229a.967.967,0,0,1-.967-.967v-4.94h-4.94a.967.967,0,0,1-.967-.967V33.288a.967.967,0,0,1,.967-.967Zm.967,1.934h-4.94V37.8h4.94a.967.967,0,0,1,.967.967V43.7h3.541v-4.94A.967.967,0,0,1,39.7,37.8h4.94V34.256H39.7a.967.967,0,0,1-.967-.967v-4.94H35.2v4.94a.967.967,0,0,1-.967.967ZM16.9,20.14a.967.967,0,1,1-1.934,0V17.69a.967.967,0,0,1,1.934,0Zm-3.053,1.119a.967.967,0,1,1,0,1.934H11.4a.967.967,0,1,1,0-1.934Zm1.119,3.053a.967.967,0,0,1,1.934,0v2.45a.967.967,0,1,1-1.934,0Zm3.053-1.119a.967.967,0,1,1,0-1.934h2.45a.967.967,0,1,1,0,1.934ZM59.19,20.14a.967.967,0,1,1-1.934,0V17.69a.967.967,0,1,1,1.934,0Zm-3.053,1.119a.967.967,0,1,1,0,1.934h-2.45a.967.967,0,0,1,0-1.934Zm1.119,3.053a.967.967,0,1,1,1.934,0v2.45a.967.967,0,1,1-1.934,0Zm3.053-1.119a.967.967,0,0,1,0-1.934h2.45a.967.967,0,1,1,0,1.934Z" transform="translate(-6.983 -16.723)" fill-rule="evenodd"/>
      </g>
    </g>
  </g>
</svg>
