<svg xmlns="http://www.w3.org/2000/svg" xmlns:xlink="http://www.w3.org/1999/xlink" width="108" height="108" viewBox="0 0 108 108">
  <defs>
    <filter id="Trazado_982549" x="0" y="0" width="108" height="108" filterUnits="userSpaceOnUse">
      <feOffset dy="3" input="SourceAlpha"/>
      <feGaussianBlur stdDeviation="3" result="blur"/>
      <feFlood flood-opacity="0.161"/>
      <feComposite operator="in" in2="blur"/>
      <feComposite in="SourceGraphic"/>
    </filter>
  </defs>
  <g id="Grupo_1158194" data-name="Grupo 1158194" transform="translate(-618 -9948)">
    <g id="Grupo_1158167" data-name="Grupo 1158167">
      <g id="Grupo_1157502" data-name="Grupo 1157502" transform="translate(170 9242)">
        <g id="Grupo_1149030" data-name="Grupo 1149030" transform="translate(-173 371)">
          <g id="Grupo_1146639" data-name="Grupo 1146639" transform="translate(420 -822)">
            <g transform="matrix(1, 0, 0, 1, 201, 1157)" filter="url(#Trazado_982549)">
              <g id="Trazado_982549-2" data-name="Trazado 982549" transform="translate(9 6)" fill="#eafbf9">
                <path d="M 45 88.5 C 39.12687683105469 88.5 33.43022537231445 87.35007476806641 28.06830024719238 85.08217620849609 C 22.88852500915527 82.89131164550781 18.23629951477051 79.75458526611328 14.2408504486084 75.75914764404297 C 10.24541282653809 71.76370239257812 7.108687400817871 67.11147308349609 4.917825222015381 61.93170166015625 C 2.649924993515015 56.56977462768555 1.5 50.87312316894531 1.5 45 C 1.5 39.12687683105469 2.649924993515015 33.43022537231445 4.917825222015381 28.06830024719238 C 7.108687400817871 22.88852500915527 10.24541282653809 18.23629951477051 14.2408504486084 14.2408504486084 C 18.23629951477051 10.24541282653809 22.88852500915527 7.108687400817871 28.06830024719238 4.917825222015381 C 33.43022537231445 2.649924993515015 39.12687683105469 1.5 45 1.5 C 50.87312316894531 1.5 56.56977462768555 2.649924993515015 61.93170166015625 4.917825222015381 C 67.11147308349609 7.108687400817871 71.76370239257812 10.24541282653809 75.75914764404297 14.2408504486084 C 79.75458526611328 18.23629951477051 82.89131164550781 22.88852500915527 85.08217620849609 28.06830024719238 C 87.35007476806641 33.43022537231445 88.5 39.12687683105469 88.5 45 C 88.5 50.87312316894531 87.35007476806641 56.56977462768555 85.08217620849609 61.93170166015625 C 82.89131164550781 67.11147308349609 79.75458526611328 71.76370239257812 75.75914764404297 75.75914764404297 C 71.76370239257812 79.75458526611328 67.11147308349609 82.89131164550781 61.93170166015625 85.08217620849609 C 56.56977462768555 87.35007476806641 50.87312316894531 88.5 45 88.5 Z" stroke="none"/>
                <path d="M 45 3 C 39.32871246337891 3 33.82865524291992 4.110054016113281 28.65262985229492 6.299339294433594 C 23.65165710449219 8.414573669433594 19.15968322753906 11.44334411621094 15.301513671875 15.301513671875 C 11.44334411621094 19.15968322753906 8.414573669433594 23.65165710449219 6.299339294433594 28.65262985229492 C 4.110054016113281 33.82865524291992 3 39.32871246337891 3 45 C 3 50.67128753662109 4.110054016113281 56.17134475708008 6.299339294433594 61.34737396240234 C 8.414573669433594 66.34834289550781 11.44334411621094 70.84031677246094 15.301513671875 74.698486328125 C 19.15968322753906 78.55665588378906 23.65165710449219 81.58542633056641 28.65262985229492 83.70066070556641 C 33.82865524291992 85.88994598388672 39.32871246337891 87 45 87 C 50.67128753662109 87 56.17134475708008 85.88994598388672 61.34737396240234 83.70066070556641 C 66.34834289550781 81.58542633056641 70.84031677246094 78.55665588378906 74.698486328125 74.698486328125 C 78.55665588378906 70.84031677246094 81.58542633056641 66.34834289550781 83.70066070556641 61.34737396240234 C 85.88994598388672 56.17134475708008 87 50.67128753662109 87 45 C 87 39.32871246337891 85.88994598388672 33.82865524291992 83.70066070556641 28.65262985229492 C 81.58542633056641 23.65165710449219 78.55665588378906 19.15968322753906 74.698486328125 15.301513671875 C 70.84031677246094 11.44334411621094 66.34834289550781 8.414573669433594 61.34737396240234 6.299339294433594 C 56.17134475708008 4.110054016113281 50.67128753662109 3 45 3 M 45 0 C 69.85281372070312 0 90 20.14718627929688 90 45 C 90 69.85281372070312 69.85281372070312 90 45 90 C 20.14718627929688 90 0 69.85281372070312 0 45 C 0 20.14718627929688 20.14718627929688 0 45 0 Z" stroke="none" fill="#3cddca"/>
              </g>
            </g>
          </g>
        </g>
      </g>
    </g>
    <g id="bombilla_2_" data-name="bombilla (2)" transform="translate(613.67 9966.999)">
      <g id="Grupo_1158192" data-name="Grupo 1158192" transform="translate(29.359 0.839)">
        <path id="Trazado_992543" data-name="Trazado 992543" d="M119.067,6.622a19.8,19.8,0,0,0-10.088,36.863,3.407,3.407,0,0,1,1.662,2.936v4.824a1.61,1.61,0,0,1,.623-.125h15.553a1.612,1.612,0,0,1,.623.125V46.42a3.442,3.442,0,0,1,1.7-2.956A19.8,19.8,0,0,0,119.067,6.622Z" transform="translate(-90.414 -6.622)" fill="#ffe07d"/>
        <g id="Grupo_1158184" data-name="Grupo 1158184" transform="translate(8.823)">
          <path id="Trazado_992544" data-name="Trazado 992544" d="M115.875,46.421a3.407,3.407,0,0,0-1.662-2.936,19.805,19.805,0,0,1,7.449-36.69,19.805,19.805,0,0,0-12.683,36.69,3.407,3.407,0,0,1,1.662,2.936v4.824a1.61,1.61,0,0,1,.623-.125h4.611Z" transform="translate(-99.237 -6.622)" fill="#ffc250"/>
        </g>
        <g id="Grupo_1158185" data-name="Grupo 1158185" transform="translate(34.666 5.338)">
          <path id="Trazado_992545" data-name="Trazado 992545" d="M311.093,59.364a13.765,13.765,0,0,0-7.244-8.786.95.95,0,1,1,.836-1.705,15.664,15.664,0,0,1,8.242,10,.95.95,0,1,1-1.835.492Z" transform="translate(-303.317 -48.776)" fill="#ffeac8"/>
        </g>
        <path id="Trazado_992546" data-name="Trazado 992546" d="M225.341,467.843v.7a3.835,3.835,0,1,0,7.67,0v-.7Z" transform="translate(-200.549 -409.439)" fill="#8479c2"/>
        <path id="Trazado_992547" data-name="Trazado 992547" d="M228.773,468.538v-.7H225.34v.7a3.846,3.846,0,0,0,3.835,3.835,3.8,3.8,0,0,0,1.717-.409A3.846,3.846,0,0,1,228.773,468.538Z" transform="translate(-200.548 -409.438)" fill="#6e60b8"/>
        <g id="Grupo_1158186" data-name="Grupo 1158186" transform="translate(0 18.347)">
          <path id="Trazado_992548" data-name="Trazado 992548" d="M33.776,153.407H30.509a.95.95,0,0,1,0-1.9h3.267a.95.95,0,0,1,0,1.9Z" transform="translate(-29.559 -151.508)" fill="#ffc250"/>
        </g>
        <g id="Grupo_1158187" data-name="Grupo 1158187" transform="translate(1.482 11.222)">
          <path id="Trazado_992549" data-name="Trazado 992549" d="M44.927,98.243l-3.055-1.159a.95.95,0,0,1,.674-1.776L45.6,96.467a.95.95,0,1,1-.674,1.776Z" transform="translate(-41.26 -95.246)" fill="#ffc250"/>
        </g>
        <g id="Grupo_1158188" data-name="Grupo 1158188" transform="translate(1.482 24.312)">
          <path id="Trazado_992550" data-name="Trazado 992550" d="M41.322,201.058a.95.95,0,0,1,.551-1.225l3.055-1.159a.95.95,0,1,1,.674,1.776l-3.055,1.159A.95.95,0,0,1,41.322,201.058Z" transform="translate(-41.26 -198.612)" fill="#ffc250"/>
        </g>
        <g id="Grupo_1158189" data-name="Grupo 1158189" transform="translate(52.087 18.347)">
          <path id="Trazado_992551" data-name="Trazado 992551" d="M445.111,153.407h-3.267a.95.95,0,1,1,0-1.9h3.267a.95.95,0,0,1,0,1.9Z" transform="translate(-440.894 -151.508)" fill="#ffc250"/>
        </g>
        <g id="Grupo_1158190" data-name="Grupo 1158190" transform="translate(50.817 11.222)">
          <path id="Trazado_992552" data-name="Trazado 992552" d="M430.93,97.692a.95.95,0,0,1,.551-1.225l3.055-1.159a.95.95,0,1,1,.674,1.776l-3.055,1.159A.95.95,0,0,1,430.93,97.692Z" transform="translate(-430.868 -95.246)" fill="#ffc250"/>
        </g>
        <g id="Grupo_1158191" data-name="Grupo 1158191" transform="translate(50.817 24.312)">
          <path id="Trazado_992553" data-name="Trazado 992553" d="M434.536,201.609l-3.055-1.159a.95.95,0,0,1,.674-1.776l3.055,1.159a.95.95,0,1,1-.674,1.776Z" transform="translate(-430.869 -198.612)" fill="#ffc250"/>
        </g>
        <path id="Trazado_992554" data-name="Trazado 992554" d="M205.866,430.987H192.844a1.65,1.65,0,0,0-1.648,1.648v1.4a1.65,1.65,0,0,0,1.648,1.648h13.022a1.65,1.65,0,0,0,1.648-1.648v-1.4A1.65,1.65,0,0,0,205.866,430.987Z" transform="translate(-170.728 -377.25)" fill="#efecef"/>
        <path id="Trazado_992555" data-name="Trazado 992555" d="M205.866,441.439H192.844a1.65,1.65,0,0,1-1.578-1.175,1.642,1.642,0,0,0-.07.473v1.4a1.65,1.65,0,0,0,1.648,1.648h13.022a1.65,1.65,0,0,0,1.648-1.648v-1.4a1.642,1.642,0,0,0-.07-.473A1.65,1.65,0,0,1,205.866,441.439Z" transform="translate(-170.728 -385.352)" fill="#e2dfe2"/>
        <path id="Trazado_992556" data-name="Trazado 992556" d="M198.4,394.381H182.85a1.65,1.65,0,0,0-1.648,1.648v1.4a1.65,1.65,0,0,0,1.648,1.648H198.4a1.65,1.65,0,0,0,1.648-1.648v-1.4A1.65,1.65,0,0,0,198.4,394.381Z" transform="translate(-162 -345.279)" fill="#efecef"/>
        <path id="Trazado_992557" data-name="Trazado 992557" d="M198.4,404.832H182.85a1.65,1.65,0,0,1-1.578-1.175,1.641,1.641,0,0,0-.07.473v1.4a1.65,1.65,0,0,0,1.648,1.648H198.4a1.65,1.65,0,0,0,1.648-1.648v-1.4a1.641,1.641,0,0,0-.07-.473A1.65,1.65,0,0,1,198.4,404.832Z" transform="translate(-162 -353.381)" fill="#e2dfe2"/>
        <path id="Trazado_992558" data-name="Trazado 992558" d="M198.4,357.775H182.85a1.65,1.65,0,0,0-1.648,1.648v1.4a1.65,1.65,0,0,0,1.648,1.648H198.4a1.65,1.65,0,0,0,1.648-1.648v-1.4A1.65,1.65,0,0,0,198.4,357.775Z" transform="translate(-162 -313.309)" fill="#efecef"/>
        <path id="Trazado_992559" data-name="Trazado 992559" d="M198.4,368.227H182.85a1.65,1.65,0,0,1-1.578-1.175,1.641,1.641,0,0,0-.07.473v1.4a1.65,1.65,0,0,0,1.648,1.648H198.4a1.65,1.65,0,0,0,1.648-1.648v-1.4a1.641,1.641,0,0,0-.07-.473A1.65,1.65,0,0,1,198.4,368.227Z" transform="translate(-162 -321.411)" fill="#e2dfe2"/>
      </g>
      <g id="Grupo_1158193" data-name="Grupo 1158193" transform="translate(29.33 0.001)">
        <path id="Trazado_992560" data-name="Trazado 992560" d="M304.456,48.774a.95.95,0,1,0-.836,1.705,13.765,13.765,0,0,1,7.244,8.786.95.95,0,0,0,1.835-.492A15.664,15.664,0,0,0,304.456,48.774Z" transform="translate(-268.422 -42.513)"/>
        <path id="Trazado_992561" data-name="Trazado 992561" d="M34.5,152.36a.95.95,0,0,0-.95-.95H30.28a.95.95,0,0,0,0,1.9h3.267A.95.95,0,0,0,34.5,152.36Z" transform="translate(-29.33 -132.237)"/>
        <path id="Trazado_992562" data-name="Trazado 992562" d="M45.372,96.368l-3.055-1.159a.95.95,0,0,0-.674,1.776L44.7,98.144a.95.95,0,1,0,.674-1.776Z" transform="translate(-39.549 -83.098)"/>
        <path id="Trazado_992563" data-name="Trazado 992563" d="M44.7,198.576l-3.055,1.159a.95.95,0,1,0,.674,1.776l3.055-1.159a.95.95,0,1,0-.674-1.776Z" transform="translate(-39.55 -173.376)"/>
        <path id="Trazado_992564" data-name="Trazado 992564" d="M444.882,151.41h-3.267a.95.95,0,1,0,0,1.9h3.267a.95.95,0,0,0,0-1.9Z" transform="translate(-388.578 -132.237)"/>
        <path id="Trazado_992565" data-name="Trazado 992565" d="M431.927,98.145l3.055-1.159a.95.95,0,0,0-.674-1.776l-3.055,1.159a.95.95,0,1,0,.674,1.776Z" transform="translate(-379.823 -83.099)"/>
        <path id="Trazado_992566" data-name="Trazado 992566" d="M434.981,199.735l-3.055-1.159a.95.95,0,1,0-.674,1.776l3.055,1.159a.95.95,0,1,0,.674-1.776Z" transform="translate(-379.822 -173.376)"/>
        <path id="Trazado_992567" data-name="Trazado 992567" d="M266.243,1.894a18.8,18.8,0,0,1,16.565,16.142.95.95,0,1,0,1.882-.259A20.762,20.762,0,0,0,266.453.007a.95.95,0,0,0-.21,1.888Z" transform="translate(-235.505 -0.001)"/>
        <path id="Trazado_992568" data-name="Trazado 992568" d="M132.072,21.4a.952.952,0,0,0-1.027.865,18.889,18.889,0,0,1-9.171,14.594,4.414,4.414,0,0,0-2.161,3.773V44.38h-4.019V36.83a1.992,1.992,0,0,1,.414-1.212l1.359-1.76a3.9,3.9,0,0,0,.81-2.373V24.619a.95.95,0,0,0,0-1.9v-.1a.95.95,0,0,0-1.9,0v.1H108.15v-.1a.95.95,0,0,0-1.9,0v.1a.95.95,0,0,0,0,1.9v6.867a3.9,3.9,0,0,0,.81,2.373l1.359,1.76a1.993,1.993,0,0,1,.414,1.212v7.55h-4.019V40.63a4.372,4.372,0,0,0-2.129-3.754A18.855,18.855,0,0,1,110.153,1.9a.95.95,0,0,0-.211-1.888,20.754,20.754,0,0,0-8.223,38.5,2.465,2.465,0,0,1,1.2,2.119v4.292a2.561,2.561,0,0,0-.994,2.023v1.4a2.553,2.553,0,0,0,.576,1.616,2.553,2.553,0,0,0-.576,1.616v1.4a2.566,2.566,0,0,0,1.442,2.3,2.55,2.55,0,0,0-.177.929v1.4a2.569,2.569,0,0,0,2.566,2.566h1.733a4.785,4.785,0,0,0,9.556,0h1.733a2.569,2.569,0,0,0,2.566-2.566v-1.4a2.55,2.55,0,0,0-.177-.929,2.567,2.567,0,0,0,1.442-2.3v-1.4a2.553,2.553,0,0,0-.576-1.616,2.553,2.553,0,0,0,.576-1.616v-1.4a2.56,2.56,0,0,0-.994-2.023V40.63a2.507,2.507,0,0,1,1.232-2.14,20.793,20.793,0,0,0,10.094-16.066.95.95,0,0,0-.865-1.027ZM108.564,32.7a1.993,1.993,0,0,1-.413-1.212V24.619h8.226v6.867a1.991,1.991,0,0,1-.413,1.212l-1.359,1.76a3.9,3.9,0,0,0-.81,2.373v7.55h-3.061V36.83a3.9,3.9,0,0,0-.81-2.373Zm3.7,30.119a2.889,2.889,0,0,1-2.874-2.631h5.749A2.889,2.889,0,0,1,112.263,62.817Zm7.177-5.2a.667.667,0,0,1-.667.667H105.752a.667.667,0,0,1-.667-.667v-1.4a.667.667,0,0,1,.667-.667h13.022a.667.667,0,0,1,.667.667Zm1.266-4.635a.667.667,0,0,1-.667.667H104.487a.667.667,0,0,1-.667-.667v-1.4a.667.667,0,0,1,.667-.667h15.553a.667.667,0,0,1,.667.667Zm0-4.635a.667.667,0,0,1-.667.667H104.487a.667.667,0,0,1-.667-.667v-1.4a.672.672,0,0,1,.667-.667h15.553a.671.671,0,0,1,.667.667Z" transform="translate(-83.636 -0.006)"/>
      </g>
    </g>
  </g>
</svg>
