<svg xmlns="http://www.w3.org/2000/svg" xmlns:xlink="http://www.w3.org/1999/xlink" width="108" height="108" viewBox="0 0 108 108">
  <defs>
    <filter id="Trazado_982549" x="0" y="0" width="108" height="108" filterUnits="userSpaceOnUse">
      <feOffset dy="3" input="SourceAlpha"/>
      <feGaussianBlur stdDeviation="3" result="blur"/>
      <feFlood flood-opacity="0.161"/>
      <feComposite operator="in" in2="blur"/>
      <feComposite in="SourceGraphic"/>
    </filter>
  </defs>
  <g id="Grupo_1158173" data-name="Grupo 1158173" transform="translate(-171 -11058)">
    <g id="Grupo_1158014" data-name="Grupo 1158014" transform="translate(-277 10352)">
      <g id="Grupo_1149030" data-name="Grupo 1149030" transform="translate(-173 371)">
        <g id="Grupo_1146639" data-name="Grupo 1146639" transform="translate(420 -822)">
          <g transform="matrix(1, 0, 0, 1, 201, 1157)" filter="url(#Trazado_982549)">
            <g id="Trazado_982549-2" data-name="Trazado 982549" transform="translate(9 6)" fill="#faece9">
              <path d="M 45 88.5 C 39.12687683105469 88.5 33.43022537231445 87.35007476806641 28.06830024719238 85.08217620849609 C 22.88852500915527 82.89131164550781 18.23629951477051 79.75458526611328 14.2408504486084 75.75914764404297 C 10.24541282653809 71.76370239257812 7.108687400817871 67.11147308349609 4.917825222015381 61.93170166015625 C 2.649924993515015 56.56977462768555 1.5 50.87312316894531 1.5 45 C 1.5 39.12687683105469 2.649924993515015 33.43022537231445 4.917825222015381 28.06830024719238 C 7.108687400817871 22.88852500915527 10.24541282653809 18.23629951477051 14.2408504486084 14.2408504486084 C 18.23629951477051 10.24541282653809 22.88852500915527 7.108687400817871 28.06830024719238 4.917825222015381 C 33.43022537231445 2.649924993515015 39.12687683105469 1.5 45 1.5 C 50.87312316894531 1.5 56.56977462768555 2.649924993515015 61.93170166015625 4.917825222015381 C 67.11147308349609 7.108687400817871 71.76370239257812 10.24541282653809 75.75914764404297 14.2408504486084 C 79.75458526611328 18.23629951477051 82.89131164550781 22.88852500915527 85.08217620849609 28.06830024719238 C 87.35007476806641 33.43022537231445 88.5 39.12687683105469 88.5 45 C 88.5 50.87312316894531 87.35007476806641 56.56977462768555 85.08217620849609 61.93170166015625 C 82.89131164550781 67.11147308349609 79.75458526611328 71.76370239257812 75.75914764404297 75.75914764404297 C 71.76370239257812 79.75458526611328 67.11147308349609 82.89131164550781 61.93170166015625 85.08217620849609 C 56.56977462768555 87.35007476806641 50.87312316894531 88.5 45 88.5 Z" stroke="none"/>
              <path d="M 45 3 C 39.32871246337891 3 33.82865524291992 4.110054016113281 28.65262985229492 6.299339294433594 C 23.65165710449219 8.414573669433594 19.15968322753906 11.44334411621094 15.301513671875 15.301513671875 C 11.44334411621094 19.15968322753906 8.414573669433594 23.65165710449219 6.299339294433594 28.65262985229492 C 4.110054016113281 33.82865524291992 3 39.32871246337891 3 45 C 3 50.67128753662109 4.110054016113281 56.17134475708008 6.299339294433594 61.34737396240234 C 8.414573669433594 66.34834289550781 11.44334411621094 70.84031677246094 15.301513671875 74.698486328125 C 19.15968322753906 78.55665588378906 23.65165710449219 81.58542633056641 28.65262985229492 83.70066070556641 C 33.82865524291992 85.88994598388672 39.32871246337891 87 45 87 C 50.67128753662109 87 56.17134475708008 85.88994598388672 61.34737396240234 83.70066070556641 C 66.34834289550781 81.58542633056641 70.84031677246094 78.55665588378906 74.698486328125 74.698486328125 C 78.55665588378906 70.84031677246094 81.58542633056641 66.34834289550781 83.70066070556641 61.34737396240234 C 85.88994598388672 56.17134475708008 87 50.67128753662109 87 45 C 87 39.32871246337891 85.88994598388672 33.82865524291992 83.70066070556641 28.65262985229492 C 81.58542633056641 23.65165710449219 78.55665588378906 19.15968322753906 74.698486328125 15.301513671875 C 70.84031677246094 11.44334411621094 66.34834289550781 8.414573669433594 61.34737396240234 6.299339294433594 C 56.17134475708008 4.110054016113281 50.67128753662109 3 45 3 M 45 0 C 69.85281372070312 0 90 20.14718627929688 90 45 C 90 69.85281372070312 69.85281372070312 90 45 90 C 20.14718627929688 90 0 69.85281372070312 0 45 C 0 20.14718627929688 20.14718627929688 0 45 0 Z" stroke="none" fill="#f97c61"/>
            </g>
          </g>
        </g>
      </g>
    </g>
    <g id="casco_2_" data-name="casco (2)" transform="translate(195 11079.005)">
      <g id="Grupo_1158171" data-name="Grupo 1158171" transform="translate(0.929 0.924)">
        <path id="Trazado_992505" data-name="Trazado 992505" d="M30.347,321.776l-5.256-5.256L19.606,322a8.324,8.324,0,1,0,5.26,5.253ZM18.793,333.649H15.076l-2.787-3.717,2.787-3.717h3.717l2.787,3.717Z" transform="translate(-8.572 -280.687)" fill="#fdc069"/>
        <g id="Grupo_1158168" data-name="Grupo 1158168">
          <path id="Trazado_992506" data-name="Trazado 992506" d="M339.635,343.573l-1.745,1.746a8.365,8.365,0,0,1-8.809-10.986l-4.557-4.557,5.256-5.256,4.557,4.557a8.365,8.365,0,0,1,10.986,8.809l-1.746,1.746-3.783-4.487h-4.646v4.646Z" transform="translate(-287.761 -287.758)" fill="#fdc069"/>
          <path id="Trazado_992507" data-name="Trazado 992507" d="M9.791,13.733,8.045,15.478a8.365,8.365,0,0,0,10.986,8.809l4.557,4.557,5.256-5.256-4.557-4.557A8.365,8.365,0,0,0,15.478,8.045L13.733,9.791l4.486,3.783v4.646H13.574Z" transform="translate(-7.999 -7.998)" fill="#fdc069"/>
          <path id="Trazado_992508" data-name="Trazado 992508" d="M343.573,13.733l1.746,1.745a8.365,8.365,0,0,1-10.986,8.809l-4.557,4.557-5.256-5.256,4.557-4.557a8.365,8.365,0,0,1,8.809-10.986l1.746,1.746-4.487,3.783v4.646h4.646Z" transform="translate(-287.758 -7.998)" fill="#fdc069"/>
        </g>
        <g id="Grupo_1158170" data-name="Grupo 1158170" transform="translate(6.504 12.079)">
          <path id="Trazado_992509" data-name="Trazado 992509" d="M120.883,151.229H80l1.314-10.952A13.937,13.937,0,0,1,95.152,128H105.73a13.937,13.937,0,0,1,13.838,12.276Z" transform="translate(-78.142 -126.142)" fill="#1448b0"/>
          <g id="Grupo_1158169" data-name="Grupo 1158169">
            <path id="Trazado_992510" data-name="Trazado 992510" d="M201.974,112h9.059a1.974,1.974,0,0,1,1.974,1.974v22.217H200V113.974A1.974,1.974,0,0,1,201.974,112Z" transform="translate(-184.204 -112)" fill="#2471d6"/>
            <path id="Trazado_992511" data-name="Trazado 992511" d="M108.6,292.759,86.3,288,64,292.759l.929,3.6,21.37,1.858,21.37-1.858Z" transform="translate(-64 -267.559)" fill="#2471d6"/>
          </g>
        </g>
      </g>
      <g id="Grupo_1158172" data-name="Grupo 1158172" transform="translate(0 -0.005)">
        <path id="Trazado_992512" data-name="Trazado 992512" d="M32.186,397.209l2.787,3.717a.929.929,0,0,0,.743.372h3.717a.929.929,0,0,0,.743-.372l2.787-3.717a.929.929,0,0,0,0-1.115l-2.787-3.717a.929.929,0,0,0-.743-.372H35.717a.929.929,0,0,0-.743.372l-2.787,3.717A.929.929,0,0,0,32.186,397.209Zm4-3.345h2.787l2.091,2.787-2.091,2.787H36.181l-2.091-2.787Z" transform="translate(-28.283 -346.476)"/>
        <path id="Trazado_992513" data-name="Trazado 992513" d="M9.271,18.586a9.344,9.344,0,0,0,2.427-.322l1.187,1.187a14.914,14.914,0,0,0-3.2,7.577L9.6,27.76l1.845.221.088-.732A13.01,13.01,0,0,1,22.3,15.969V34.082L10.4,36.621l.814-6.781-1.845-.221-.889,7.412L7.239,37.3a.929.929,0,0,0-.706,1.141l.689,2.674A9.269,9.269,0,1,0,18.272,47.76L22.1,43.935l7.555.657c.027,0,.054,0,.08,0s.054,0,.08,0L32.6,44.35,32.44,42.5l-2.707.235L9.291,40.957v-.077l-.209,0-.508-1.97L29.733,34.4l21.158,4.515-.523,2.028-16.07,1.4.161,1.851,2.91-.253L41.2,47.764a9.317,9.317,0,0,0-.085,4.47l1.812-.411a7.458,7.458,0,0,1,.2-4.027.929.929,0,0,0-.224-.952l-3.118-3.118L51,42.75l0,.033a7.434,7.434,0,0,1,6.6,7.853l-.79.79-3.131-3.713a.929.929,0,0,0-.71-.33H48.316a.929.929,0,0,0-.929.929v4.646a.929.929,0,0,0,.33.71L51.43,56.8l-.79.79a7.446,7.446,0,0,1-7.127-4.115l-1.665.826a9.305,9.305,0,0,0,8.316,5.162,9.443,9.443,0,0,0,.989-.052.929.929,0,0,0,.56-.267L53.459,57.4A.929.929,0,0,0,53.4,56.03l-4.156-3.5V49.241H52.53l3.5,4.156a.929.929,0,0,0,1.367.058l1.746-1.746a.93.93,0,0,0,.267-.559,9.292,9.292,0,0,0-7.172-10.038l.69-2.675a.929.929,0,0,0-.706-1.141l-1.244-.265-1.2-10a14.913,14.913,0,0,0-3.2-7.577l1.187-1.187A9.294,9.294,0,0,0,59.414,8.308a.93.93,0,0,0-.267-.56L57.4,6a.929.929,0,0,0-1.367.058l-3.5,4.156H49.245V6.932l4.156-3.5a.929.929,0,0,0,.058-1.367L51.713.315a.929.929,0,0,0-.56-.267A9.294,9.294,0,0,0,41.2,11.694l-2.661,2.661a14.755,14.755,0,0,0-1.517-.287,2.909,2.909,0,0,0-2.757-1.992H25.2a2.909,2.909,0,0,0-2.757,1.992,14.749,14.749,0,0,0-1.517.287l-2.662-2.661a9.352,9.352,0,0,0-.717-6.668L15.9,5.878a7.48,7.48,0,0,1,.438,5.784.929.929,0,0,0,.224.952l2.377,2.377a14.911,14.911,0,0,0-4.8,3.089l-1.524-1.524a.929.929,0,0,0-.953-.224A7.435,7.435,0,0,1,1.873,8.822l.79-.79,3.131,3.713a.929.929,0,0,0,.71.329H11.15a.929.929,0,0,0,.929-.929V6.5a.929.929,0,0,0-.33-.71L8.036,2.659l.79-.79a7.4,7.4,0,0,1,5.721,2.163c.1.1.194.2.285.3l1.384-1.24c-.114-.128-.234-.254-.355-.375A9.257,9.257,0,0,0,8.311.048a.929.929,0,0,0-.56.267L6.006,2.06a.929.929,0,0,0,.058,1.367l4.156,3.5v3.285H6.936l-3.5-4.156A.929.929,0,0,0,2.064,6L.318,7.748a.93.93,0,0,0-.267.56,9.3,9.3,0,0,0,9.22,10.279ZM8.644,42.765l11.036.96-3.114,3.114a.929.929,0,0,0-.224.952,7.438,7.438,0,1,1-7.7-5.026ZM42.9,12.615a.929.929,0,0,0,.224-.952,7.435,7.435,0,0,1,7.511-9.794l.79.79L47.717,5.79a.929.929,0,0,0-.33.71v4.646a.929.929,0,0,0,.929.929h4.646a.929.929,0,0,0,.71-.33L56.8,8.032l.79.79A7.435,7.435,0,0,1,47.8,16.333a.929.929,0,0,0-.953.224L45.322,18.08a14.911,14.911,0,0,0-4.8-3.089ZM24.158,14.979A1.046,1.046,0,0,1,25.2,13.933h9.059a1.046,1.046,0,0,1,1.045,1.045v8.246h1.858V15.969A13.01,13.01,0,0,1,47.937,27.25l1.125,9.371-11.9-2.539v-9H35.308v8.6l-5.381-1.148a.929.929,0,0,0-.388,0l-5.381,1.148Z" transform="translate(0 0.005)"/>
      </g>
    </g>
  </g>
</svg>
