<svg xmlns="http://www.w3.org/2000/svg" xmlns:xlink="http://www.w3.org/1999/xlink" width="108" height="108" viewBox="0 0 108 108">
  <defs>
    <filter id="Trazado_982549" x="0" y="0" width="108" height="108" filterUnits="userSpaceOnUse">
      <feOffset dy="3" input="SourceAlpha"/>
      <feGaussianBlur stdDeviation="3" result="blur"/>
      <feFlood flood-opacity="0.161"/>
      <feComposite operator="in" in2="blur"/>
      <feComposite in="SourceGraphic"/>
    </filter>
  </defs>
  <g id="Grupo_1147076" data-name="Grupo 1147076" transform="translate(-621 -335)">
    <g id="Grupo_1146639" data-name="Grupo 1146639" transform="translate(420 -822)">
      <g transform="matrix(1, 0, 0, 1, 201, 1157)" filter="url(#Trazado_982549)">
        <g id="Trazado_982549-2" data-name="Trazado 982549" transform="translate(9 6)" fill="#faece9">
          <path d="M 45 88.5 C 39.12687683105469 88.5 33.43022537231445 87.35007476806641 28.06830024719238 85.08217620849609 C 22.88852500915527 82.89131164550781 18.23629951477051 79.75458526611328 14.2408504486084 75.75914764404297 C 10.24541282653809 71.76370239257812 7.108687400817871 67.11147308349609 4.917825222015381 61.93170166015625 C 2.649924993515015 56.56977462768555 1.5 50.87312316894531 1.5 45 C 1.5 39.12687683105469 2.649924993515015 33.43022537231445 4.917825222015381 28.06830024719238 C 7.108687400817871 22.88852500915527 10.24541282653809 18.23629951477051 14.2408504486084 14.2408504486084 C 18.23629951477051 10.24541282653809 22.88852500915527 7.108687400817871 28.06830024719238 4.917825222015381 C 33.43022537231445 2.649924993515015 39.12687683105469 1.5 45 1.5 C 50.87312316894531 1.5 56.56977462768555 2.649924993515015 61.93170166015625 4.917825222015381 C 67.11147308349609 7.108687400817871 71.76370239257812 10.24541282653809 75.75914764404297 14.2408504486084 C 79.75458526611328 18.23629951477051 82.89131164550781 22.88852500915527 85.08217620849609 28.06830024719238 C 87.35007476806641 33.43022537231445 88.5 39.12687683105469 88.5 45 C 88.5 50.87312316894531 87.35007476806641 56.56977462768555 85.08217620849609 61.93170166015625 C 82.89131164550781 67.11147308349609 79.75458526611328 71.76370239257812 75.75914764404297 75.75914764404297 C 71.76370239257812 79.75458526611328 67.11147308349609 82.89131164550781 61.93170166015625 85.08217620849609 C 56.56977462768555 87.35007476806641 50.87312316894531 88.5 45 88.5 Z" stroke="none"/>
          <path d="M 45 3 C 39.32871246337891 3 33.82865524291992 4.110054016113281 28.65262985229492 6.299339294433594 C 23.65165710449219 8.414573669433594 19.15968322753906 11.44334411621094 15.301513671875 15.301513671875 C 11.44334411621094 19.15968322753906 8.414573669433594 23.65165710449219 6.299339294433594 28.65262985229492 C 4.110054016113281 33.82865524291992 3 39.32871246337891 3 45 C 3 50.67128753662109 4.110054016113281 56.17134475708008 6.299339294433594 61.34737396240234 C 8.414573669433594 66.34834289550781 11.44334411621094 70.84031677246094 15.301513671875 74.698486328125 C 19.15968322753906 78.55665588378906 23.65165710449219 81.58542633056641 28.65262985229492 83.70066070556641 C 33.82865524291992 85.88994598388672 39.32871246337891 87 45 87 C 50.67128753662109 87 56.17134475708008 85.88994598388672 61.34737396240234 83.70066070556641 C 66.34834289550781 81.58542633056641 70.84031677246094 78.55665588378906 74.698486328125 74.698486328125 C 78.55665588378906 70.84031677246094 81.58542633056641 66.34834289550781 83.70066070556641 61.34737396240234 C 85.88994598388672 56.17134475708008 87 50.67128753662109 87 45 C 87 39.32871246337891 85.88994598388672 33.82865524291992 83.70066070556641 28.65262985229492 C 81.58542633056641 23.65165710449219 78.55665588378906 19.15968322753906 74.698486328125 15.301513671875 C 70.84031677246094 11.44334411621094 66.34834289550781 8.414573669433594 61.34737396240234 6.299339294433594 C 56.17134475708008 4.110054016113281 50.67128753662109 3 45 3 M 45 0 C 69.85281372070312 0 90 20.14718627929688 90 45 C 90 69.85281372070312 69.85281372070312 90 45 90 C 20.14718627929688 90 0 69.85281372070312 0 45 C 0 20.14718627929688 20.14718627929688 0 45 0 Z" stroke="none" fill="#f97c61"/>
        </g>
      </g>
    </g>
    <g id="worker-insurance_15540148" transform="translate(622.392 346.931)">
      <g id="Grupo_1146647" data-name="Grupo 1146647" transform="translate(18.372 4.792)">
        <g id="Grupo_1146643" data-name="Grupo 1146643" transform="translate(20.187 0)">
          <path id="Trazado_983131" data-name="Trazado 983131" d="M251.4,34.6a14.325,14.325,0,0,0-14.324-14.183h0A14.325,14.325,0,0,0,222.75,34.6Z" transform="translate(-217.603 -19.096)" fill="#ffd300"/>
          <path id="Trazado_983132" data-name="Trazado 983132" d="M217.891,298.15a6.067,6.067,0,0,0-4.28-4.4l-3.068-.845a5.77,5.77,0,0,1-4.237-5.563v-3.3h-9.085v3.3a5.77,5.77,0,0,1-4.237,5.563l-3.068.845a6.067,6.067,0,0,0-4.28,4.4l-3.344,13.613h38.942l-3.344-13.613Z" transform="translate(-182.293 -249.178)" fill="#fb5657"/>
          <path id="Trazado_983133" data-name="Trazado 983133" d="M234.759,315.674,236.624,314l-.718-2.922a6.067,6.067,0,0,0-4.28-4.4l-3.068-.845a5.769,5.769,0,0,1-3.8-3.356l-.4.419-.257.315-.14.261a11.194,11.194,0,0,1-4.19,4.04,11.142,11.142,0,0,1-3.83-3.479v-5.174l-.712.526v.886A5.77,5.77,0,0,1,211,305.833l-3.068.845a6.067,6.067,0,0,0-4.28,4.4L202.934,314l1.863,1.671.4,9.02h29.156Z" transform="translate(-200.308 -262.109)" fill="#d13b42"/>
          <path id="Trazado_983134" data-name="Trazado 983134" d="M294.627,292.074a17.821,17.821,0,0,0,5.934-.978,5.763,5.763,0,0,1-1.392-3.757v-3.3h-9.085v3.3a5.762,5.762,0,0,1-1.392,3.757A17.822,17.822,0,0,0,294.627,292.074Z" transform="translate(-275.156 -249.177)" fill="#f7bfa9"/>
          <path id="Trazado_983135" data-name="Trazado 983135" d="M222.736,161.287v2.918a2.027,2.027,0,0,1,.444-.05h1.305a2.358,2.358,0,0,1,2.352,2.2h20.448a2.358,2.358,0,0,1,2.352-2.2h1.305a2.027,2.027,0,0,1,.444.05v-2.918Z" transform="translate(-217.591 -142.04)" fill="#417195"/>
          <path id="Trazado_983136" data-name="Trazado 983136" d="M298.862,284.042v3.3a5.764,5.764,0,0,1-.113,1.129l.16.059a11.531,11.531,0,0,0,4.014.719c.159,0,.32,0,.48-.01s.321.01.48.01a11.529,11.529,0,0,0,4.014-.719l.161-.06a5.763,5.763,0,0,1-.113-1.128v-3.3Z" transform="translate(-283.934 -249.177)" fill="#dd9b90"/>
          <path id="Trazado_983137" data-name="Trazado 983137" d="M260.746,161.287,259.164,172.3a6.04,6.04,0,0,1-3.882,4.806l-3.828,1.417a11.7,11.7,0,0,1-6.869,0l-3.828-1.417a6.04,6.04,0,0,1-3.882-4.806l-1.582-11.017Z" transform="translate(-228.548 -142.04)" fill="#ffd5ae"/>
          <path id="Trazado_983138" data-name="Trazado 983138" d="M260.746,161.287H235.291l.439,3.053h24.578Z" transform="translate(-228.548 -142.04)" fill="#f7bfa9"/>
          <path id="Trazado_983139" data-name="Trazado 983139" d="M251.04,31.551h-6.953v-9.3a14.258,14.258,0,0,0-7.012-1.832h0a14.257,14.257,0,0,0-7.014,1.833v9.3h-6.952a14.363,14.363,0,0,0-.358,3.053H251.4a14.363,14.363,0,0,0-.358-3.053Z" transform="translate(-217.603 -19.096)" fill="#ffa400"/>
          <path id="Trazado_983140" data-name="Trazado 983140" d="M231.461,25.509H221.1V11.527A1.527,1.527,0,0,0,219.568,10H214.7a1.527,1.527,0,0,0-1.527,1.527V25.509H202.809l-2.9,3.738h34.459l-2.9-3.738Z" transform="translate(-197.665 -10)" fill="#ffc200"/>
          <path id="Trazado_983141" data-name="Trazado 983141" d="M310,247.075h6.447v.44a3.225,3.225,0,0,1-3.224,3.224h0A3.225,3.225,0,0,1,310,247.515Z" transform="translate(-293.753 -216.913)" fill="#fb5657"/>
          <path id="Trazado_983142" data-name="Trazado 983142" d="M241.549,352.173a0,0,0,0,1,0,0l-4.016,3.6-.467,10.437H214.022l-.466-10.437-4.016-3.6A6.065,6.065,0,0,1,213.7,348.2l3.067-.846a5.907,5.907,0,0,0,1-.378,5.774,5.774,0,0,0,.894-.543,13.885,13.885,0,0,0,6.883,5.922,13.878,13.878,0,0,0,6.883-5.922,0,0,0,0,0,0,0,5.733,5.733,0,0,0,1.9.922l3.067.846a6.069,6.069,0,0,1,4.158,3.974Z" transform="translate(-206.074 -303.628)" fill="#ffd300"/>
          <path id="Trazado_983143" data-name="Trazado 983143" d="M228.1,378.682l-.429-9.619L224,365.77a4.523,4.523,0,0,1,2.724-2.1l3.068-.846a7.435,7.435,0,0,0,1-.354,14.97,14.97,0,0,0,6.865,5.322l.511.181.511-.181a14.965,14.965,0,0,0,6.866-5.322,7.272,7.272,0,0,0,1,.354l3.066.846a4.528,4.528,0,0,1,2.723,2.1l-3.674,3.295-.43,9.619Z" transform="translate(-218.693 -317.624)" fill="#ffe164"/>
          <g id="Grupo_1146642" data-name="Grupo 1146642" transform="translate(5.497 44.156)">
            <path id="Trazado_983144" data-name="Trazado 983144" d="M228.706,361.771l2.559-2.559-2.136-2.136-1.5.414a6.053,6.053,0,0,0-2.127,1.075Z" transform="translate(-225.499 -357.075)" fill="#fff9d6"/>
            <path id="Trazado_983145" data-name="Trazado 983145" d="M402.4,361.771l-2.559-2.559,2.136-2.136,1.5.414a6.053,6.053,0,0,1,2.127,1.075Z" transform="translate(-377.664 -357.075)" fill="#fff9d6"/>
            <path id="Trazado_983146" data-name="Trazado 983146" d="M265.762,440.3H242.019l.178,3.993h23.387Z" transform="translate(-239.917 -429.708)" fill="#fff9d6"/>
          </g>
          <path id="Trazado_983147" data-name="Trazado 983147" d="M429.054,183.828h-1.305a2.377,2.377,0,0,0-.263.016l-.675,4.7h1.91a2.36,2.36,0,0,0,2.36-2.36v-.333A2.025,2.025,0,0,0,429.054,183.828Z" transform="translate(-395.702 -161.713)" fill="#f7bfa9"/>
          <path id="Trazado_983148" data-name="Trazado 983148" d="M213.9,183.844a2.38,2.38,0,0,0-.262-.015h-1.305a2.025,2.025,0,0,0-2.025,2.025v.334a2.36,2.36,0,0,0,2.36,2.36h1.908Z" transform="translate(-206.745 -161.714)" fill="#f7bfa9"/>
          <path id="Trazado_983149" data-name="Trazado 983149" d="M1.527,0H4.659V4.659H1.527A1.527,1.527,0,0,1,0,3.132V1.527A1.527,1.527,0,0,1,1.527,0Z" transform="matrix(-0.758, 0.653, -0.653, -0.758, 33.179, 7.8)" fill="#ffee93"/>
          <path id="Trazado_983150" data-name="Trazado 983150" d="M1.527,0H4.659V4.659H1.527A1.527,1.527,0,0,1,0,3.132V1.527A1.527,1.527,0,0,1,1.527,0Z" transform="matrix(0.758, 0.653, -0.653, 0.758, 8.79, 4.266)" fill="#ffee93"/>
        </g>
        <g id="Grupo_1146646" data-name="Grupo 1146646" transform="translate(0 21.909)">
          <path id="Trazado_983151" data-name="Trazado 983151" d="M37.24,182.485a3.774,3.774,0,0,1,2.825,0l10.516,4.243a4.963,4.963,0,0,1,3.105,4.71c-.054,2.5-.174,6.027-.439,9.382a16.941,16.941,0,0,1-2.468,7.948,5.532,5.532,0,0,1-1.448,1.5c-2,1.413-7.833,5.354-10.679,5.354s-8.679-3.941-10.679-5.354a5.532,5.532,0,0,1-1.448-1.5,16.941,16.941,0,0,1-2.468-7.948c-.265-3.355-.385-6.879-.439-9.382a4.963,4.963,0,0,1,3.105-4.71Z" transform="translate(-23.617 -182.211)" fill="#3451c6"/>
          <path id="Trazado_983152" data-name="Trazado 983152" d="M49.125,224.567c-1.589,0-5.435-1.992-9.8-5.074a3.991,3.991,0,0,1-1.049-1.085,15.478,15.478,0,0,1-2.226-7.235c-.266-3.364-.383-6.912-.435-9.295a3.454,3.454,0,0,1,2.15-3.261l10.516-4.243a2.247,2.247,0,0,1,1.682,0l10.516,4.243a3.454,3.454,0,0,1,2.15,3.261c-.052,2.383-.169,5.93-.435,9.295a15.478,15.478,0,0,1-2.226,7.235,3.99,3.99,0,0,1-1.049,1.085c-4.363,3.082-8.209,5.074-9.8,5.074Z" transform="translate(-34.09 -192.684)" fill="#0087ff"/>
          <g id="Grupo_1146644" data-name="Grupo 1146644" transform="translate(0.705 0.001)">
            <path id="Trazado_983153" data-name="Trazado 983153" d="M136.555,188.791a.763.763,0,0,0,.763-.763V182.3a3.774,3.774,0,0,0-1.527,0v5.732A.763.763,0,0,0,136.555,188.791Z" transform="translate(-122.226 -182.218)" fill="#0087ff"/>
            <path id="Trazado_983154" data-name="Trazado 983154" d="M33.507,227.965,30.14,224.6a4.967,4.967,0,0,0-.981,1.178l3.269,3.269a.763.763,0,0,0,1.08-1.08Z" transform="translate(-29.159 -219.207)" fill="#0087ff"/>
            <path id="Trazado_983155" data-name="Trazado 983155" d="M221.094,224.6l-3.511,3.511a.763.763,0,0,0,1.08,1.08l3.413-3.413A4.968,4.968,0,0,0,221.094,224.6Z" transform="translate(-193.416 -219.207)" fill="#0087ff"/>
            <path id="Trazado_983156" data-name="Trazado 983156" d="M136.555,401.314a.763.763,0,0,0-.763.763v4.691a3.719,3.719,0,0,0,1.527,0v-4.691A.763.763,0,0,0,136.555,401.314Z" transform="translate(-122.226 -373.44)" fill="#0087ff"/>
          </g>
          <path id="Trazado_983157" data-name="Trazado 983157" d="M59.8,233.686c-.042,0-1.07-.02-4.145-1.751-1.949-1.1-3.816-2.374-4.755-3.038a2.439,2.439,0,0,1-.643-.662,13.913,13.913,0,0,1-1.979-6.509c-.263-3.327-.379-6.843-.43-9.206a1.89,1.89,0,0,1,1.177-1.784l10.516-4.243a.692.692,0,0,1,.518,0l10.516,4.243a1.89,1.89,0,0,1,1.177,1.784c-.051,2.363-.167,5.878-.43,9.206a13.913,13.913,0,0,1-1.979,6.509,2.44,2.44,0,0,1-.643.662c-.939.664-2.806,1.941-4.755,3.038-3.075,1.731-4.1,1.751-4.145,1.751Z" transform="translate(-44.765 -203.359)" fill="#ffd300"/>
          <path id="Trazado_983158" data-name="Trazado 983158" d="M80.876,252.769a17.63,17.63,0,0,1-2.647-1.279c-1.771-1-3.485-2.163-4.4-2.808A11.193,11.193,0,0,1,72.4,243.7c-.229-2.9-.344-5.948-.4-8.222l8.88-3.583,8.88,3.583c-.058,2.274-.174,5.326-.4,8.222a11.191,11.191,0,0,1-1.429,4.981c-.917.645-2.63,1.811-4.4,2.808a17.631,17.631,0,0,1-2.647,1.279Z" transform="translate(-65.841 -225.575)" fill="#ffee93"/>
          <g id="Grupo_1146645" data-name="Grupo 1146645" transform="translate(7.752 10.646)">
            <path id="Trazado_983159" data-name="Trazado 983159" d="M98.394,266.44a2.158,2.158,0,0,0-3.047.177l-5.2,5.842-1.9-1.9a2.158,2.158,0,0,0-3.052,3.053l3.515,3.515a2.171,2.171,0,0,0,3.138-.091l6.722-7.55a2.158,2.158,0,0,0-.177-3.047Z" transform="translate(-84.552 -265.894)" fill="#93cf00"/>
            <path id="Trazado_983160" data-name="Trazado 983160" d="M100.705,286.7a.581.581,0,0,1-.421-.157l-3.512-3.512a.59.59,0,0,1-.173-.686.711.711,0,0,1,.6-.428.727.727,0,0,1,.469.22l3.017,3.017,6.277-7.051a.632.632,0,0,1,.944.84l-6.022,6.764-.022-.009-.7.819A.6.6,0,0,1,100.705,286.7Z" transform="translate(-95.025 -276.367)" fill="#abe200"/>
          </g>
        </g>
      </g>
      <g id="Grupo_1146648" data-name="Grupo 1146648" transform="translate(17.608 4.033)">
        <path id="Trazado_983161" data-name="Trazado 983161" d="M79.432,268.988l3.51,3.51a2.948,2.948,0,0,0,4.264-.13l-.006-.005c.089-.087.182-.191.285-.307l6.433-7.226a2.936,2.936,0,0,0-.239-4.125h0a2.935,2.935,0,0,0-4.125.239l-4.664,5.238-1.326-1.326a2.922,2.922,0,0,0-4.132,4.132Zm1.088-3.044a1.35,1.35,0,0,1,1.976,0l1.886,1.886a.768.768,0,0,0,1.11-.032l5.2-5.842a1.4,1.4,0,1,1,2.084,1.855l-6.733,7.563a1.409,1.409,0,0,1-2.018.047l-3.5-3.5A1.351,1.351,0,0,1,80.52,265.943Z" transform="translate(-70.814 -227.409)" fill="#002356"/>
        <path id="Trazado_983162" data-name="Trazado 983162" d="M330.09,184.786a.763.763,0,0,0,.763-.763V179.39h2.669a.763.763,0,0,0,0-1.527H330.09a.763.763,0,0,0-.763.763v5.4A.763.763,0,0,0,330.09,184.786Z" transform="translate(-289.669 -155.748)" fill="#002356"/>
        <path id="Trazado_983163" data-name="Trazado 983163" d="M307.872,246.3a3.991,3.991,0,0,0,3.987-3.987v-.44a.763.763,0,0,0-.763-.763h-6.447a.763.763,0,0,0-.763.763,4.04,4.04,0,0,0,3.987,4.427Zm2.439-3.663a2.462,2.462,0,0,1-4.878,0Z" transform="translate(-267.45 -210.947)" fill="#002356"/>
        <path id="Trazado_983164" data-name="Trazado 983164" d="M78.241,67.2c-.18-.535-3.528-14.9-3.794-14.884a6.835,6.835,0,0,0-3.61-3.425c-1.034-.431-3.6-.93-4.623-1.4a5.036,5.036,0,0,1-2.806-3.676,17.875,17.875,0,0,1-.075-2.41l2.222-.822a6.8,6.8,0,0,0,4.373-5.413l.4-2.776h1.248A3.127,3.127,0,0,0,74.7,29.271a2.856,2.856,0,0,0-1.581-2.847V24.807h2.14a.763.763,0,0,0,.6-1.232l-2.752-3.542a15.12,15.12,0,0,0-1.6-6.357,2.293,2.293,0,0,0-.176-2.752L70.289,9.708a2.3,2.3,0,0,0-2.418-.692,15.166,15.166,0,0,0-5.131-2.9,2.293,2.293,0,0,0-2.279-2.079H55.6a2.293,2.293,0,0,0-2.279,2.079,15.166,15.166,0,0,0-5.129,2.9,2.3,2.3,0,0,0-2.419.691L44.72,10.924a2.3,2.3,0,0,0-.176,2.755,15.122,15.122,0,0,0-1.595,6.353L40.2,23.576a.763.763,0,0,0,.6,1.232H42.94v1.616A2.793,2.793,0,0,0,41.363,28.8L35.1,26.272a4.516,4.516,0,0,0-3.4,0L21.192,30.515a5.759,5.759,0,0,0-3.583,5.434c.052,2.413.171,6.008.441,9.426a17.787,17.787,0,0,0,2.589,8.3,6.267,6.267,0,0,0,1.647,1.706c6.765,4.78,9.87,5.494,11.119,5.494.927,0,2.879-.4,6.592-2.554L37.817,67.2a.763.763,0,0,0,.741.945H77.5a.769.769,0,0,0,.741-.945Zm-31.27-6.528-.016-.367h10.31V62.77h-10.2l-.094-2.1Zm-5.888-4.813a25.685,25.685,0,0,1-6.914,3.4v-1.6a17.977,17.977,0,0,0,3.756-1.713c1.98-1.115,3.871-2.408,4.821-3.08A3.2,3.2,0,0,0,43.588,52a14.679,14.679,0,0,0,2.1-6.865c.264-3.346.381-6.877.432-9.25a2.615,2.615,0,0,0-.129-.862l1.18-1.18a4.8,4.8,0,0,1,.489,2.731c-.073,2.83-.183,5.6-.421,8.683a15.852,15.852,0,0,1-2.474,7.777,5.467,5.467,0,0,1-1.506,1.375c-.658.459-1.314.9-2.177,1.451ZM22.916,34.79l10.489-4.232L43.895,34.79a1.122,1.122,0,0,1,.7,1.06c-.051,2.353-.166,5.853-.428,9.163-.282,3.271-1.333,5.8-2.3,6.608-.927.655-2.769,1.915-4.689,3a12.521,12.521,0,0,1-3.77,1.651,12.52,12.52,0,0,1-3.77-1.651c-1.92-1.081-3.762-2.341-4.689-3-.97-.806-2.018-3.337-2.3-6.608-.261-3.312-.377-6.811-.428-9.163a1.122,1.122,0,0,1,.7-1.06Zm40.828,12.8q.086.085.174.167a13.052,13.052,0,0,1-5.89,4.946,13.112,13.112,0,0,1-5.889-4.946q.089-.082.174-.167a19.43,19.43,0,0,0,11.431,0ZM52.719,43.176a5.041,5.041,0,0,1-3.672,4.61l-.646.178a61.29,61.29,0,0,0,.68-8.109,19.653,19.653,0,0,0,3.642,1.55c0,.139,0,1.679,0,1.771ZM47,52.212a16.785,16.785,0,0,0,.826-2.043l.92.92-1.48,1.48-.3-.3L47,52.212ZM45.04,54.979a6.292,6.292,0,0,0,1.147-1.325l.534.534a.768.768,0,0,0,1.08,0l2.559-2.559a.763.763,0,0,0,0-1.08L49.152,49.34a7.235,7.235,0,0,0,1.75-.676,14.546,14.546,0,0,0,6.363,5.382v4.731H46.887L46.8,56.911a.764.764,0,0,0-.253-.534L45.016,55l.024-.022ZM58.792,60.3H69.1l-.11,2.467h-10.2Zm10.715-3.927a.764.764,0,0,0-.253.534l-.083,1.866H58.792V54.046a14.547,14.547,0,0,0,6.364-5.382,7.227,7.227,0,0,0,1.75.677L65.7,50.549a.763.763,0,0,0,0,1.08l2.559,2.559a.763.763,0,0,0,1.08,0l2.7-2.7a5.234,5.234,0,0,1,1.1,1.635l-3.628,3.253Zm-.909-6.57a10.02,10.02,0,0,1,2.2.755L68.8,52.569l-1.48-1.48L68.6,49.807Zm-6.79-7.837c0,.357-.013,1.148.02,1.491a6.552,6.552,0,0,0,.9,2.844,18.055,18.055,0,0,1-9.4,0,6.552,6.552,0,0,0,.9-2.844c.033-.34.017-1.14.02-1.491a9.233,9.233,0,0,0,3.778.593,9.336,9.336,0,0,0,3.78-.594Zm11.364-12.7a1.6,1.6,0,0,1-1.6,1.6H70.547l.458-3.192a9.339,9.339,0,0,1,1.184.032,1.263,1.263,0,0,1,.982,1.23Zm-8.486-17.76a.768.768,0,0,0-.08,1.077l3.04,3.53a.761.761,0,0,0,.583.265.77.77,0,0,0,.493-.185l1.633-1.407a13.6,13.6,0,0,1,1.2,4.751H62.752V7.732a13.648,13.648,0,0,1,3.8,2.171l-1.867,1.608Zm3.924-1.07a.759.759,0,0,1,.522.263L70.18,11.92A.764.764,0,0,1,70.1,13l-1.795,1.546-2.044-2.373,1.795-1.546a.768.768,0,0,1,.555-.183ZM55.6,5.56h4.867a.764.764,0,0,1,.763.763V19.542H54.832s0-12.866,0-12.867V6.323A.764.764,0,0,1,55.6,5.56Zm-9.719,6.36L46.924,10.7A.763.763,0,0,1,48,10.624L49.8,12.169l-2.044,2.373L45.957,13a.767.767,0,0,1-.081-1.077ZM45.7,14.792,47.333,16.2a.765.765,0,0,0,1.077-.08l3.04-3.53a.768.768,0,0,0-.08-1.077L49.5,9.9a13.652,13.652,0,0,1,3.8-2.171v11.81H44.5a13.6,13.6,0,0,1,1.2-4.75Zm-1.625,6.277h27.9L73.7,23.281H42.359Zm27.515,3.738v1.341h-.986c-.473-.026-.94.149-1.019.67l-1.168,8.134a5.272,5.272,0,0,1-3.392,4.2c-.342.126-4.136,1.548-4.378,1.595a7.957,7.957,0,0,1-2.663.291,7.713,7.713,0,0,1-3.127-.469L51.03,39.151a5.292,5.292,0,0,1-1.881-1.2c.015-.97.084-1.732.033-2.6a5.745,5.745,0,0,0-2.051-3.929l-.66-4.6c-.08-.522-.545-.7-1.017-.67h-.986V24.807H71.591Zm-28.7,4.608c-.014-.095,0-.378-.006-.478a1.263,1.263,0,0,1,.982-1.229,9.323,9.323,0,0,1,1.183-.032l.4,2.771-2.557-1.032Zm2.156,2.516a4.159,4.159,0,0,1,1.161.712l-1.1,1.1a2.614,2.614,0,0,0-.64-.373l-10.3-4.155V27.57a3.031,3.031,0,0,1,.363.118l10.516,4.243Zm-23.285,0,10.516-4.243a3.036,3.036,0,0,1,.363-.118v1.649l-10.3,4.155a2.613,2.613,0,0,0-.64.373l-1.1-1.1a4.158,4.158,0,0,1,1.161-.712Zm.156,20.915a16.247,16.247,0,0,1-2.347-7.591c-.267-3.382-.385-6.945-.437-9.338a4.183,4.183,0,0,1,.5-2.075l1.18,1.18a2.615,2.615,0,0,0-.129.862c.051,2.372.168,5.9.432,9.25A14.678,14.678,0,0,0,23.223,52a3.2,3.2,0,0,0,.842.87c.951.672,2.842,1.965,4.821,3.08a17.974,17.974,0,0,0,3.756,1.713v1.6c-2.317-.488-6.291-2.873-9.475-5.122a4.748,4.748,0,0,1-1.249-1.292Zm19.929,4.345q.9-.575,1.908-1.27L45.292,57.3l.416,9.319H39.532ZM47.133,64.3H57.265v2.321H47.237Zm11.659,2.321V64.3H68.924l-.1,2.321Zm11.557,0,.416-9.319,2.846-2.552,2.916,11.871Z" transform="translate(-17.608 -4.033)" fill="#002356"/>
      </g>
    </g>
  </g>
</svg>
