<svg xmlns="http://www.w3.org/2000/svg" xmlns:xlink="http://www.w3.org/1999/xlink" width="108" height="108" viewBox="0 0 108 108">
  <defs>
    <filter id="Trazado_982549" x="0" y="0" width="108" height="108" filterUnits="userSpaceOnUse">
      <feOffset dy="3" input="SourceAlpha"/>
      <feGaussianBlur stdDeviation="3" result="blur"/>
      <feFlood flood-opacity="0.161"/>
      <feComposite operator="in" in2="blur"/>
      <feComposite in="SourceGraphic"/>
    </filter>
  </defs>
  <g id="Grupo_1158085" data-name="Grupo 1158085" transform="translate(-199 -4171)">
    <g id="Grupo_1157461" data-name="Grupo 1157461" transform="translate(-249 3465)">
      <g id="Grupo_1149030" data-name="Grupo 1149030" transform="translate(-173 371)">
        <g id="Grupo_1146639" data-name="Grupo 1146639" transform="translate(420 -822)">
          <g transform="matrix(1, 0, 0, 1, 201, 1157)" filter="url(#Trazado_982549)">
            <g id="Trazado_982549-2" data-name="Trazado 982549" transform="translate(9 6)" fill="#eafbf9">
              <path d="M 45 88.5 C 39.12687683105469 88.5 33.43022537231445 87.35007476806641 28.06830024719238 85.08217620849609 C 22.88852500915527 82.89131164550781 18.23629951477051 79.75458526611328 14.2408504486084 75.75914764404297 C 10.24541282653809 71.76370239257812 7.108687400817871 67.11147308349609 4.917825222015381 61.93170166015625 C 2.649924993515015 56.56977462768555 1.5 50.87312316894531 1.5 45 C 1.5 39.12687683105469 2.649924993515015 33.43022537231445 4.917825222015381 28.06830024719238 C 7.108687400817871 22.88852500915527 10.24541282653809 18.23629951477051 14.2408504486084 14.2408504486084 C 18.23629951477051 10.24541282653809 22.88852500915527 7.108687400817871 28.06830024719238 4.917825222015381 C 33.43022537231445 2.649924993515015 39.12687683105469 1.5 45 1.5 C 50.87312316894531 1.5 56.56977462768555 2.649924993515015 61.93170166015625 4.917825222015381 C 67.11147308349609 7.108687400817871 71.76370239257812 10.24541282653809 75.75914764404297 14.2408504486084 C 79.75458526611328 18.23629951477051 82.89131164550781 22.88852500915527 85.08217620849609 28.06830024719238 C 87.35007476806641 33.43022537231445 88.5 39.12687683105469 88.5 45 C 88.5 50.87312316894531 87.35007476806641 56.56977462768555 85.08217620849609 61.93170166015625 C 82.89131164550781 67.11147308349609 79.75458526611328 71.76370239257812 75.75914764404297 75.75914764404297 C 71.76370239257812 79.75458526611328 67.11147308349609 82.89131164550781 61.93170166015625 85.08217620849609 C 56.56977462768555 87.35007476806641 50.87312316894531 88.5 45 88.5 Z" stroke="none"/>
              <path d="M 45 3 C 39.32871246337891 3 33.82865524291992 4.110054016113281 28.65262985229492 6.299339294433594 C 23.65165710449219 8.414573669433594 19.15968322753906 11.44334411621094 15.301513671875 15.301513671875 C 11.44334411621094 19.15968322753906 8.414573669433594 23.65165710449219 6.299339294433594 28.65262985229492 C 4.110054016113281 33.82865524291992 3 39.32871246337891 3 45 C 3 50.67128753662109 4.110054016113281 56.17134475708008 6.299339294433594 61.34737396240234 C 8.414573669433594 66.34834289550781 11.44334411621094 70.84031677246094 15.301513671875 74.698486328125 C 19.15968322753906 78.55665588378906 23.65165710449219 81.58542633056641 28.65262985229492 83.70066070556641 C 33.82865524291992 85.88994598388672 39.32871246337891 87 45 87 C 50.67128753662109 87 56.17134475708008 85.88994598388672 61.34737396240234 83.70066070556641 C 66.34834289550781 81.58542633056641 70.84031677246094 78.55665588378906 74.698486328125 74.698486328125 C 78.55665588378906 70.84031677246094 81.58542633056641 66.34834289550781 83.70066070556641 61.34737396240234 C 85.88994598388672 56.17134475708008 87 50.67128753662109 87 45 C 87 39.32871246337891 85.88994598388672 33.82865524291992 83.70066070556641 28.65262985229492 C 81.58542633056641 23.65165710449219 78.55665588378906 19.15968322753906 74.698486328125 15.301513671875 C 70.84031677246094 11.44334411621094 66.34834289550781 8.414573669433594 61.34737396240234 6.299339294433594 C 56.17134475708008 4.110054016113281 50.67128753662109 3 45 3 M 45 0 C 69.85281372070312 0 90 20.14718627929688 90 45 C 90 69.85281372070312 69.85281372070312 90 45 90 C 20.14718627929688 90 0 69.85281372070312 0 45 C 0 20.14718627929688 20.14718627929688 0 45 0 Z" stroke="none" fill="#3cddca"/>
            </g>
          </g>
        </g>
      </g>
    </g>
    <g id="gestion-de-equipos_2_" data-name="gestion-de-equipos (2)" transform="translate(224 4192.565)">
      <g id="Grupo_1158061" data-name="Grupo 1158061" transform="translate(15.887 1.275)">
        <g id="Grupo_1158056" data-name="Grupo 1158056" transform="translate(0 0)">
          <circle id="Elipse_11583" data-name="Elipse 11583" cx="12.784" cy="12.784" r="12.784" fill="#f7e365"/>
        </g>
        <g id="Grupo_1158057" data-name="Grupo 1158057" transform="translate(2.523 2.523)">
          <path id="Trazado_992189" data-name="Trazado 992189" d="M182.273,30.468a12.785,12.785,0,0,1-17.887,17.887,12.785,12.785,0,1,0,17.887-17.887Z" transform="translate(-164.386 -30.468)" fill="#f3d332"/>
        </g>
        <g id="Grupo_1158060" data-name="Grupo 1158060" transform="translate(5.167 4.729)">
          <g id="Grupo_1158058" data-name="Grupo 1158058">
            <path id="Trazado_992190" data-name="Trazado 992190" d="M201.266,58.173l1.662-1.8a1.131,1.131,0,0,0,.148-1.332l-.978-1.695a1.131,1.131,0,0,0-1.227-.538l-2.393.537L198.4,53.3l-.732-2.341a1.131,1.131,0,0,0-1.08-.794h-1.957a1.131,1.131,0,0,0-1.08.794l-.732,2.341-.076.044-2.393-.537a1.131,1.131,0,0,0-1.227.538l-.978,1.695a1.131,1.131,0,0,0,.148,1.332l1.662,1.8v.087l-1.662,1.8a1.131,1.131,0,0,0-.148,1.332l.978,1.695a1.131,1.131,0,0,0,1.227.538l2.393-.537.076.044.732,2.341a1.131,1.131,0,0,0,1.08.794h1.957a1.131,1.131,0,0,0,1.08-.794l.732-2.341.076-.044,2.394.537a1.131,1.131,0,0,0,1.227-.538l.978-1.695a1.132,1.132,0,0,0-.148-1.332l-1.662-1.8v-.087Zm-5.656,1.854a1.81,1.81,0,1,1,1.81-1.81A1.81,1.81,0,0,1,195.611,60.027Z" transform="translate(-187.994 -50.161)" fill="#62a4fb"/>
          </g>
          <g id="Grupo_1158059" data-name="Grupo 1158059" transform="translate(4.96 2.615)">
            <path id="Trazado_992191" data-name="Trazado 992191" d="M240.595,78.992V78.9l1.662-1.8a1.131,1.131,0,0,0,.148-1.332l-.978-1.695a1.132,1.132,0,0,0-1.227-.538l-1.359.3a7.97,7.97,0,0,1-6.558,10.454l.6,1.916a1.131,1.131,0,0,0,1.08.794h1.957A1.131,1.131,0,0,0,237,86.21l.732-2.341.076-.044,2.393.537a1.131,1.131,0,0,0,1.227-.538l.978-1.695a1.131,1.131,0,0,0-.148-1.332Z" transform="translate(-232.282 -73.507)" fill="#5392f9"/>
          </g>
        </g>
      </g>
      <g id="Grupo_1158077" data-name="Grupo 1158077" transform="translate(12.605 22.115)">
        <g id="Grupo_1158066" data-name="Grupo 1158066" transform="translate(18.103)">
          <g id="Grupo_1158062" data-name="Grupo 1158062" transform="translate(0 9.051)">
            <path id="Trazado_992192" data-name="Trazado 992192" d="M274.2,278.9v10.739h14.029V278.9a4.073,4.073,0,0,0-4.073-4.073h-5.883A4.073,4.073,0,0,0,274.2,278.9Z" transform="translate(-274.198 -274.832)" fill="#e175a5"/>
          </g>
          <g id="Grupo_1158063" data-name="Grupo 1158063" transform="translate(0 9.051)">
            <path id="Trazado_992193" data-name="Trazado 992193" d="M281.89,278.9a6.753,6.753,0,0,0-1.361-4.073h-2.258A4.073,4.073,0,0,0,274.2,278.9v10.739h7.692Z" transform="translate(-274.198 -274.831)" fill="#de5791"/>
          </g>
          <g id="Grupo_1158064" data-name="Grupo 1158064" transform="translate(2.489)">
            <circle id="Elipse_11584" data-name="Elipse 11584" cx="4.525" cy="4.525" r="4.525" fill="#fed2a4"/>
          </g>
          <g id="Grupo_1158065" data-name="Grupo 1158065" transform="translate(3.02 0.531)">
            <path id="Trazado_992194" data-name="Trazado 992194" d="M307.286,198.759a4.526,4.526,0,0,1-6.122,6.122,4.525,4.525,0,1,0,6.122-6.122Z" transform="translate(-301.164 -198.759)" fill="#ffbd86"/>
          </g>
        </g>
        <g id="Grupo_1158071" data-name="Grupo 1158071">
          <g id="Grupo_1158067" data-name="Grupo 1158067" transform="translate(0 9.051)">
            <path id="Trazado_992195" data-name="Trazado 992195" d="M112.552,278.9v10.739h14.029V278.9a4.073,4.073,0,0,0-4.073-4.073h-5.883A4.073,4.073,0,0,0,112.552,278.9Z" transform="translate(-112.552 -274.832)" fill="#e175a5"/>
          </g>
          <g id="Grupo_1158068" data-name="Grupo 1158068" transform="translate(6.336 9.051)">
            <path id="Trazado_992196" data-name="Trazado 992196" d="M176.822,289.643V278.9a4.073,4.073,0,0,0-4.073-4.073h-2.258a6.753,6.753,0,0,0-1.361,4.073v10.739Z" transform="translate(-169.13 -274.832)" fill="#de5791"/>
          </g>
          <g id="Grupo_1158069" data-name="Grupo 1158069" transform="translate(2.489)">
            <circle id="Elipse_11585" data-name="Elipse 11585" cx="4.525" cy="4.525" r="4.525" fill="#fed2a4"/>
          </g>
          <g id="Grupo_1158070" data-name="Grupo 1158070" transform="translate(3.02 0.531)">
            <path id="Trazado_992197" data-name="Trazado 992197" d="M145.64,198.759a4.526,4.526,0,0,1-6.122,6.122,4.526,4.526,0,1,0,6.122-6.122Z" transform="translate(-139.518 -198.759)" fill="#ffbd86"/>
          </g>
        </g>
        <g id="Grupo_1158076" data-name="Grupo 1158076" transform="translate(9.052)">
          <g id="Grupo_1158072" data-name="Grupo 1158072" transform="translate(0 9.051)">
            <path id="Trazado_992198" data-name="Trazado 992198" d="M193.375,278.9v10.739H207.4V278.9a4.073,4.073,0,0,0-4.073-4.073h-5.883A4.073,4.073,0,0,0,193.375,278.9Z" transform="translate(-193.375 -274.832)" fill="#62a4fb"/>
          </g>
          <g id="Grupo_1158073" data-name="Grupo 1158073" transform="translate(7.014 9.051)">
            <path id="Trazado_992199" data-name="Trazado 992199" d="M258.948,274.832h-2.941a4.073,4.073,0,0,1,4.073,4.073v10.739h2.941V278.9A4.073,4.073,0,0,0,258.948,274.832Z" transform="translate(-256.007 -274.832)" fill="#5392f9"/>
          </g>
          <g id="Grupo_1158074" data-name="Grupo 1158074" transform="translate(2.489)">
            <circle id="Elipse_11586" data-name="Elipse 11586" cx="4.525" cy="4.525" r="4.525" fill="#fed2a4"/>
          </g>
          <g id="Grupo_1158075" data-name="Grupo 1158075" transform="translate(3.02 0.531)">
            <path id="Trazado_992200" data-name="Trazado 992200" d="M226.463,198.759a4.526,4.526,0,0,1-6.122,6.122,4.525,4.525,0,1,0,6.122-6.122Z" transform="translate(-220.341 -198.759)" fill="#ffbd86"/>
          </g>
        </g>
      </g>
      <g id="Grupo_1158083" data-name="Grupo 1158083" transform="translate(0.84 36.647)">
        <g id="Grupo_1158078" data-name="Grupo 1158078" transform="translate(7.241 3.9)">
          <path id="Trazado_992201" data-name="Trazado 992201" d="M72.152,358.6h4.073v14.481H72.152Z" transform="translate(-72.152 -358.597)" fill="#d3effd"/>
        </g>
        <g id="Grupo_1158079" data-name="Grupo 1158079" transform="translate(11.313)">
          <path id="Trazado_992202" data-name="Trazado 992202" d="M152.072,324.57a2.715,2.715,0,0,0-3.84,0l-8.535,8.535h-7.873a2.715,2.715,0,1,0,0-5.43h-8.6l-1.744-1.414a8.868,8.868,0,0,0-11.081-.072l-1.883,1.486v14.481l16.388,1.028a9.05,9.05,0,0,0,3.237-.385l12.731-3.932a4.525,4.525,0,0,0,1.865-1.124l9.332-9.332A2.715,2.715,0,0,0,152.072,324.57Z" transform="translate(-108.519 -323.775)" fill="#fed2a4"/>
        </g>
        <g id="Grupo_1158080" data-name="Grupo 1158080" transform="translate(27.58)">
          <path id="Trazado_992203" data-name="Trazado 992203" d="M281.05,324.57a2.715,2.715,0,0,0-3.84,0l-8.535,8.535h-1.62a33.239,33.239,0,0,1-2.722,3.079,30.392,30.392,0,0,1-10.571,6.992l.121.008a9.05,9.05,0,0,0,3.237-.385l12.731-3.932a4.526,4.526,0,0,0,1.865-1.124l9.332-9.332A2.715,2.715,0,0,0,281.05,324.57Z" transform="translate(-253.763 -323.775)" fill="#ffbd86"/>
        </g>
        <g id="Grupo_1158081" data-name="Grupo 1158081" transform="translate(0 2.09)">
          <path id="Trazado_992204" data-name="Trazado 992204" d="M7.5,342.434h7.241v18.1H7.5Z" transform="translate(-7.5 -342.434)" fill="#62a4fb"/>
        </g>
        <g id="Grupo_1158082" data-name="Grupo 1158082" transform="translate(4.752 2.09)">
          <path id="Trazado_992205" data-name="Trazado 992205" d="M49.928,342.434h2.489v18.1H49.928Z" transform="translate(-49.928 -342.434)" fill="#5392f9"/>
        </g>
      </g>
      <g id="Grupo_1158084" data-name="Grupo 1158084" transform="translate(0 0.435)">
        <circle id="Elipse_11587" data-name="Elipse 11587" cx="0.905" cy="0.905" r="0.905" transform="translate(3.555 41.016)"/>
        <circle id="Elipse_11588" data-name="Elipse 11588" cx="0.905" cy="0.905" r="0.905" transform="translate(3.555 44.637)"/>
        <path id="Trazado_992206" data-name="Trazado 992206" d="M237.643,101.076a2.65,2.65,0,1,0-2.65,2.65A2.653,2.653,0,0,0,237.643,101.076Zm-2.65.97a.97.97,0,1,1,.97-.97A.971.971,0,0,1,234.993,102.046Z" transform="translate(-206.322 -87.452)"/>
        <path id="Trazado_992207" data-name="Trazado 992207" d="M56.3,36.848a3.555,3.555,0,0,0-5.028,0l-5.7,5.7V39.78a.84.84,0,0,0-1.68,0v4.444l-.912.913H38.478a3.557,3.557,0,0,0-1.953-5.268V35.238a4.891,4.891,0,0,0-1.218-3.233h5.358A3.236,3.236,0,0,1,43.9,35.239v.622a.84.84,0,1,0,1.68,0v-.622a4.92,4.92,0,0,0-4.037-4.833,5.359,5.359,0,0,0-1.621-8.658,13.662,13.662,0,0,0,2.376-7.688,13.506,13.506,0,0,0-4.1-9.745.84.84,0,0,0-1.173,1.2,11.839,11.839,0,0,1,3.6,8.542A11.972,11.972,0,0,1,38.174,21.3c-.149-.013-.3-.02-.452-.02A5.365,5.365,0,0,0,33.2,23.764a5.4,5.4,0,0,0-1.853-1.773,1.993,1.993,0,0,0,.187-.42l.519-1.66,1.7.381a1.963,1.963,0,0,0,2.139-.938l.978-1.694a1.963,1.963,0,0,0-.257-2.321L35.428,14.06l1.178-1.279a1.963,1.963,0,0,0,.257-2.321l-.978-1.695a1.963,1.963,0,0,0-2.139-.938l-1.7.381-.519-1.66a1.963,1.963,0,0,0-1.881-1.383H27.692a1.963,1.963,0,0,0-1.882,1.383l-.519,1.66-1.7-.381a1.963,1.963,0,0,0-2.139.938l-.978,1.695a1.963,1.963,0,0,0,.257,2.321l1.178,1.279-1.178,1.279a1.963,1.963,0,0,0-.257,2.321l.978,1.695a1.963,1.963,0,0,0,2.139.938l1.7-.381.519,1.66a1.988,1.988,0,0,0,.187.42,5.4,5.4,0,0,0-1.853,1.773,5.365,5.365,0,0,0-4.526-2.489c-.152,0-.3.008-.452.02a11.944,11.944,0,0,1,9.5-19.18,11.823,11.823,0,0,1,5.377,1.276.84.84,0,1,0,.757-1.5A13.486,13.486,0,0,0,28.671.435,13.625,13.625,0,0,0,17.422,21.747,5.359,5.359,0,0,0,15.8,30.405a4.92,4.92,0,0,0-4.037,4.833v4.468H8.92v-.97a.84.84,0,0,0-.84-.84H.84a.84.84,0,0,0-.84.84v18.1a.84.84,0,0,0,.84.84H8.081a.84.84,0,0,0,.84-.84v-.97h3.212l11.016.691a.84.84,0,1,0,.105-1.677l-10.26-.644V40.953l1.563-1.234a8.027,8.027,0,0,1,10.03.066L26.332,41.2a.84.84,0,0,0,.529.187h8.6a1.875,1.875,0,0,1,0,3.751H25.729a.84.84,0,0,0-.594.246l-1.188,1.188a.84.84,0,1,0,1.188,1.188l.942-.942H43.332a.84.84,0,0,0,.594-.246l8.534-8.535a1.876,1.876,0,0,1,2.652,2.652L45.78,50.021a3.7,3.7,0,0,1-1.519.915L31.529,54.868a8.17,8.17,0,0,1-2.936.349l-1.428-.09A.84.84,0,0,0,27.06,56.8l1.428.09q.313.019.624.019a9.829,9.829,0,0,0,2.913-.441l12.731-3.932a5.384,5.384,0,0,0,2.211-1.332L56.3,41.876a3.56,3.56,0,0,0,0-5.028ZM37.722,22.955a3.685,3.685,0,1,1-3.685,3.685,3.69,3.69,0,0,1,3.685-3.685Zm-10.03-1.68a.29.29,0,0,1-.278-.2l-.732-2.341a.84.84,0,0,0-.382-.477l-.076-.044a.84.84,0,0,0-.6-.093l-2.393.537a.29.29,0,0,1-.316-.139l-.978-1.695a.29.29,0,0,1,.038-.343l1.662-1.8a.84.84,0,0,0,.222-.569v-.087a.84.84,0,0,0-.222-.569l-1.662-1.8a.29.29,0,0,1-.038-.343L22.911,9.6a.291.291,0,0,1,.316-.139L25.621,10a.839.839,0,0,0,.6-.093l.076-.044a.84.84,0,0,0,.382-.477l.732-2.341a.29.29,0,0,1,.278-.2h1.957a.29.29,0,0,1,.278.2l.732,2.341a.839.839,0,0,0,.381.477l.076.044a.84.84,0,0,0,.6.093l2.393-.537a.29.29,0,0,1,.316.139l.978,1.695a.29.29,0,0,1-.038.343l-1.662,1.8a.84.84,0,0,0-.222.569V14.1a.84.84,0,0,0,.222.569l1.662,1.8a.29.29,0,0,1,.038.343l-.978,1.695a.291.291,0,0,1-.316.139l-2.394-.537a.839.839,0,0,0-.6.092l-.077.045a.84.84,0,0,0-.381.476l-.732,2.341a.29.29,0,0,1-.278.2H27.693Zm.978,1.68a3.685,3.685,0,1,1-3.685,3.685,3.69,3.69,0,0,1,3.685-3.685Zm-9.052,0a3.685,3.685,0,1,1-3.685,3.685,3.69,3.69,0,0,1,3.685-3.685ZM7.241,56H1.68V39.576H7.241ZM8.92,41.386h2.393v12.8H8.92Zm7.426-4.537A9.683,9.683,0,0,0,13.516,38.4l-.071.056V35.238a3.236,3.236,0,0,1,3.233-3.233h5.357a4.891,4.891,0,0,0-1.218,3.233V36.4a9.661,9.661,0,0,0-4.47.45Zm9.3,1.631a9.712,9.712,0,0,0-3.149-1.7V35.238a3.236,3.236,0,0,1,3.233-3.233h5.883a3.237,3.237,0,0,1,3.233,3.233v4.468H27.158Z" transform="translate(0 -0.435)"/>
      </g>
    </g>
  </g>
</svg>
