<svg xmlns="http://www.w3.org/2000/svg" xmlns:xlink="http://www.w3.org/1999/xlink" width="108" height="108" viewBox="0 0 108 108">
  <defs>
    <filter id="Trazado_982549" x="0" y="0" width="108" height="108" filterUnits="userSpaceOnUse">
      <feOffset dy="3" input="SourceAlpha"/>
      <feGaussianBlur stdDeviation="3" result="blur"/>
      <feFlood flood-opacity="0.161"/>
      <feComposite operator="in" in2="blur"/>
      <feComposite in="SourceGraphic"/>
    </filter>
  </defs>
  <g id="Grupo_1158200" data-name="Grupo 1158200" transform="translate(-623 -1129)">
    <g id="Grupo_1158023" data-name="Grupo 1158023" transform="translate(632 1135)">
      <g id="Grupo_1149033" data-name="Grupo 1149033">
        <g id="Grupo_1146766" data-name="Grupo 1146766">
          <g id="Grupo_1146639" data-name="Grupo 1146639">
            <g transform="matrix(1, 0, 0, 1, -9, -6)" filter="url(#Trazado_982549)">
              <g id="Trazado_982549-2" data-name="Trazado 982549" transform="translate(9 6)" fill="#faece9">
                <path d="M 45 88.5 C 39.12687683105469 88.5 33.43022537231445 87.35007476806641 28.06830024719238 85.08217620849609 C 22.88852500915527 82.89131164550781 18.23629951477051 79.75458526611328 14.2408504486084 75.75914764404297 C 10.24541282653809 71.76370239257812 7.108687400817871 67.11147308349609 4.917825222015381 61.93170166015625 C 2.649924993515015 56.56977462768555 1.5 50.87312316894531 1.5 45 C 1.5 39.12687683105469 2.649924993515015 33.43022537231445 4.917825222015381 28.06830024719238 C 7.108687400817871 22.88852500915527 10.24541282653809 18.23629951477051 14.2408504486084 14.2408504486084 C 18.23629951477051 10.24541282653809 22.88852500915527 7.108687400817871 28.06830024719238 4.917825222015381 C 33.43022537231445 2.649924993515015 39.12687683105469 1.5 45 1.5 C 50.87312316894531 1.5 56.56977462768555 2.649924993515015 61.93170166015625 4.917825222015381 C 67.11147308349609 7.108687400817871 71.76370239257812 10.24541282653809 75.75914764404297 14.2408504486084 C 79.75458526611328 18.23629951477051 82.89131164550781 22.88852500915527 85.08217620849609 28.06830024719238 C 87.35007476806641 33.43022537231445 88.5 39.12687683105469 88.5 45 C 88.5 50.87312316894531 87.35007476806641 56.56977462768555 85.08217620849609 61.93170166015625 C 82.89131164550781 67.11147308349609 79.75458526611328 71.76370239257812 75.75914764404297 75.75914764404297 C 71.76370239257812 79.75458526611328 67.11147308349609 82.89131164550781 61.93170166015625 85.08217620849609 C 56.56977462768555 87.35007476806641 50.87312316894531 88.5 45 88.5 Z" stroke="none"/>
                <path d="M 45 3 C 39.32871246337891 3 33.82865524291992 4.110054016113281 28.65262985229492 6.299339294433594 C 23.65165710449219 8.414573669433594 19.15968322753906 11.44334411621094 15.301513671875 15.301513671875 C 11.44334411621094 19.15968322753906 8.414573669433594 23.65165710449219 6.299339294433594 28.65262985229492 C 4.110054016113281 33.82865524291992 3 39.32871246337891 3 45 C 3 50.67128753662109 4.110054016113281 56.17134475708008 6.299339294433594 61.34737396240234 C 8.414573669433594 66.34834289550781 11.44334411621094 70.84031677246094 15.301513671875 74.698486328125 C 19.15968322753906 78.55665588378906 23.65165710449219 81.58542633056641 28.65262985229492 83.70066070556641 C 33.82865524291992 85.88994598388672 39.32871246337891 87 45 87 C 50.67128753662109 87 56.17134475708008 85.88994598388672 61.34737396240234 83.70066070556641 C 66.34834289550781 81.58542633056641 70.84031677246094 78.55665588378906 74.698486328125 74.698486328125 C 78.55665588378906 70.84031677246094 81.58542633056641 66.34834289550781 83.70066070556641 61.34737396240234 C 85.88994598388672 56.17134475708008 87 50.67128753662109 87 45 C 87 39.32871246337891 85.88994598388672 33.82865524291992 83.70066070556641 28.65262985229492 C 81.58542633056641 23.65165710449219 78.55665588378906 19.15968322753906 74.698486328125 15.301513671875 C 70.84031677246094 11.44334411621094 66.34834289550781 8.414573669433594 61.34737396240234 6.299339294433594 C 56.17134475708008 4.110054016113281 50.67128753662109 3 45 3 M 45 0 C 69.85281372070312 0 90 20.14718627929688 90 45 C 90 69.85281372070312 69.85281372070312 90 45 90 C 20.14718627929688 90 0 69.85281372070312 0 45 C 0 20.14718627929688 20.14718627929688 0 45 0 Z" stroke="none" fill="#f97c61"/>
              </g>
            </g>
          </g>
        </g>
      </g>
    </g>
    <g id="obrero" transform="translate(634.992 1137.927)">
      <g id="Grupo_1158177" data-name="Grupo 1158177" transform="translate(9.941 9.998)">
        <g id="Grupo_1158174" data-name="Grupo 1158174" transform="translate(0)">
          <path id="Trazado_992514" data-name="Trazado 992514" d="M77.968,53.344a7.094,7.094,0,0,0-5.014,12.1,2.1,2.1,0,0,1,0,2.976l-4.531,4.531a2.1,2.1,0,0,1-2.976,0,7.094,7.094,0,0,0-12.1,5.014,2.1,2.1,0,0,1-2.1,2.1H44.832a2.1,2.1,0,0,1-2.1-2.1,7.09,7.09,0,0,0-12.1-5.014,2.1,2.1,0,0,1-2.976,0l-4.531-4.531a2.1,2.1,0,0,1,0-2.976,7.094,7.094,0,0,0-5.014-12.1,2.1,2.1,0,0,1-2.1-2.1V44.832a2.1,2.1,0,0,1,2.1-2.1,7.094,7.094,0,0,0,5.014-12.1,2.1,2.1,0,0,1,0-2.976l4.531-4.531a2.1,2.1,0,0,1,2.976,0,7.094,7.094,0,0,0,12.1-5.014,2.1,2.1,0,0,1,2.1-2.1h6.407a2.1,2.1,0,0,1,2.1,2.1,7.094,7.094,0,0,0,12.1,5.014,2.1,2.1,0,0,1,2.976,0l4.531,4.531a2.1,2.1,0,0,1,0,2.976,7.094,7.094,0,0,0,5.014,12.1,2.1,2.1,0,0,1,2.1,2.1v6.407A2.1,2.1,0,0,1,77.968,53.344Z" transform="translate(-15.999 -15.999)" fill="#fdcd56" fill-rule="evenodd"/>
          <path id="Trazado_992515" data-name="Trazado 992515" d="M134.717,116.034a18.683,18.683,0,1,1-18.683,18.683h0A18.683,18.683,0,0,1,134.717,116.034Z" transform="translate(-102.681 -102.681)" fill="#f4f6f8" fill-rule="evenodd"/>
        </g>
        <g id="Grupo_1158176" data-name="Grupo 1158176" transform="translate(17.01 17.839)">
          <path id="Trazado_992516" data-name="Trazado 992516" d="M173.479,351.827c0,8.3-30.054,8.3-30.054,0a15.027,15.027,0,0,1,30.054,0Z" transform="translate(-143.425 -311.817)" fill="#f76c82" fill-rule="evenodd"/>
          <path id="Trazado_992517" data-name="Trazado 992517" d="M198.86,369.47c-5.652,2.112-15.159,2.112-20.811,0V353.99a15.087,15.087,0,0,1,2.905-2.183v3.953a1.98,1.98,0,0,0,1.977,1.977h11.047a1.98,1.98,0,0,0,1.977-1.977v-3.954a15.076,15.076,0,0,1,2.905,2.183v15.48Z" transform="translate(-173.427 -324.821)" fill="#66d4f1" fill-rule="evenodd"/>
          <path id="Trazado_992518" data-name="Trazado 992518" d="M218.6,460.064a38.5,38.5,0,0,1-13.62,0V455.23H218.6Z" transform="translate(-196.766 -414.438)" fill="#4fc0e8" fill-rule="evenodd"/>
          <path id="Trazado_992519" data-name="Trazado 992519" d="M203.974,209.708a6.945,6.945,0,1,0,6.945-6.944A6.945,6.945,0,0,0,203.974,209.708Z" transform="translate(-195.892 -195.673)" fill="#efc7a4" fill-rule="evenodd"/>
          <path id="Trazado_992520" data-name="Trazado 992520" d="M194.631,160.286h16.384a8.194,8.194,0,0,0-5.8-7.835v-.937a1.875,1.875,0,0,0-1.871-1.871H202.3a1.875,1.875,0,0,0-1.871,1.871v.937A8.194,8.194,0,0,0,194.631,160.286Z" transform="translate(-187.796 -149.642)" fill="#fdcd56" fill-rule="evenodd"/>
          <g id="Grupo_1158175" data-name="Grupo 1158175" transform="translate(5.368 2.808)">
            <path id="Trazado_992521" data-name="Trazado 992521" d="M184.039,218.995h18.518a.4.4,0,0,1,.4.4v2.565a.4.4,0,0,1-.4.4H184.039a.4.4,0,0,1-.4-.4V219.4A.4.4,0,0,1,184.039,218.995Z" transform="translate(-183.639 -212.546)" fill="#f5b945" fill-rule="evenodd"/>
            <path id="Trazado_992522" data-name="Trazado 992522" d="M232.6,171.519a8.147,8.147,0,0,0-1.869-.839v3.393a.934.934,0,1,0,1.869,0Zm-6.653-.839a8.153,8.153,0,0,0-1.869.84v2.553a.934.934,0,0,0,1.869,0Z" transform="translate(-218.681 -170.68)" fill="#f5b945" fill-rule="evenodd"/>
          </g>
        </g>
      </g>
      <path id="Trazado_992523" data-name="Trazado 992523" d="M50.705,39.516H33.254v-1.5H50.705ZM45.531,9.073h-7.1a3.043,3.043,0,0,0-2.691,3.019,6.159,6.159,0,0,1-10.508,4.353,3.04,3.04,0,0,0-4.3,0L16.4,20.976a3.041,3.041,0,0,0,0,4.3,6.16,6.16,0,0,1-4.353,10.509,3.043,3.043,0,0,0-3.039,3.039v6.407a3.043,3.043,0,0,0,3.039,3.039A6.16,6.16,0,0,1,16.4,58.776a3.042,3.042,0,0,0,0,4.3L20.931,67.6a3.038,3.038,0,0,0,4.3,0,6.521,6.521,0,0,1,.818-.694c-.018.307-.028.616-.028.927,0,1.637.921,3.93,5.307,5.545A32.025,32.025,0,0,0,41.979,75c7.945,0,15.962-2.213,15.962-7.159q0-.467-.028-.927a6.415,6.415,0,0,1,.817.693,3.04,3.04,0,0,0,4.3,0l4.533-4.531a3.05,3.05,0,0,0,0-4.3,6.158,6.158,0,0,1,4.353-10.509,3.041,3.041,0,0,0,3.034-3.039V38.82a3.041,3.041,0,0,0-3.034-3.039,6.158,6.158,0,0,1-4.353-10.509,3.049,3.049,0,0,0,0-4.3l-4.533-4.531a3.04,3.04,0,0,0-4.3,0,6.159,6.159,0,0,1-10.509-4.352,3.044,3.044,0,0,0-2.691-3.019Zm2.46,32.789a6.011,6.011,0,1,1-12.022,0c0-.16.008-.318.02-.477h11.98c.013.159.021.318.021.477Zm-9.339-9.84v2.006a.935.935,0,0,0,1.869,0V29.7a.938.938,0,0,1,.937-.937H42.5a.938.938,0,0,1,.937.937v4.33a.934.934,0,0,0,1.869,0V32.023a7.342,7.342,0,0,1,3.548,4.128H35.1a7.333,7.333,0,0,1,3.548-4.128Zm12.987,4.128h-.833a9.21,9.21,0,0,0-5.5-6.178V29.7A2.809,2.809,0,0,0,42.5,26.893H41.458A2.809,2.809,0,0,0,38.652,29.7v.274a9.211,9.211,0,0,0-5.5,6.178H32.32a.935.935,0,0,0-.935.934V40.45a.935.935,0,0,0,.935.935h1.8c-.009.159-.016.318-.016.477a7.88,7.88,0,0,0,15.76,0c0-.16-.006-.319-.016-.477h1.8a.936.936,0,0,0,.935-.935V37.085a.935.935,0,0,0-.935-.934Zm21.443,9.077V38.821a1.173,1.173,0,0,0-1.168-1.17,8.028,8.028,0,0,1-5.677-13.7,1.171,1.171,0,0,0,0-1.655l-4.531-4.531a1.172,1.172,0,0,0-1.655,0,8.028,8.028,0,0,1-13.7-5.674,1.171,1.171,0,0,0-1.17-1.17H38.776a1.171,1.171,0,0,0-1.171,1.17,8.027,8.027,0,0,1-13.7,5.674,1.172,1.172,0,0,0-1.656,0L17.722,22.3a1.171,1.171,0,0,0,0,1.655,8.028,8.028,0,0,1-5.674,13.7,1.172,1.172,0,0,0-1.171,1.17v6.407a1.172,1.172,0,0,0,1.171,1.17,8.028,8.028,0,0,1,5.674,13.7,1.171,1.171,0,0,0,0,1.655l4.53,4.531a1.172,1.172,0,0,0,1.656,0,8.1,8.1,0,0,1,2.441-1.689,15.931,15.931,0,0,1,3.517-7.139,19.618,19.618,0,1,1,24.227,0,15.923,15.923,0,0,1,3.517,7.14,8.082,8.082,0,0,1,2.441,1.688,1.172,1.172,0,0,0,1.655,0l4.531-4.531a1.171,1.171,0,0,0,0-1.655,8.028,8.028,0,0,1,5.677-13.7,1.173,1.173,0,0,0,1.168-1.17ZM53.32,71.055V59.479a14.023,14.023,0,0,1,2.752,8.358C56.072,69.068,55.062,70.176,53.32,71.055ZM36.1,72.679V69.553h11.75v3.126a38.761,38.761,0,0,1-11.75,0ZM52.789,56.1a17.749,17.749,0,1,0-21.618,0,15.931,15.931,0,0,1,21.618,0Zm-17.375-.733a14.066,14.066,0,0,1,13.131,0v3.4A1.043,1.043,0,0,1,47.5,59.809H36.457a1.043,1.043,0,0,1-1.043-1.042ZM48.789,67.684H35.17a.935.935,0,0,0-.935.935v3.688q-.919-.218-1.727-.487V57.41q.5-.452,1.037-.856v2.213a2.915,2.915,0,0,0,2.912,2.911H47.5a2.914,2.914,0,0,0,2.911-2.911V56.554q.539.4,1.037.856V71.82q-.807.269-1.727.487V68.619a.934.934,0,0,0-.934-.935Zm-20.9.153a14.019,14.019,0,0,1,2.752-8.357V71.055C28.9,70.176,27.887,69.068,27.887,67.837Z" fill-rule="evenodd"/>
    </g>
  </g>
</svg>
