<svg xmlns="http://www.w3.org/2000/svg" xmlns:xlink="http://www.w3.org/1999/xlink" width="108" height="108" viewBox="0 0 108 108">
  <defs>
    <filter id="Trazado_982549" x="0" y="0" width="108" height="108" filterUnits="userSpaceOnUse">
      <feOffset dy="3" input="SourceAlpha"/>
      <feGaussianBlur stdDeviation="3" result="blur"/>
      <feFlood flood-opacity="0.161"/>
      <feComposite operator="in" in2="blur"/>
      <feComposite in="SourceGraphic"/>
    </filter>
  </defs>
  <g id="Grupo_1158183" data-name="Grupo 1158183" transform="translate(-171 -281)">
    <g id="Grupo_1158024" data-name="Grupo 1158024" transform="translate(-277 -425)">
      <g id="Grupo_1149030" data-name="Grupo 1149030" transform="translate(-173 371)">
        <g id="Grupo_1146639" data-name="Grupo 1146639" transform="translate(420 -822)">
          <g transform="matrix(1, 0, 0, 1, 201, 1157)" filter="url(#Trazado_982549)">
            <g id="Trazado_982549-2" data-name="Trazado 982549" transform="translate(9 6)" fill="#faece9">
              <path d="M 45 88.5 C 39.12687683105469 88.5 33.43022537231445 87.35007476806641 28.06830024719238 85.08217620849609 C 22.88852500915527 82.89131164550781 18.23629951477051 79.75458526611328 14.2408504486084 75.75914764404297 C 10.24541282653809 71.76370239257812 7.108687400817871 67.11147308349609 4.917825222015381 61.93170166015625 C 2.649924993515015 56.56977462768555 1.5 50.87312316894531 1.5 45 C 1.5 39.12687683105469 2.649924993515015 33.43022537231445 4.917825222015381 28.06830024719238 C 7.108687400817871 22.88852500915527 10.24541282653809 18.23629951477051 14.2408504486084 14.2408504486084 C 18.23629951477051 10.24541282653809 22.88852500915527 7.108687400817871 28.06830024719238 4.917825222015381 C 33.43022537231445 2.649924993515015 39.12687683105469 1.5 45 1.5 C 50.87312316894531 1.5 56.56977462768555 2.649924993515015 61.93170166015625 4.917825222015381 C 67.11147308349609 7.108687400817871 71.76370239257812 10.24541282653809 75.75914764404297 14.2408504486084 C 79.75458526611328 18.23629951477051 82.89131164550781 22.88852500915527 85.08217620849609 28.06830024719238 C 87.35007476806641 33.43022537231445 88.5 39.12687683105469 88.5 45 C 88.5 50.87312316894531 87.35007476806641 56.56977462768555 85.08217620849609 61.93170166015625 C 82.89131164550781 67.11147308349609 79.75458526611328 71.76370239257812 75.75914764404297 75.75914764404297 C 71.76370239257812 79.75458526611328 67.11147308349609 82.89131164550781 61.93170166015625 85.08217620849609 C 56.56977462768555 87.35007476806641 50.87312316894531 88.5 45 88.5 Z" stroke="none"/>
              <path d="M 45 3 C 39.32871246337891 3 33.82865524291992 4.110054016113281 28.65262985229492 6.299339294433594 C 23.65165710449219 8.414573669433594 19.15968322753906 11.44334411621094 15.301513671875 15.301513671875 C 11.44334411621094 19.15968322753906 8.414573669433594 23.65165710449219 6.299339294433594 28.65262985229492 C 4.110054016113281 33.82865524291992 3 39.32871246337891 3 45 C 3 50.67128753662109 4.110054016113281 56.17134475708008 6.299339294433594 61.34737396240234 C 8.414573669433594 66.34834289550781 11.44334411621094 70.84031677246094 15.301513671875 74.698486328125 C 19.15968322753906 78.55665588378906 23.65165710449219 81.58542633056641 28.65262985229492 83.70066070556641 C 33.82865524291992 85.88994598388672 39.32871246337891 87 45 87 C 50.67128753662109 87 56.17134475708008 85.88994598388672 61.34737396240234 83.70066070556641 C 66.34834289550781 81.58542633056641 70.84031677246094 78.55665588378906 74.698486328125 74.698486328125 C 78.55665588378906 70.84031677246094 81.58542633056641 66.34834289550781 83.70066070556641 61.34737396240234 C 85.88994598388672 56.17134475708008 87 50.67128753662109 87 45 C 87 39.32871246337891 85.88994598388672 33.82865524291992 83.70066070556641 28.65262985229492 C 81.58542633056641 23.65165710449219 78.55665588378906 19.15968322753906 74.698486328125 15.301513671875 C 70.84031677246094 11.44334411621094 66.34834289550781 8.414573669433594 61.34737396240234 6.299339294433594 C 56.17134475708008 4.110054016113281 50.67128753662109 3 45 3 M 45 0 C 69.85281372070312 0 90 20.14718627929688 90 45 C 90 69.85281372070312 69.85281372070312 90 45 90 C 20.14718627929688 90 0 69.85281372070312 0 45 C 0 20.14718627929688 20.14718627929688 0 45 0 Z" stroke="none" fill="#f97c61"/>
            </g>
          </g>
        </g>
      </g>
    </g>
    <g id="industrial" transform="translate(128.739 289.999)">
      <g id="Grupo_1158182" data-name="Grupo 1158182" transform="translate(72.356 17.622)">
        <g id="Grupo_1158179" data-name="Grupo 1158179" transform="translate(3.939 36.982)">
          <path id="Trazado_992524" data-name="Trazado 992524" d="M148.564,348v2.745l-3.362,1.294a17.318,17.318,0,0,1-2.1,5.07l1.463,3.294-3.883,3.883-3.293-1.463a17.308,17.308,0,0,1-5.071,2.1l-1.294,3.361h-5.491l-1.294-3.362a17.313,17.313,0,0,1-5.07-2.1l-3.294,1.463-3.883-3.883,1.463-3.293a17.307,17.307,0,0,1-2.1-5.071l-3.361-1.294V348H118.7a9.576,9.576,0,0,0,19.151,0Z" transform="translate(-107.992 -348.003)" fill="#ffe177" fill-rule="evenodd"/>
          <path id="Trazado_992525" data-name="Trazado 992525" d="M165.49,362.826l-3.294,1.463-.525-.525,3.08-1.368Q165.115,362.621,165.49,362.826ZM194.884,348v2.745l-3.362,1.294a17.316,17.316,0,0,1-2.1,5.07l1.463,3.294L187,364.29l-1.183-.525,3.357-3.357-1.463-3.294a17.313,17.313,0,0,0,2.1-5.07l3.362-1.294V348Zm-11.176,14.823a17.308,17.308,0,0,1-5.071,2.1l-1.294,3.361h-1.708l1.294-3.361a23.046,23.046,0,0,0,5.81-2.532Z" transform="translate(-154.313 -348.004)" fill="#ffd064" fill-rule="evenodd"/>
        </g>
        <g id="Grupo_1158181" data-name="Grupo 1158181" transform="translate(0)">
          <path id="Trazado_992526" data-name="Trazado 992526" d="M103.29,79.044l2.364,20.272H95.61l2.364-20.272a.956.956,0,0,1,.953-.848h3.41A.956.956,0,0,1,103.29,79.044Z" transform="translate(-93.368 -78.196)" fill="#d1d1d6" fill-rule="evenodd"/>
          <path id="Trazado_992527" data-name="Trazado 992527" d="M138.489,79.044l2.364,20.272h-1.136l-2.364-20.272a.956.956,0,0,0-.953-.848h1.136A.956.956,0,0,1,138.489,79.044Z" transform="translate(-128.567 -78.196)" fill="#b1b1b5" fill-rule="evenodd"/>
          <path id="Trazado_992528" data-name="Trazado 992528" d="M80.075,103.65H92.652a.824.824,0,0,1,.822.822v2.836l10.539-2.962a.685.685,0,0,1,.871.66v2.3l11.41-3.207V96.135a.677.677,0,0,1,.5-.66l10.039-2.822a.685.685,0,0,1,.871.66v30.409a.824.824,0,0,1-.822.822H80.075a.824.824,0,0,1-.822-.822V104.473a.824.824,0,0,1,.822-.823Z" transform="translate(-79.253 -90.648)" fill="#eceff1" fill-rule="evenodd"/>
          <path id="Trazado_992529" data-name="Trazado 992529" d="M167.007,103.65h1.371a.824.824,0,0,1,.822.822v2.836l10.539-2.962a.685.685,0,0,1,.871.66v2.3l11.41-3.207V96.135a.677.677,0,0,1,.5-.66l10.039-2.822a.685.685,0,0,1,.871.66v30.409a.824.824,0,0,1-.822.822H167.829V104.473a.824.824,0,0,0-.822-.823Z" transform="translate(-154.979 -90.648)" fill="#d1d1d6" fill-rule="evenodd"/>
          <path id="Trazado_992530" data-name="Trazado 992530" d="M109.705,237.263h4.454a.825.825,0,0,1,.822.822v11.271h-6.1V238.085A.825.825,0,0,1,109.705,237.263Z" transform="translate(-104.822 -215.46)" fill="#d1d1d6" fill-rule="evenodd"/>
          <path id="Trazado_992531" data-name="Trazado 992531" d="M109.705,237.263h.937a.825.825,0,0,0-.822.822v11.271h-.937V238.085A.825.825,0,0,1,109.705,237.263Z" transform="translate(-104.822 -215.46)" fill="#b1b1b5" fill-rule="evenodd"/>
          <path id="Trazado_992532" data-name="Trazado 992532" d="M183.008,180.922l10.539-2.962a.685.685,0,0,1,.871.66v19.539h-11.41V180.922Z" transform="translate(-168.787 -164.262)" fill="#d1d1d6" fill-rule="evenodd"/>
          <path id="Trazado_992533" data-name="Trazado 992533" d="M183.008,197.317l1.371-.385v17.621h-1.371Z" transform="translate(-168.787 -180.657)" fill="#b1b1b5" fill-rule="evenodd"/>
          <path id="Trazado_992534" data-name="Trazado 992534" d="M213.424,237.263H216.5v3.072h-3.072Z" transform="translate(-195.034 -215.46)" fill="#eceff1" fill-rule="evenodd"/>
          <path id="Trazado_992535" data-name="Trazado 992535" d="M266.249,179.552l11.41-3.207v20.443h-11.41Z" transform="translate(-240.618 -162.892)" fill="#b1b1b5" fill-rule="evenodd"/>
          <path id="Trazado_992536" data-name="Trazado 992536" d="M266.249,197.317l1.371-.385v17.621h-1.371Z" transform="translate(-240.618 -180.657)" fill="#9c9c9e" fill-rule="evenodd"/>
          <path id="Trazado_992537" data-name="Trazado 992537" d="M296.665,237.263h3.072v3.072h-3.072Z" transform="translate(-266.865 -215.46)" fill="#eceff1" fill-rule="evenodd"/>
          <path id="Trazado_992538" data-name="Trazado 992538" d="M349.99,95.474l10.039-2.822a.685.685,0,0,1,.871.66v30.409a.824.824,0,0,1-.822.822H349.49V96.134A.677.677,0,0,1,349.99,95.474Z" transform="translate(-312.449 -90.647)" fill="#d1d1d6" fill-rule="evenodd"/>
          <path id="Trazado_992539" data-name="Trazado 992539" d="M349.99,111.87l.871-.245v29.314H349.49V112.53A.677.677,0,0,1,349.99,111.87Z" transform="translate(-312.449 -107.043)" fill="#9c9c9e" fill-rule="evenodd"/>
          <g id="Grupo_1158180" data-name="Grupo 1158180" transform="translate(41.21 11.752)">
            <path id="Trazado_992540" data-name="Trazado 992540" d="M379.907,237.263h3.072v3.072h-3.072Z" transform="translate(-379.907 -227.213)" fill="#eceff1" fill-rule="evenodd"/>
            <path id="Trazado_992541" data-name="Trazado 992541" d="M379.907,163.938h3.072v3.072h-3.072Z" transform="translate(-379.907 -163.938)" fill="#eceff1" fill-rule="evenodd"/>
          </g>
        </g>
      </g>
      <path id="Trazado_992542" data-name="Trazado 992542" d="M115.771,56.6l-2.659,1.024a1.089,1.089,0,0,0-.673.769,16.219,16.219,0,0,1-1.97,4.748,1.1,1.1,0,0,0-.067,1.02l1.157,2.607-2.818,2.818-2.6-1.159a1.1,1.1,0,0,0-1.021.069,16.213,16.213,0,0,1-4.749,1.97,1.093,1.093,0,0,0-.769.673l-1.024,2.658H94.589l-1.024-2.659a1.1,1.1,0,0,0-.769-.674,16.16,16.16,0,0,1-4.748-1.968,1.1,1.1,0,0,0-1.021-.069l-2.606,1.159L81.6,66.765l1.157-2.606a1.1,1.1,0,0,0-.068-1.02,16.17,16.17,0,0,1-1.968-4.749,1.1,1.1,0,0,0-.674-.77L77.392,56.6v-.9h8.572a10.673,10.673,0,0,0,21.233,0h8.574v.9Zm1.1-3.09h-10.71a1.1,1.1,0,0,0-1.1,1.1,8.48,8.48,0,0,1-16.959,0,1.1,1.1,0,0,0-1.1-1.1H76.3a1.1,1.1,0,0,0-1.1,1.1v2.745a1.1,1.1,0,0,0,.7,1.024l2.832,1.09a18.382,18.382,0,0,0,1.793,4.324l-1.232,2.774a1.1,1.1,0,0,0,.226,1.221L83.4,71.665a1.1,1.1,0,0,0,1.22.228L87.4,70.659a18.39,18.39,0,0,0,4.321,1.793l1.092,2.833a1.1,1.1,0,0,0,1.023.7h5.491a1.1,1.1,0,0,0,1.023-.7l1.091-2.833a18.325,18.325,0,0,0,4.323-1.793l2.775,1.233a1.1,1.1,0,0,0,1.22-.228l3.883-3.882a1.1,1.1,0,0,0,.226-1.221l-1.232-2.775a18.43,18.43,0,0,0,1.791-4.323l2.834-1.09a1.1,1.1,0,0,0,.7-1.024V54.6a1.1,1.1,0,0,0-1.1-1.1ZM92.009,11.672a1.1,1.1,0,0,1-1.1,1.1H82.225a.073.073,0,0,0-.053.025.075.075,0,0,0-.025.053v2.075a1.1,1.1,0,1,1-2.193,0V12.846a2.28,2.28,0,0,1,2.271-2.271h8.688a1.1,1.1,0,0,1,1.1,1.1ZM77.38,14.922a1.1,1.1,0,1,0,2.193,0V12.846a2.661,2.661,0,0,1,2.652-2.652h8.688a1.1,1.1,0,0,0,0-2.194H82.225a4.852,4.852,0,0,0-4.845,4.845Zm37.282,15.55h.879v.879h-.879Zm-1.1,3.072h3.072a1.1,1.1,0,0,0,1.1-1.1V29.374a1.1,1.1,0,0,0-1.1-1.1h-3.072a1.1,1.1,0,0,0-1.1,1.1v3.072A1.1,1.1,0,0,0,113.566,33.543Zm1.1,6.979h.879V41.4h-.879Zm-1.1,3.072h3.072a1.1,1.1,0,0,0,1.1-1.1V39.425a1.1,1.1,0,0,0-1.1-1.1h-3.072a1.1,1.1,0,0,0-1.1,1.1V42.5A1.1,1.1,0,0,0,113.566,43.593Zm-10.313-3.072h.879V41.4h-.879Zm-1.1,3.072h3.072a1.1,1.1,0,0,0,1.1-1.1V39.425a1.1,1.1,0,0,0-1.1-1.1h-3.072a1.1,1.1,0,0,0-1.1,1.1V42.5A1.1,1.1,0,0,0,102.156,43.593ZM91.843,40.522h.879V41.4h-.879Zm-1.1,3.072h3.072a1.1,1.1,0,0,0,1.1-1.1V39.425a1.1,1.1,0,0,0-1.1-1.1H90.747a1.1,1.1,0,0,0-1.1,1.1V42.5A1.1,1.1,0,0,0,90.747,43.593Zm28.963,6.829V20.83l-9.217,2.591v27Zm-38.291,0H77.514v-9.9h3.905Zm-7.966-18.7v18.7h1.868v-11a1.1,1.1,0,0,1,1.1-1.1h6.1a1.1,1.1,0,0,1,1.1,1.1v11h1.868v-18.7Zm4.584-13H81.2l1.261,10.808H76.777Zm18.853,13.8-9.217,2.59V50.422H96.89Zm11.41,0-9.217,2.59V50.422H108.3Zm13.169-14.014a1.1,1.1,0,0,0-.959-.182L109.1,21.534a1.1,1.1,0,0,0-.8,1.056v7.654l-9.217,2.591v-1.76A1.1,1.1,0,0,0,97.69,30.02L87.674,32.835V30.624a1.1,1.1,0,0,0-1.1-1.1H84.671L83.268,17.5a1.1,1.1,0,0,0-1.09-.97H77.061a1.1,1.1,0,0,0-1.09.97l-1.4,12.032H72.356a1.1,1.1,0,0,0-1.1,1.1V51.518a1.1,1.1,0,0,0,1.1,1.1h48.451a1.1,1.1,0,0,0,1.1-1.1V19.383a1.1,1.1,0,0,0-.435-.874Z" fill-rule="evenodd"/>
    </g>
  </g>
</svg>
