<svg xmlns="http://www.w3.org/2000/svg" width="35.463" height="34.994" viewBox="0 0 35.463 34.994">
  <g id="encontrar" transform="translate(-2 -2.423)">
    <g id="Grupo_1157487" data-name="Grupo 1157487" transform="translate(2 2.423)">
      <path id="Trazado_991953" data-name="Trazado 991953" d="M27.559,28.625A.554.554,0,0,0,27,29.18V35.4a.91.91,0,0,1-.909.909H4.017a.91.91,0,0,1-.909-.909V4.44a.91.91,0,0,1,.909-.909H20.746V8.094A1.155,1.155,0,0,0,21.9,9.247H27V13.01a.554.554,0,1,0,1.108,0V8.694a.62.62,0,0,0-.175-.4c-.056-.053-6.208-5.677-6.263-5.724h0a.618.618,0,0,0-.373-.144H4.017A2.02,2.02,0,0,0,2,4.44V35.4a2.02,2.02,0,0,0,2.018,2.017H26.1A2.02,2.02,0,0,0,28.113,35.4V29.18a.554.554,0,0,0-.554-.554ZM21.9,8.139a.046.046,0,0,1-.045-.045V4.233l4.276,3.906Z" transform="translate(-2 -2.423)"/>
      <path id="Trazado_991954" data-name="Trazado 991954" d="M7.52,10.894h9.714a.554.554,0,0,0,0-1.108H7.52a.554.554,0,0,0,0,1.108Z" transform="translate(-4.214 -5.706)"/>
      <path id="Trazado_991955" data-name="Trazado 991955" d="M27.2,19.625a.554.554,0,0,0-.554-.554H7.521a.554.554,0,1,0,0,1.108H26.643A.554.554,0,0,0,27.2,19.625Z" transform="translate(-4.214 -9.846)"/>
      <path id="Trazado_991956" data-name="Trazado 991956" d="M17.234,28.356H7.52a.554.554,0,1,0,0,1.108h9.714a.554.554,0,1,0,0-1.108Z" transform="translate(-4.214 -13.986)"/>
      <path id="Trazado_991957" data-name="Trazado 991957" d="M7.52,38.75h9.714a.554.554,0,0,0,0-1.108H7.52a.554.554,0,0,0,0,1.108Z" transform="translate(-4.214 -18.127)"/>
      <path id="Trazado_991958" data-name="Trazado 991958" d="M19.4,46.927H7.521a.554.554,0,1,0,0,1.108H19.4a.554.554,0,1,0,0-1.108Z" transform="translate(-4.214 -22.267)"/>
      <path id="Trazado_991959" data-name="Trazado 991959" d="M6.966,56.766a.554.554,0,0,0,.554.554H26.643a.554.554,0,1,0,0-1.108H7.52A.554.554,0,0,0,6.966,56.766Z" transform="translate(-4.214 -26.407)"/>
      <path id="Trazado_991960" data-name="Trazado 991960" d="M35.237,26.544a5.408,5.408,0,0,0-4.263,4.992.554.554,0,0,0,.524.583h.029a.554.554,0,0,0,.553-.525,4.3,4.3,0,0,1,3.387-3.966.554.554,0,0,0-.231-1.084Z" transform="translate(-14.918 -13.173)"/>
      <path id="Trazado_991961" data-name="Trazado 991961" d="M47.683,36.995,46.6,36.136a.554.554,0,0,0-.69.867l1.079.859A1.366,1.366,0,0,1,45.29,40l-3.768-3,1.7-2.138.833.663a.554.554,0,0,0,.69-.867l-1.267-1.009a.554.554,0,0,0-.779.088l-.066.083-1.019-.812a7.612,7.612,0,1,0-11.732,2.939,7.659,7.659,0,0,0,9.545-.042l.946.753-.066.083a.554.554,0,0,0,.088.779l4.2,3.346a2.475,2.475,0,0,0,3.083-3.872ZM30.574,35.081a6.507,6.507,0,1,1,9.371-1.338l-.2.273c-2.912,3.152-6.666,3.058-9.17,1.065Zm10.274-.695h0l0-.005q.127-.18.244-.366l.847.675-.879,1.1-.822-.655A7.181,7.181,0,0,0,40.848,34.386Z" transform="translate(-13.153 -11.322)"/>
    </g>
  </g>
</svg>
