<svg xmlns="http://www.w3.org/2000/svg" xmlns:xlink="http://www.w3.org/1999/xlink" width="108" height="108" viewBox="0 0 108 108">
  <defs>
    <filter id="Trazado_982419" x="0" y="0" width="108" height="108" filterUnits="userSpaceOnUse">
      <feOffset dy="3" input="SourceAlpha"/>
      <feGaussianBlur stdDeviation="3" result="blur"/>
      <feFlood flood-opacity="0.161"/>
      <feComposite operator="in" in2="blur"/>
      <feComposite in="SourceGraphic"/>
    </filter>
  </defs>
  <g id="Grupo_1151261" data-name="Grupo 1151261" transform="translate(-614.642 -331)">
    <g id="Grupo_1151221" data-name="Grupo 1151221" transform="translate(413.642 -493)">
      <g id="Grupo_1148991" data-name="Grupo 1148991" transform="translate(0 -2880)">
        <g id="Grupo_1148559" data-name="Grupo 1148559" transform="translate(0 3382)">
          <g transform="matrix(1, 0, 0, 1, 201, 322)" filter="url(#Trazado_982419)">
            <g id="Trazado_982419-2" data-name="Trazado 982419" transform="translate(9 6)" fill="#fffbe9">
              <path d="M 45 88.5 C 39.12687683105469 88.5 33.43022537231445 87.35007476806641 28.06830024719238 85.08217620849609 C 22.88852500915527 82.89131164550781 18.23629951477051 79.75458526611328 14.2408504486084 75.75914764404297 C 10.24541282653809 71.76370239257812 7.108687400817871 67.11147308349609 4.917825222015381 61.93170166015625 C 2.649924993515015 56.56977462768555 1.5 50.87312316894531 1.5 45 C 1.5 39.12687683105469 2.649924993515015 33.43022537231445 4.917825222015381 28.06830024719238 C 7.108687400817871 22.88852500915527 10.24541282653809 18.23629951477051 14.2408504486084 14.2408504486084 C 18.23629951477051 10.24541282653809 22.88852500915527 7.108687400817871 28.06830024719238 4.917825222015381 C 33.43022537231445 2.649924993515015 39.12687683105469 1.5 45 1.5 C 50.87312316894531 1.5 56.56977462768555 2.649924993515015 61.93170166015625 4.917825222015381 C 67.11147308349609 7.108687400817871 71.76370239257812 10.24541282653809 75.75914764404297 14.2408504486084 C 79.75458526611328 18.23629951477051 82.89131164550781 22.88852500915527 85.08217620849609 28.06830024719238 C 87.35007476806641 33.43022537231445 88.5 39.12687683105469 88.5 45 C 88.5 50.87312316894531 87.35007476806641 56.56977462768555 85.08217620849609 61.93170166015625 C 82.89131164550781 67.11147308349609 79.75458526611328 71.76370239257812 75.75914764404297 75.75914764404297 C 71.76370239257812 79.75458526611328 67.11147308349609 82.89131164550781 61.93170166015625 85.08217620849609 C 56.56977462768555 87.35007476806641 50.87312316894531 88.5 45 88.5 Z" stroke="none"/>
              <path d="M 45 3 C 39.32871246337891 3 33.82865524291992 4.110054016113281 28.65262985229492 6.299339294433594 C 23.65165710449219 8.414573669433594 19.15968322753906 11.44334411621094 15.301513671875 15.301513671875 C 11.44334411621094 19.15968322753906 8.414573669433594 23.65165710449219 6.299339294433594 28.65262985229492 C 4.110054016113281 33.82865524291992 3 39.32871246337891 3 45 C 3 50.67128753662109 4.110054016113281 56.17134475708008 6.299339294433594 61.34737396240234 C 8.414573669433594 66.34834289550781 11.44334411621094 70.84031677246094 15.301513671875 74.698486328125 C 19.15968322753906 78.55665588378906 23.65165710449219 81.58542633056641 28.65262985229492 83.70066070556641 C 33.82865524291992 85.88994598388672 39.32871246337891 87 45 87 C 50.67128753662109 87 56.17134475708008 85.88994598388672 61.34737396240234 83.70066070556641 C 66.34834289550781 81.58542633056641 70.84031677246094 78.55665588378906 74.698486328125 74.698486328125 C 78.55665588378906 70.84031677246094 81.58542633056641 66.34834289550781 83.70066070556641 61.34737396240234 C 85.88994598388672 56.17134475708008 87 50.67128753662109 87 45 C 87 39.32871246337891 85.88994598388672 33.82865524291992 83.70066070556641 28.65262985229492 C 81.58542633056641 23.65165710449219 78.55665588378906 19.15968322753906 74.698486328125 15.301513671875 C 70.84031677246094 11.44334411621094 66.34834289550781 8.414573669433594 61.34737396240234 6.299339294433594 C 56.17134475708008 4.110054016113281 50.67128753662109 3 45 3 M 45 0 C 69.85281372070312 0 90 20.14718627929688 90 45 C 90 69.85281372070312 69.85281372070312 90 45 90 C 20.14718627929688 90 0 69.85281372070312 0 45 C 0 20.14718627929688 20.14718627929688 0 45 0 Z" stroke="none" fill="#ffde33"/>
            </g>
          </g>
        </g>
      </g>
    </g>
    <g id="energia-verde" transform="translate(629.557 342.998)">
      <path id="Trazado_991302" data-name="Trazado 991302" d="M179.982,127.675a2.232,2.232,0,0,1-2.225,2.225h-8.193a2.232,2.232,0,0,1-2.225-2.225v-1.181c0-6.124-6.322-7.844-6.322-16.073,0-7.551,6.322-11.326,12.643-11.326S186.3,102.87,186.3,110.421c0,8.23-6.322,9.95-6.322,16.073v1.181Z" transform="translate(-134.313 -80.704)" fill="#fcdb35" fill-rule="evenodd"/>
      <path id="Trazado_991303" data-name="Trazado 991303" d="M199.146,128.12a2.232,2.232,0,0,1-2.225,2.225h-5.251a2.232,2.232,0,0,1-2.225-2.225V126.94c0-6.124-6.322-7.844-6.322-16.073,0-6.964,5.377-10.716,11.172-11.257,5.795.541,11.172,4.294,11.172,11.257,0,8.23-6.322,9.95-6.322,16.073v1.181Z" transform="translate(-153.478 -81.149)" fill="#ffeb87" fill-rule="evenodd"/>
      <path id="Trazado_991304" data-name="Trazado 991304" d="M265.838,265.9a33.466,33.466,0,0,1,22.774-9.821,33.578,33.578,0,0,1-32.595,32.595A33.466,33.466,0,0,1,265.838,265.9Z" transform="translate(-216.67 -216.799)" fill="#43f043" fill-rule="evenodd"/>
      <path id="Trazado_991305" data-name="Trazado 991305" d="M33.873,265.9A33.466,33.466,0,0,0,11.1,256.083a33.578,33.578,0,0,0,32.595,32.595A33.466,33.466,0,0,0,33.873,265.9Z" transform="translate(-4.347 -216.799)" fill="#29b933" fill-rule="evenodd"/>
      <path id="Trazado_991306" data-name="Trazado 991306" d="M230.609,316.248h6.763v3.142a1.708,1.708,0,0,1-1.7,1.7h-3.357a1.708,1.708,0,0,1-1.7-1.7v-3.142Z" transform="translate(-194.643 -268.957)" fill="#5d689e" fill-rule="evenodd"/>
      <path id="Trazado_991307" data-name="Trazado 991307" d="M245.942,316.248h4.722v3.142a1.708,1.708,0,0,1-1.7,1.7h-1.316a1.708,1.708,0,0,1-1.7-1.7Z" transform="translate(-207.936 -268.957)" fill="#7986bf" fill-rule="evenodd"/>
      <path id="Trazado_991308" data-name="Trazado 991308" d="M221.16,306.154a2.232,2.232,0,0,1-2.225,2.225h-8.193a2.232,2.232,0,0,1-2.225-2.225v-1.181H221.16Z" transform="translate(-175.492 -259.183)" fill="#7986bf" fill-rule="evenodd"/>
      <path id="Trazado_991309" data-name="Trazado 991309" d="M240.326,306.154a2.232,2.232,0,0,1-2.222,2.225H232.85a2.232,2.232,0,0,1-2.225-2.225v-1.181h9.7Z" transform="translate(-194.657 -259.183)" fill="#909cd1" fill-rule="evenodd"/>
      <path id="Trazado_991310" data-name="Trazado 991310" d="M8.1,33.406a.712.712,0,0,0,.118.009.658.658,0,0,0,.653-.55A30.936,30.936,0,0,1,68.59,28.217l-1.227-.982a.664.664,0,1,0-.829,1.037L69.425,30.6a.657.657,0,0,0,.418.147.648.648,0,0,0,.17-.022.667.667,0,0,0,.45-.4l1.345-3.461A.668.668,0,0,0,71.423,26a.659.659,0,0,0-.855.38l-.64,1.647A32.554,32.554,0,0,0,58.7,12.467,32.259,32.259,0,0,0,18.48,13.643,32.312,32.312,0,0,0,7.56,32.636a.673.673,0,0,0,.542.77Zm63.144,6.57A32.908,32.908,0,0,0,40.079,70.539,148.3,148.3,0,0,0,61.456,51.37a.666.666,0,0,1,.979.9,150.381,150.381,0,0,1-20.822,18.8A32.907,32.907,0,0,0,71.246,39.977Zm-54.2,21.61a32.742,32.742,0,0,0,20.913,9.555,133.681,133.681,0,0,0-19.4-21.1.666.666,0,1,1,.862-1.015A133.87,133.87,0,0,1,38.545,69.717a32.913,32.913,0,0,0-31.1-29.741,32.789,32.789,0,0,0,9.6,21.61ZM72.6,39.3A34.238,34.238,0,0,1,39.361,72.544h-.033A34.238,34.238,0,0,1,6.085,39.3a.656.656,0,0,1,.2-.489.674.674,0,0,1,.489-.2A34.262,34.262,0,0,1,39.348,66.04,34.245,34.245,0,0,1,71.919,38.618a.664.664,0,0,1,.489.2.655.655,0,0,1,.2.489ZM35.262,48.494a1.552,1.552,0,0,1-1.553-1.554v-.511H44.987v.511a1.557,1.557,0,0,1-1.553,1.554ZM41.58,35.31a3.638,3.638,0,0,1-1.488,2.008c.215-2.424.849-3.8,1.41-4.277a.507.507,0,0,1,.261-.142c.137.06.444.848-.183,2.412Zm-7.9,9.788c-.189-2.675-1.514-4.519-2.9-6.464-1.658-2.316-3.375-4.71-3.375-8.9,0-7.3,6.188-10.631,11.945-10.631s11.945,3.327,11.945,10.631c0,4.193-1.717,6.587-3.381,8.9-1.39,1.944-2.709,3.789-2.9,6.464H40.014V38.742c.868-.172,1.978-.852,2.807-2.941.666-1.682.627-3.118-.1-3.838a1.373,1.373,0,0,0-1.54-.271c-1.031.433-2.121,2.12-2.415,5.553-.933-.518-1.906-1.954-2.245-4.119a.664.664,0,1,0-1.312.2c.418,2.708,1.815,4.8,3.479,5.329V45.1Zm8.368,4.727v.569a1.034,1.034,0,0,1-1.031,1.033H37.67a1.034,1.034,0,0,1-1.031-1.033v-.569Zm-6.743.569v-.569h-.046a2.887,2.887,0,0,1-2.885-2.885V45.763c0-2.615-1.247-4.348-2.683-6.353-1.7-2.372-3.623-5.059-3.623-9.679a11.083,11.083,0,0,1,4.19-8.993,14.576,14.576,0,0,1,9.086-2.969,14.557,14.557,0,0,1,9.079,2.969,11.083,11.083,0,0,1,4.19,8.993c0,4.621-1.925,7.307-3.623,9.679-1.436,2.005-2.676,3.738-2.676,6.353V46.94a2.891,2.891,0,0,1-2.885,2.885h-.052v.569a2.364,2.364,0,0,1-2.363,2.364H37.67a2.368,2.368,0,0,1-2.363-2.364Zm-6.4-30.94a.677.677,0,0,1-.45.172.663.663,0,0,1-.489-.219L25.517,16.7a.665.665,0,1,1,.985-.892l2.448,2.705A.668.668,0,0,1,28.9,19.454Zm-9.275,8.888,3.629.367a.666.666,0,0,1-.072,1.329.566.566,0,0,1-.065,0l-3.629-.367a.666.666,0,1,1,.137-1.324ZM40.014,14.768a.666.666,0,0,1-1.332,0V11.123a.666.666,0,0,1,1.332,0Zm13.113.993a.663.663,0,0,1,.046.94l-2.441,2.705a.677.677,0,0,1-.5.219.648.648,0,0,1-.444-.172.668.668,0,0,1-.052-.939l2.448-2.705a.666.666,0,0,1,.94-.048Zm6.664,13.175a.664.664,0,0,1-.594.73l-3.629.367a.568.568,0,0,1-.065,0,.666.666,0,0,1-.065-1.329l3.623-.367A.664.664,0,0,1,59.791,28.936Z" fill-rule="evenodd"/>
    </g>
  </g>
</svg>
