<svg xmlns="http://www.w3.org/2000/svg" xmlns:xlink="http://www.w3.org/1999/xlink" width="108" height="108" viewBox="0 0 108 108">
  <defs>
    <filter id="Trazado_982419" x="0" y="0" width="108" height="108" filterUnits="userSpaceOnUse">
      <feOffset dy="3" input="SourceAlpha"/>
      <feGaussianBlur stdDeviation="3" result="blur"/>
      <feFlood flood-opacity="0.161"/>
      <feComposite operator="in" in2="blur"/>
      <feComposite in="SourceGraphic"/>
    </filter>
  </defs>
  <g id="Grupo_1151254" data-name="Grupo 1151254" transform="translate(-186 -3135)">
    <g id="Grupo_1151019" data-name="Grupo 1151019" transform="translate(-420 24.164)">
      <g id="Grupo_1150764" data-name="Grupo 1150764" transform="translate(393 2606.836)">
        <g id="Grupo_1148745" data-name="Grupo 1148745" transform="translate(12 182)">
          <g transform="matrix(1, 0, 0, 1, 201, 322)" filter="url(#Trazado_982419)">
            <g id="Trazado_982419-2" data-name="Trazado 982419" transform="translate(9 6)" fill="#fffbe9">
              <path d="M 45 88.5 C 39.12687683105469 88.5 33.43022537231445 87.35007476806641 28.06830024719238 85.08217620849609 C 22.88852500915527 82.89131164550781 18.23629951477051 79.75458526611328 14.2408504486084 75.75914764404297 C 10.24541282653809 71.76370239257812 7.108687400817871 67.11147308349609 4.917825222015381 61.93170166015625 C 2.649924993515015 56.56977462768555 1.5 50.87312316894531 1.5 45 C 1.5 39.12687683105469 2.649924993515015 33.43022537231445 4.917825222015381 28.06830024719238 C 7.108687400817871 22.88852500915527 10.24541282653809 18.23629951477051 14.2408504486084 14.2408504486084 C 18.23629951477051 10.24541282653809 22.88852500915527 7.108687400817871 28.06830024719238 4.917825222015381 C 33.43022537231445 2.649924993515015 39.12687683105469 1.5 45 1.5 C 50.87312316894531 1.5 56.56977462768555 2.649924993515015 61.93170166015625 4.917825222015381 C 67.11147308349609 7.108687400817871 71.76370239257812 10.24541282653809 75.75914764404297 14.2408504486084 C 79.75458526611328 18.23629951477051 82.89131164550781 22.88852500915527 85.08217620849609 28.06830024719238 C 87.35007476806641 33.43022537231445 88.5 39.12687683105469 88.5 45 C 88.5 50.87312316894531 87.35007476806641 56.56977462768555 85.08217620849609 61.93170166015625 C 82.89131164550781 67.11147308349609 79.75458526611328 71.76370239257812 75.75914764404297 75.75914764404297 C 71.76370239257812 79.75458526611328 67.11147308349609 82.89131164550781 61.93170166015625 85.08217620849609 C 56.56977462768555 87.35007476806641 50.87312316894531 88.5 45 88.5 Z" stroke="none"/>
              <path d="M 45 3 C 39.32871246337891 3 33.82865524291992 4.110054016113281 28.65262985229492 6.299339294433594 C 23.65165710449219 8.414573669433594 19.15968322753906 11.44334411621094 15.301513671875 15.301513671875 C 11.44334411621094 19.15968322753906 8.414573669433594 23.65165710449219 6.299339294433594 28.65262985229492 C 4.110054016113281 33.82865524291992 3 39.32871246337891 3 45 C 3 50.67128753662109 4.110054016113281 56.17134475708008 6.299339294433594 61.34737396240234 C 8.414573669433594 66.34834289550781 11.44334411621094 70.84031677246094 15.301513671875 74.698486328125 C 19.15968322753906 78.55665588378906 23.65165710449219 81.58542633056641 28.65262985229492 83.70066070556641 C 33.82865524291992 85.88994598388672 39.32871246337891 87 45 87 C 50.67128753662109 87 56.17134475708008 85.88994598388672 61.34737396240234 83.70066070556641 C 66.34834289550781 81.58542633056641 70.84031677246094 78.55665588378906 74.698486328125 74.698486328125 C 78.55665588378906 70.84031677246094 81.58542633056641 66.34834289550781 83.70066070556641 61.34737396240234 C 85.88994598388672 56.17134475708008 87 50.67128753662109 87 45 C 87 39.32871246337891 85.88994598388672 33.82865524291992 83.70066070556641 28.65262985229492 C 81.58542633056641 23.65165710449219 78.55665588378906 19.15968322753906 74.698486328125 15.301513671875 C 70.84031677246094 11.44334411621094 66.34834289550781 8.414573669433594 61.34737396240234 6.299339294433594 C 56.17134475708008 4.110054016113281 50.67128753662109 3 45 3 M 45 0 C 69.85281372070312 0 90 20.14718627929688 90 45 C 90 69.85281372070312 69.85281372070312 90 45 90 C 20.14718627929688 90 0 69.85281372070312 0 45 C 0 20.14718627929688 20.14718627929688 0 45 0 Z" stroke="none" fill="#ffde33"/>
            </g>
          </g>
        </g>
      </g>
    </g>
    <g id="bombilla_3_" data-name="bombilla (3)" transform="translate(209 3155)">
      <g id="Grupo_1151252" data-name="Grupo 1151252" transform="translate(0.959 0.959)">
        <path id="Trazado_991254" data-name="Trazado 991254" d="M240.479,471.854h6.537a3.2,3.2,0,0,1-3.2,3.2h-.144A3.2,3.2,0,0,1,240.479,471.854Z" transform="translate(-212.611 -416.251)" fill="#8c808a"/>
        <path id="Trazado_991255" data-name="Trazado 991255" d="M226.671,419.974H213.718v3.008a3.209,3.209,0,0,0,3.208,3.211h6.537a3.209,3.209,0,0,0,3.208-3.211v-3.008Z" transform="translate(-189.058 -370.59)" fill="#b2b2b2"/>
        <path id="Trazado_991256" data-name="Trazado 991256" d="M40.52,26.718V21.829l-4-.568a12.565,12.565,0,0,0-1.464-3.537l2.424-3.229L34.03,11.038,30.8,13.464A12.548,12.548,0,0,0,27.269,12L26.7,8H21.818l-.567,4a12.546,12.546,0,0,0-3.535,1.465l-3.227-2.426-3.454,3.457,2.424,3.229A12.573,12.573,0,0,0,12,21.261l-4,.568v4.889l4,.568a12.565,12.565,0,0,0,1.464,3.537l-2.424,3.229,3.454,3.457,3.227-2.426a12.548,12.548,0,0,0,3.535,1.465l.567,4H26.7l.567-4A12.546,12.546,0,0,0,30.8,35.082l3.227,2.426,3.454-3.457L35.06,30.823a12.568,12.568,0,0,0,1.464-3.537ZM24.333,29.911a6.225,6.225,0,1,1,6.22-6.225A6.222,6.222,0,0,1,24.333,29.911Z" transform="translate(-8 -8)" fill="#8c808a"/>
        <path id="Trazado_991257" data-name="Trazado 991257" d="M142.977,111.628V106.74l-4-.568a12.572,12.572,0,0,0-.547-1.7,17.063,17.063,0,0,0-5.733,2.188,6.218,6.218,0,0,1-6.959,8.07,17.282,17.282,0,0,0-.845,10.725h4.261l.567-4a12.547,12.547,0,0,0,3.535-1.465l3.227,2.426,3.454-3.457-2.424-3.229a12.567,12.567,0,0,0,1.464-3.537Z" transform="translate(-110.457 -92.91)" fill="#7b7179"/>
        <path id="Trazado_991258" data-name="Trazado 991258" d="M344.149,334.758v-3.273l-2.675-.38a8.412,8.412,0,0,0-.98-2.368l1.623-2.162-2.312-2.314-2.16,1.624a8.4,8.4,0,0,0-2.366-.981l-.38-2.677h-3.27l-.38,2.677a8.4,8.4,0,0,0-2.366.981l-2.16-1.624-2.312,2.314,1.623,2.162a8.411,8.411,0,0,0-.98,2.368l-2.675.38v3.273l2.675.38a8.414,8.414,0,0,0,.98,2.368l-1.623,2.162,2.312,2.314,2.16-1.624a8.4,8.4,0,0,0,2.366.981l.38,2.677h3.27l.38-2.677a8.4,8.4,0,0,0,2.366-.981l2.16,1.624,2.312-2.314-1.623-2.162a8.414,8.414,0,0,0,.98-2.368ZM333.264,337.5a4.379,4.379,0,1,1,4.376-4.379A4.378,4.378,0,0,1,333.264,337.5Z" transform="translate(-284.693 -284.56)" fill="#8c808a"/>
        <g id="Grupo_1151251" data-name="Grupo 1151251" transform="translate(48.048 37.667)">
          <g id="Grupo_1151250" data-name="Grupo 1151250">
            <g id="Grupo_1151245" data-name="Grupo 1151245" transform="translate(5.832 2.034)">
              <path id="Trazado_991259" data-name="Trazado 991259" d="M460.1,342.741l.926-1.233-2.312-2.314-1.232.926Z" transform="translate(-457.479 -339.194)" fill="#7b7179"/>
            </g>
            <g id="Grupo_1151246" data-name="Grupo 1151246" transform="translate(0)">
              <path id="Trazado_991260" data-name="Trazado 991260" d="M411.366,324.9l-.38-2.677h-2.158l.307,2.162a.6.6,0,0,0,.594.515Z" transform="translate(-408.829 -322.227)" fill="#7b7179"/>
            </g>
            <g id="Grupo_1151247" data-name="Grupo 1151247" transform="translate(5.832 16.209)">
              <path id="Trazado_991261" data-name="Trazado 991261" d="M457.481,460.066l1.232.926,2.312-2.314-.925-1.232Z" transform="translate(-457.481 -457.446)" fill="#7b7179"/>
            </g>
            <g id="Grupo_1151248" data-name="Grupo 1151248" transform="translate(9.251 8.952)">
              <path id="Trazado_991262" data-name="Trazado 991262" d="M486,396.905v3.886l2.158-.306v-3.273Z" transform="translate(-486 -396.905)" fill="#7b7179"/>
            </g>
            <g id="Grupo_1151249" data-name="Grupo 1151249" transform="translate(0 19.112)">
              <path id="Trazado_991263" data-name="Trazado 991263" d="M409.136,482.181l-.307,2.162h2.158l.38-2.677h-1.637A.6.6,0,0,0,409.136,482.181Z" transform="translate(-408.829 -481.666)" fill="#7b7179"/>
            </g>
          </g>
        </g>
        <path id="Trazado_991264" data-name="Trazado 991264" d="M173.633,137.31a14.839,14.839,0,1,0-25.074,10.753h0a14.949,14.949,0,0,1,3.365,5.244,26.12,26.12,0,0,1,.394,4.816H165.27a26.122,26.122,0,0,1,.394-4.816,14.951,14.951,0,0,1,3.365-5.244A14.815,14.815,0,0,0,173.633,137.31Z" transform="translate(-127.658 -108.739)" fill="#ffdc00"/>
        <path id="Trazado_991265" data-name="Trazado 991265" d="M260.934,471.853a3.2,3.2,0,0,1-2.19,3.036,3.186,3.186,0,0,0,1.007.163h.144a3.2,3.2,0,0,0,3.2-3.2h-2.158Z" transform="translate(-228.687 -416.25)" fill="#7b7179"/>
        <path id="Trazado_991266" data-name="Trazado 991266" d="M280.218,419.974v3.008a3.209,3.209,0,0,1-3.208,3.211h2.158a3.209,3.209,0,0,0,3.208-3.211v-3.008Z" transform="translate(-244.763 -370.59)" fill="#a0a0a0"/>
        <path id="Trazado_991267" data-name="Trazado 991267" d="M274.662,137.31a14.845,14.845,0,0,0-14.839-14.851q-.544,0-1.079.039a14.854,14.854,0,0,1,9.156,25.565c-2.836,2.7-2.615,2.614-3.365,5.244a26.124,26.124,0,0,0-.394,4.816H266.3a26.124,26.124,0,0,1,.394-4.816,14.951,14.951,0,0,1,3.365-5.244A14.814,14.814,0,0,0,274.662,137.31Z" transform="translate(-228.687 -108.739)" fill="#ffbf00"/>
      </g>
      <g id="Grupo_1151253" data-name="Grupo 1151253" transform="translate(0 0)">
        <path id="Trazado_991268" data-name="Trazado 991268" d="M60.6,47.026l-2.1-.3a9.3,9.3,0,0,0-.618-1.493l1.274-1.7a.9.9,0,0,0-.083-1.177l-2.317-2.319a.9.9,0,0,0-1.179-.083l-1.694,1.274a9.311,9.311,0,0,0-1.49-.618l-.3-2.1a.9.9,0,0,0-.892-.774H47.928a.9.9,0,0,0-.892.774l-.3,2.1a9.316,9.316,0,0,0-1.49.618l-1.469-1.1a15.586,15.586,0,0,0,3.968-8.645h.381a.9.9,0,1,0,0-1.8h-.264c0-.052,0-.1,0-.154a15.834,15.834,0,0,0-.544-4.123.9.9,0,0,0-1.739.469,14.036,14.036,0,0,1,.482,3.654,13.863,13.863,0,0,1-4.334,10.122l-.015.015a15.744,15.744,0,0,0-3.6,5.644,13.284,13.284,0,0,0-.343,2.459.9.9,0,0,0-.013.149v.051c-.034.555-.052,1.087-.062,1.512H35.142c-.1-1.244-.26-3.755-.213-6.348.025-1.392.1-2.538.216-3.48a9.653,9.653,0,0,0,3.342-1.03,3.215,3.215,0,0,0,1.279-4.213c-.554-.979-1.914-1.742-3.923-.67-1.027.548-1.741,1.8-2.183,3.838q-.047.217-.09.446c-.613.051-1.141.07-1.474.069s-.859-.017-1.471-.068q-.043-.23-.09-.447c-.442-2.035-1.156-3.29-2.183-3.838-2.009-1.071-3.369-.308-3.923.67a2.967,2.967,0,0,0-.228,2.249,3.336,3.336,0,0,0,1.508,1.965,9.655,9.655,0,0,0,3.342,1.03c.112.943.191,2.088.216,3.48.047,2.593-.115,5.1-.213,6.348H26.5a20.646,20.646,0,0,0-.418-4.171,15.838,15.838,0,0,0-3.6-5.643l-.017-.016A13.974,13.974,0,1,1,44.311,22.741a.9.9,0,1,0,1.575-.876,15.781,15.781,0,0,0-3.521-4.31h1.052a.9.9,0,1,0,0-1.8h-1.2a.9.9,0,0,0-.9.9c0,.026,0,.051,0,.076a15.767,15.767,0,0,0-8.356-2.958L30.2,13.38a13.474,13.474,0,0,0-1.105-2.671l2.072-2.76a.9.9,0,0,0-.083-1.178L27.619,3.308a.9.9,0,0,0-1.179-.083L23.684,5.3a13.453,13.453,0,0,0-2.667-1.106L20.531.774A.9.9,0,0,0,19.64,0H14.745a.9.9,0,0,0-.892.774l-.485,3.418A13.456,13.456,0,0,0,10.7,5.3L7.944,3.225a.9.9,0,0,0-1.179.083L3.3,6.772a.9.9,0,0,0-.083,1.177l2.072,2.76a13.48,13.48,0,0,0-1.105,2.67l-3.415.485A.9.9,0,0,0,0,14.757v4.9a.9.9,0,0,0,.774.892l3.415.485A13.465,13.465,0,0,0,5.294,23.7l-2.072,2.76A.9.9,0,0,0,3.3,27.64L6.766,31.1a.9.9,0,0,0,1.179.083L10.7,29.114a13.456,13.456,0,0,0,2.667,1.106l.485,3.418a.9.9,0,0,0,.892.774h2.347a15.684,15.684,0,0,0,4.119,6.533A14.081,14.081,0,0,1,24.348,45.8a24.314,24.314,0,0,1,.36,4.576h0V53.4A4.124,4.124,0,0,0,28,57.431a4.111,4.111,0,0,0,4.022,3.288h.144a4.111,4.111,0,0,0,4.022-3.288,4.124,4.124,0,0,0,3.3-4.036V52.225l1.144.163a9.318,9.318,0,0,0,.618,1.493l-1.274,1.7a.9.9,0,0,0,.083,1.178l2.317,2.319a.9.9,0,0,0,1.179.083l1.694-1.274a9.307,9.307,0,0,0,1.49.618l.3,2.1a.9.9,0,0,0,.892.774h3.277A.9.9,0,0,0,52.1,60.6l.3-2.1a9.311,9.311,0,0,0,1.49-.618l1.694,1.274a.9.9,0,0,0,1.179-.083l2.317-2.319a.9.9,0,0,0,.083-1.178l-1.274-1.7a9.331,9.331,0,0,0,.618-1.493l2.1-.3a.9.9,0,0,0,.774-.892V47.918a.9.9,0,0,0-.774-.892Zm-23.909-11.7a2.347,2.347,0,0,1,.981-.307.559.559,0,0,1,.526.275,1.423,1.423,0,0,1-.638,1.781,6.766,6.766,0,0,1-2.1.694C35.893,35.939,36.457,35.454,36.692,35.328ZM26.635,37.077A1.423,1.423,0,0,1,26,35.3a.559.559,0,0,1,.526-.275,2.347,2.347,0,0,1,.981.307c.235.125.8.612,1.228,2.444A6.768,6.768,0,0,1,26.635,37.077ZM15.527,32.611l-.459-3.233a.9.9,0,0,0-.678-.748A11.66,11.66,0,0,1,11.1,27.266a.9.9,0,0,0-1.009.05L7.487,29.277,5.131,26.92l1.96-2.611a.9.9,0,0,0,.05-1.008A11.682,11.682,0,0,1,5.779,20.01a.9.9,0,0,0-.748-.678L1.8,18.873V15.539l3.229-.459a.9.9,0,0,0,.748-.678,11.679,11.679,0,0,1,1.362-3.291.9.9,0,0,0-.05-1.008L5.132,7.492,7.487,5.135,10.094,7.1a.9.9,0,0,0,1.009.05,11.662,11.662,0,0,1,3.288-1.363.9.9,0,0,0,.678-.748L15.528,1.8h3.33l.459,3.232a.9.9,0,0,0,.678.748,11.666,11.666,0,0,1,3.288,1.363.9.9,0,0,0,1.009-.05L26.9,5.135l2.355,2.357L27.293,10.1a.9.9,0,0,0-.05,1.008,11.675,11.675,0,0,1,1.3,3.041,15.659,15.659,0,0,0-4.191,1.636,7.131,7.131,0,0,0-13.024-3.121.9.9,0,1,0,1.5,1A5.33,5.33,0,0,1,22.6,16.618c0,.108,0,.219-.011.332a15.894,15.894,0,0,0-4.258,4.9,5.329,5.329,0,0,1-6.392-5.229.9.9,0,1,0-1.8,0,7.143,7.143,0,0,0,7.132,7.138l.156,0a15.712,15.712,0,0,0-1.093,5.775,16.024,16.024,0,0,0,.3,3.082h-1.1ZM41.249,45.235a9.318,9.318,0,0,0-.618,1.493l-.97.138a7.124,7.124,0,0,1,.186-1.062,7.725,7.725,0,0,1,.66-1.556Zm-10.181-2.12c-.021-1.2-.083-2.289-.184-3.267.685.044,1.157.046,1.212.045s.53,0,1.215-.045c-.1.978-.163,2.07-.184,3.267-.046,2.593.1,5.049.207,6.365H30.862c.1-1.316.253-3.772.207-6.365Zm1.1,15.8h-.144a2.305,2.305,0,0,1-2.119-1.4h4.381A2.3,2.3,0,0,1,32.17,58.917ZM37.686,53.4a2.317,2.317,0,0,1-2.313,2.316h-6.55A2.317,2.317,0,0,1,26.51,53.4V51.282H37.686V53.4Zm21.887-2.98-1.906.271a.9.9,0,0,0-.748.678,7.524,7.524,0,0,1-.877,2.119.9.9,0,0,0,.05,1.008l1.157,1.541-1.212,1.213L54.5,56.088a.9.9,0,0,0-1.009-.05,7.508,7.508,0,0,1-2.117.878.9.9,0,0,0-.678.748l-.271,1.908H48.71l-.271-1.908a.9.9,0,0,0-.678-.748,7.51,7.51,0,0,1-2.117-.878.9.9,0,0,0-1.009.05L43.1,57.246l-1.212-1.213,1.157-1.541a.9.9,0,0,0,.05-1.008,7.527,7.527,0,0,1-.877-2.119.9.9,0,0,0-.748-.678l-1.906-.271V48.7l1.906-.271a.9.9,0,0,0,.748-.678,7.526,7.526,0,0,1,.877-2.119.9.9,0,0,0-.05-1.008l-1.157-1.541L43.1,41.869l1.539,1.157a.9.9,0,0,0,1.009.05,7.508,7.508,0,0,1,2.117-.878.9.9,0,0,0,.678-.748l.271-1.908h1.712l.271,1.908a.9.9,0,0,0,.678.748,7.515,7.515,0,0,1,2.117.878.9.9,0,0,0,1.009-.05l1.539-1.157,1.211,1.213-1.157,1.541a.9.9,0,0,0-.05,1.008,7.523,7.523,0,0,1,.877,2.119.9.9,0,0,0,.748.678l1.906.271Z" transform="translate(0 0)"/>
        <path id="Trazado_991269" data-name="Trazado 991269" d="M374.692,369.3a5.293,5.293,0,0,0-5.285,5.289.9.9,0,0,0,1.8,0,3.485,3.485,0,1,1,1.175,2.612.9.9,0,0,0-1.2,1.348,5.287,5.287,0,1,0,3.5-9.248Z" transform="translate(-325.125 -325.031)"/>
        <path id="Trazado_991270" data-name="Trazado 991270" d="M380.633,133.222h1.2a.9.9,0,0,0,0-1.8h-1.2a.9.9,0,0,0,0,1.8Z" transform="translate(-334.213 -115.666)"/>
        <path id="Trazado_991271" data-name="Trazado 991271" d="M448.764,141.435a6.112,6.112,0,0,1,.844.616.9.9,0,0,0,1.183-1.359,7.912,7.912,0,0,0-1.094-.8.9.9,0,1,0-.933,1.541Z" transform="translate(-394.587 -123.009)"/>
        <path id="Trazado_991272" data-name="Trazado 991272" d="M415.7,133.223c.38,0,.754.015,1.134.04a.91.91,0,0,0,.961-.8.9.9,0,0,0-.8-.994,11.732,11.732,0,0,0-1.3-.048.9.9,0,1,0,0,1.8Z" transform="translate(-365.077 -115.667)"/>
        <path id="Trazado_991273" data-name="Trazado 991273" d="M420.965,246.657a6.1,6.1,0,0,1-1.04.1.9.9,0,0,0,.01,1.8h.011a7.91,7.91,0,0,0,1.347-.132.9.9,0,0,0-.329-1.771Z" transform="translate(-368.805 -217.076)"/>
        <path id="Trazado_991274" data-name="Trazado 991274" d="M453.064,230.747a6.1,6.1,0,0,1-.8.676.9.9,0,1,0,1.043,1.469,7.9,7.9,0,0,0,1.033-.875.9.9,0,0,0-1.278-1.27Z" transform="translate(-397.72 -202.853)"/>
        <path id="Trazado_991275" data-name="Trazado 991275" d="M473.442,202.775a.909.909,0,0,0,1.156-.536,7.838,7.838,0,0,0,.354-1.308.9.9,0,0,0-1.773-.319,6.025,6.025,0,0,1-.273,1.007A.9.9,0,0,0,473.442,202.775Z" transform="translate(-416.169 -175.912)"/>
        <path id="Trazado_991276" data-name="Trazado 991276" d="M471.331,166.865a6.033,6.033,0,0,1,.346.984.9.9,0,1,0,1.745-.447,7.843,7.843,0,0,0-.449-1.279.9.9,0,1,0-1.642.742Z" transform="translate(-414.761 -145.743)"/>
        <path id="Trazado_991277" data-name="Trazado 991277" d="M24.1,309.595a.9.9,0,0,0-1.162.522,7.852,7.852,0,0,0-.37,1.3.9.9,0,1,0,1.769.34,6.037,6.037,0,0,1,.285-1A.9.9,0,0,0,24.1,309.595Z" transform="translate(-19.847 -272.431)"/>
        <path id="Trazado_991278" data-name="Trazado 991278" d="M43.293,374.45a6.106,6.106,0,0,1-.837-.626.9.9,0,1,0-1.2,1.345,7.929,7.929,0,0,0,1.084.811.9.9,0,1,0,.951-1.53Z" transform="translate(-36.047 -328.812)"/>
        <path id="Trazado_991279" data-name="Trazado 991279" d="M109.545,388.3h-1.2a.9.9,0,1,0,0,1.8h1.2a.9.9,0,1,0,0-1.8Z" transform="translate(-94.564 -341.753)"/>
        <path id="Trazado_991280" data-name="Trazado 991280" d="M144.614,388.3h-1.2a.9.9,0,1,0,0,1.8h1.2a.9.9,0,1,0,0-1.8Z" transform="translate(-125.429 -341.753)"/>
        <path id="Trazado_991281" data-name="Trazado 991281" d="M179.682,388.3h-1.2a.9.9,0,1,0,0,1.8h1.2a.9.9,0,1,0,0-1.8Z" transform="translate(-156.293 -341.753)"/>
        <path id="Trazado_991282" data-name="Trazado 991282" d="M25.262,345.678a6.05,6.05,0,0,1-.334-.989.9.9,0,1,0-1.75.426,7.849,7.849,0,0,0,.434,1.284.9.9,0,1,0,1.651-.722Z" transform="translate(-20.377 -302.765)"/>
        <path id="Trazado_991283" data-name="Trazado 991283" d="M74.5,387.913a8.855,8.855,0,0,1-1.088-.046.9.9,0,0,0-.22,1.788,10.675,10.675,0,0,0,1.309.059.9.9,0,1,0,0-1.8Z" transform="translate(-63.718 -341.367)"/>
        <path id="Trazado_991284" data-name="Trazado 991284" d="M39.836,284.934a.9.9,0,0,0,.631-.258,6.109,6.109,0,0,1,.805-.666.9.9,0,0,0-1.025-1.482,7.922,7.922,0,0,0-1.043.863A.908.908,0,0,0,39.836,284.934Z" transform="translate(-34.274 -248.52)"/>
        <path id="Trazado_991285" data-name="Trazado 991285" d="M70.646,273.99a6.122,6.122,0,0,1,1.041-.089.9.9,0,0,0,0-1.8,7.924,7.924,0,0,0-1.348.115.9.9,0,0,0,.307,1.775Z" transform="translate(-61.249 -239.482)"/>
      </g>
    </g>
  </g>
</svg>
